<svg class="show-on-mobile" xmlns="http://www.w3.org/2000/svg" width="375" height="630" fill="none" viewBox="0 0 375 630">
  <g class="Image" class="show-on-mobile">
    <image loading="lazy" y="76" x="0" width="375" height="630" class="g svg_house" href="./assets/images/spinhouse-demo/House-mobile.png"/>
    <g class="Pins">
      <g class="Markers">
        <path stroke="#F7F9FB" stroke-width="2" d="M294.5 379.5c-.408-10.543-1.284-31.691-1.528-31.935C292.972 339.63 259 290 178 290c-84 0-104 50-104 60.5v20C102.5 336 130.5 328 178 328s97.5 20 116.5 51.5Z" class="Vector 362"/>
        <path stroke="#F7F9FB" stroke-width="2" d="M190 406.346V368c8.433.481 18.847 1.404 23 1.805V408c-5.494-.722-17.623-1.404-23-1.654Z" class="Vector 363"/>
        <g class="Pin 360Â°">
          <g class="Text">
            <path fill="#1A1D21" fill-opacity=".8" d="M8 273.5h71a3.5 3.5 0 0 1 3.5 3.5v16a3.5 3.5 0 0 1-3.5 3.5H8a3.5 3.5 0 0 1-3.5-3.5v-16a3.5 3.5 0 0 1 3.5-3.5Z"/>
            <path stroke="#1A1E21" d="M8 273.5h71a3.5 3.5 0 0 1 3.5 3.5v16a3.5 3.5 0 0 1-3.5 3.5H8a3.5 3.5 0 0 1-3.5-3.5v-16a3.5 3.5 0 0 1 3.5-3.5Z"/>
            <path fill="#FAFBFE" d="m19.536 289.5-3.434-9.458h1.517l1.872 5.332c.114.343.246.747.394 1.212l.52 1.632c.19-.622.358-1.166.502-1.632.148-.465.279-.869.393-1.212l1.822-5.332h1.492L21.23 289.5h-1.694Zm5.941 0v-6.703h1.34v6.703h-1.34Zm.667-7.858a.847.847 0 0 1-.603-.235.797.797 0 0 1-.242-.584.78.78 0 0 1 .242-.584.831.831 0 0 1 .603-.241.83.83 0 0 1 .603.241.771.771 0 0 1 .247.584.787.787 0 0 1-.247.584.846.846 0 0 1-.603.235Zm4.767 7.991c-.584 0-1.094-.146-1.53-.438a2.93 2.93 0 0 1-1.016-1.225c-.241-.525-.362-1.132-.362-1.822 0-.689.121-1.294.362-1.815.246-.525.586-.933 1.022-1.225.436-.296.942-.444 1.517-.444.436 0 .834.091 1.194.273.36.181.647.459.863.831h.013v-3.726h1.339v9.458h-1.314v-1.022h-.013a2.185 2.185 0 0 1-.882.87c-.36.19-.758.285-1.193.285Zm.273-1.155c.57 0 1.026-.212 1.364-.635.343-.427.514-.992.514-1.695 0-.706-.17-1.271-.514-1.694-.338-.428-.793-.642-1.364-.642-.542 0-.982.202-1.32.604-.335.397-.502.975-.502 1.732 0 .758.167 1.336.501 1.733.339.398.779.597 1.32.597Zm7.503 1.174c-.665 0-1.236-.15-1.714-.45a3.001 3.001 0 0 1-1.099-1.238c-.253-.529-.38-1.13-.38-1.803 0-.681.133-1.286.4-1.815a3.091 3.091 0 0 1 1.104-1.244c.47-.305 1.01-.457 1.619-.457.635 0 1.185.148 1.65.444.47.296.834.709 1.092 1.238.258.524.387 1.132.387 1.821v.362h-4.932c.025.605.199 1.094.52 1.467.326.372.783.558 1.372.558.44 0 .801-.099 1.085-.298a1.41 1.41 0 0 0 .565-.775h1.288c-.08.432-.26.813-.539 1.143-.275.33-.622.588-1.041.774a3.391 3.391 0 0 1-1.377.273Zm-1.86-4.157h3.611c-.055-.534-.243-.955-.565-1.264-.321-.313-.736-.469-1.244-.469-.507 0-.922.156-1.244.469-.317.309-.503.73-.558 1.264Zm8.963 4.157c-.64 0-1.2-.148-1.683-.444a3.06 3.06 0 0 1-1.13-1.231c-.266-.525-.4-1.13-.4-1.816 0-.694.134-1.303.4-1.828a3.051 3.051 0 0 1 1.13-1.238c.483-.3 1.044-.45 1.683-.45s1.197.15 1.675.45c.483.296.857.709 1.124 1.238.27.525.406 1.134.406 1.828 0 .686-.135 1.291-.406 1.816a3.015 3.015 0 0 1-1.124 1.231c-.478.296-1.037.444-1.675.444Zm0-1.155c.575 0 1.028-.212 1.358-.635.33-.423.495-.99.495-1.701 0-.719-.167-1.293-.501-1.72-.33-.427-.781-.641-1.352-.641-.572 0-1.024.214-1.359.641-.33.423-.495.997-.495 1.72 0 .715.165 1.284.495 1.708.33.419.783.628 1.359.628Zm7.49 3.656v-9.356h1.314v.965h.019c.211-.368.501-.644.87-.825.368-.182.77-.273 1.206-.273.575 0 1.08.148 1.517.444.435.292.774.7 1.015 1.225.246.521.368 1.126.368 1.815 0 .69-.12 1.297-.361 1.822a2.93 2.93 0 0 1-1.016 1.225c-.436.292-.946.438-1.53.438a2.44 2.44 0 0 1-1.18-.285 2.24 2.24 0 0 1-.864-.857h-.019v3.662h-1.34Zm3.13-3.675c.54 0 .979-.199 1.313-.597.339-.397.508-.975.508-1.733 0-.757-.17-1.335-.508-1.732-.334-.402-.772-.604-1.314-.604-.571 0-1.028.214-1.37.642-.34.423-.509.988-.509 1.694 0 .703.17 1.268.508 1.695.343.423.8.635 1.371.635Zm4.36 1.022v-6.703h1.34v6.703h-1.34Zm.666-7.858a.846.846 0 0 1-.602-.235.797.797 0 0 1-.242-.584.78.78 0 0 1 .242-.584.83.83 0 0 1 .602-.241c.237 0 .438.08.604.241a.771.771 0 0 1 .247.584.787.787 0 0 1-.247.584.847.847 0 0 1-.603.235Zm3.53 3.999v3.859h-1.34v-6.703h1.314v1.009c.457-.762 1.132-1.142 2.025-1.142.462 0 .874.101 1.238.304.368.199.658.495.87.889.211.393.317.882.317 1.466v4.177h-1.34v-4.012c0-.537-.128-.941-.386-1.212-.259-.275-.618-.413-1.08-.413-.457 0-.842.142-1.155.426-.309.279-.463.73-.463 1.352Z" class="Text"/>
          </g>
          <g class="Pin">
            <path fill="#005450" stroke="#FAFBFE" stroke-width="2" d="M43.5 298c11.667 0 22 7.679 22 22.34 0 3.071-1.556 7.563-2.333 9.424L43.5 372l-19.667-42.236c-.777-1.861-2.333-6.353-2.333-9.424 0-14.661 10.334-22.34 22-22.34Z" class="Pin"/>
            <g class="Play">
              <path fill="#FAFBFE" fill-rule="evenodd" d="M43.5 333c-6.075 0-11-4.925-11-11s4.925-11 11-11 11 4.925 11 11-4.925 11-11 11Zm-12-11c0-6.627 5.373-12 12-12s12 5.373 12 12-5.373 12-12 12-12-5.373-12-12Zm10.6-4.8a1 1 0 0 0-1.6.8v8a1 1 0 0 0 1.6.8l5.333-4a1 1 0 0 0 0-1.6l-5.333-4Z" class="icon" clip-rule="evenodd"/>
            </g>
          </g>
        </g>
        <g class="Pin 360Â°">
          <g class="Text">
            <path fill="#1A1D21" fill-opacity=".8" d="M10 435.5h67a3.5 3.5 0 0 1 3.5 3.5v16a3.5 3.5 0 0 1-3.5 3.5H10a3.5 3.5 0 0 1-3.5-3.5v-16a3.5 3.5 0 0 1 3.5-3.5Z"/>
            <path stroke="#1A1E21" d="M10 435.5h67a3.5 3.5 0 0 1 3.5 3.5v16a3.5 3.5 0 0 1-3.5 3.5H10a3.5 3.5 0 0 1-3.5-3.5v-16a3.5 3.5 0 0 1 3.5-3.5Z"/>
            <path fill="#FAFBFE" d="M21.974 451.652c-.699 0-1.304-.137-1.816-.412a2.98 2.98 0 0 1-1.18-1.13c-.28-.478-.42-1.022-.42-1.631h1.39c0 .63.176 1.121.528 1.472.355.351.846.527 1.472.527.601 0 1.088-.152 1.46-.457.377-.305.565-.713.565-1.225 0-.47-.2-.846-.603-1.13-.398-.288-.922-.432-1.574-.432h-.787v-1.149h.787c.575 0 1.039-.131 1.39-.393a1.24 1.24 0 0 0 .533-1.047c0-.491-.165-.879-.495-1.162-.33-.284-.766-.425-1.308-.425-.558 0-1 .156-1.326.469-.322.313-.483.745-.483 1.295h-1.352c0-.571.134-1.077.4-1.517a2.78 2.78 0 0 1 1.111-1.041c.474-.25 1.026-.374 1.657-.374.6 0 1.138.114 1.612.342.474.225.846.538 1.117.94.275.398.413.853.413 1.365 0 .499-.157.933-.47 1.301-.313.364-.734.618-1.263.762v.019c.622.097 1.115.351 1.479.761.364.411.546.895.546 1.454 0 .55-.146 1.037-.438 1.46a2.968 2.968 0 0 1-1.206.997c-.508.241-1.088.361-1.74.361Zm7.845 0c-1.091 0-1.938-.395-2.539-1.187-.596-.791-.895-1.906-.895-3.345 0-1.054.13-1.972.387-2.755.259-.783.65-1.39 1.175-1.822.529-.435 1.195-.653 2-.653.575 0 1.08.11 1.516.33.44.216.794.518 1.06.907.267.39.428.838.483 1.346h-1.352c-.08-.427-.265-.768-.552-1.022-.284-.254-.656-.381-1.118-.381-.512 0-.937.146-1.276.438-.334.292-.583.694-.748 1.206-.166.512-.248 1.103-.248 1.771h.013c.22-.364.537-.649.952-.857.419-.211.88-.317 1.384-.317.58 0 1.098.138 1.555.413.457.27.816.643 1.079 1.117.266.474.4 1.011.4 1.612 0 .631-.14 1.187-.42 1.67a2.962 2.962 0 0 1-1.16 1.123c-.492.271-1.057.406-1.696.406Zm-.006-1.187c.36 0 .683-.089.971-.266a2.028 2.028 0 0 0 .952-1.746c0-.372-.082-.707-.247-1.003a1.867 1.867 0 0 0-.68-.711 1.785 1.785 0 0 0-.964-.266c-.36 0-.688.089-.984.266a1.99 1.99 0 0 0-.959 1.727c0 .368.085.704.254 1.009.174.301.404.542.692.724.292.177.614.266.965.266Zm7.871 1.187c-.732 0-1.365-.199-1.898-.596-.529-.398-.937-.961-1.225-1.689-.288-.732-.432-1.595-.432-2.59 0-.998.144-1.864.432-2.596.288-.732.696-1.297 1.225-1.695.533-.397 1.166-.596 1.898-.596.728 0 1.356.199 1.885.596.533.398.944.963 1.232 1.695.288.732.431 1.598.431 2.596 0 .995-.143 1.858-.431 2.59-.288.728-.699 1.291-1.232 1.689-.529.397-1.157.596-1.885.596Zm0-1.199c.686 0 1.225-.326 1.619-.978.398-.656.596-1.555.596-2.698 0-1.146-.199-2.048-.596-2.704-.394-.656-.933-.984-1.619-.984-.69 0-1.233.328-1.631.984-.394.656-.59 1.558-.59 2.704 0 1.143.196 2.042.59 2.698.398.652.941.978 1.631.978Zm6.85-4.145a2.12 2.12 0 0 1-1.093-.292 2.211 2.211 0 0 1-.787-.781 2.11 2.11 0 0 1-.292-1.092c0-.398.098-.762.292-1.092.195-.33.457-.592.787-.787.33-.195.694-.292 1.092-.292.398 0 .76.097 1.086.292.33.195.592.457.787.787.194.33.292.694.292 1.092 0 .398-.098.762-.292 1.092a2.212 2.212 0 0 1-.787.781 2.083 2.083 0 0 1-1.086.292Zm0-1.041a1.05 1.05 0 0 0 .793-.324c.22-.224.33-.491.33-.8 0-.313-.11-.58-.33-.8-.216-.22-.48-.33-.794-.33-.313 0-.58.11-.8.33-.22.22-.33.487-.33.8 0 .309.11.576.33.8.22.22.487.328.8.324Zm6.633 8.886v-9.356h1.313v.965h.02c.211-.368.501-.644.87-.825.367-.182.77-.273 1.205-.273.576 0 1.081.148 1.517.444.436.292.775.7 1.016 1.225.245.521.368 1.126.368 1.815 0 .69-.12 1.297-.362 1.822a2.93 2.93 0 0 1-1.015 1.225c-.436.292-.946.438-1.53.438a2.44 2.44 0 0 1-1.18-.285 2.24 2.24 0 0 1-.864-.857h-.02v3.662h-1.339Zm3.129-3.675c.542 0 .98-.199 1.314-.597.338-.397.508-.975.508-1.733 0-.757-.17-1.335-.508-1.732-.334-.402-.772-.604-1.314-.604-.571 0-1.028.214-1.371.642-.339.423-.508.988-.508 1.694 0 .703.17 1.268.508 1.695.343.423.8.635 1.37.635Zm4.36 1.022v-6.703h1.34v6.703h-1.34Zm.667-7.858a.846.846 0 0 1-.603-.235.797.797 0 0 1-.241-.584.78.78 0 0 1 .241-.584.831.831 0 0 1 .603-.241.83.83 0 0 1 .603.241.771.771 0 0 1 .248.584.787.787 0 0 1-.248.584.847.847 0 0 1-.603.235Zm3.53 3.999v3.859h-1.34v-6.703h1.314v1.009c.457-.762 1.132-1.142 2.025-1.142.461 0 .874.101 1.238.304.368.199.658.495.87.889.211.393.317.882.317 1.466v4.177h-1.34v-4.012c0-.537-.129-.941-.387-1.212-.258-.275-.617-.413-1.079-.413-.457 0-.842.142-1.155.426-.309.279-.464.73-.464 1.352Z" class="Text"/>
          </g>
          <g class="Pin">
            <path fill="#005450" stroke="#FAFBFE" stroke-width="2" d="M43.5 460c11.667 0 22 7.679 22 22.34 0 3.071-1.556 7.563-2.333 9.424L43.5 534l-19.667-42.236c-.777-1.861-2.333-6.353-2.333-9.424 0-14.661 10.334-22.34 22-22.34Z" class="Pin"/>
            <g class="Pin 360Â°">
              <path fill="#FAFBFE" fill-rule="evenodd" d="M34.858 479.857c.366.161.784.242 1.253.242.471 0 .891-.09 1.26-.27.37-.18.661-.426.874-.739.216-.315.323-.67.323-1.065 0-.462-.129-.849-.387-1.162-.258-.314-.616-.51-1.076-.585v-.057c.367-.112.657-.312.87-.6.216-.289.323-.638.323-1.048a1.87 1.87 0 0 0-.259-.959 1.925 1.925 0 0 0-.742-.714c-.322-.182-.708-.273-1.158-.273-.419 0-.803.08-1.154.241-.348.161-.63.386-.845.675-.215.287-.33.62-.344 1.002h.852c.012-.242.087-.448.227-.618.14-.173.32-.305.54-.395a1.84 1.84 0 0 1 .71-.138c.268 0 .5.051.696.153.2.101.353.244.462.426.109.182.163.396.163.643a1.18 1.18 0 0 1-.703 1.108 1.745 1.745 0 0 1-.76.156h-.582v.781h.582c.37 0 .682.058.938.174.255.116.45.277.582.483.133.204.199.439.199.707 0 .255-.069.48-.206.674a1.36 1.36 0 0 1-.568.455 2 2 0 0 1-.831.163c-.28 0-.534-.046-.764-.138a1.403 1.403 0 0 1-.557-.391 1.056 1.056 0 0 1-.242-.607h-.895c.02.381.135.716.348 1.005.216.286.506.51.87.671Zm6.283.071c.298.109.596.166.895.171.49.004.916-.102 1.278-.32.365-.22.648-.516.849-.888.2-.374.302-.786.302-1.236 0-.468-.105-.884-.313-1.246a2.307 2.307 0 0 0-.83-.856 2.176 2.176 0 0 0-1.144-.312 2.12 2.12 0 0 0-1.79.965h-.057c.002-.885.165-1.573.486-2.063.325-.49.769-.735 1.332-.735.384 0 .691.108.923.323.232.216.389.487.47.814h.866a2.359 2.359 0 0 0-.39-.998 2.072 2.072 0 0 0-.782-.675 2.344 2.344 0 0 0-1.087-.245c-.41 0-.778.089-1.104.266a2.369 2.369 0 0 0-.831.782c-.23.34-.405.761-.526 1.26a7.287 7.287 0 0 0-.18 1.712c0 .672.074 1.231.223 1.676.149.443.347.794.593 1.055.246.258.518.441.817.55Zm1.697-.834a1.474 1.474 0 0 1-.802.223 1.47 1.47 0 0 1-.814-.231 1.684 1.684 0 0 1-.64-2.038c.084-.199.198-.375.342-.529a1.61 1.61 0 0 1 .511-.362 1.48 1.48 0 0 1 .629-.135c.298 0 .563.073.795.22.235.147.418.344.55.593.136.246.203.52.203.82 0 .308-.07.587-.21.838a1.608 1.608 0 0 1-.564.601Zm3.628.568c.376.291.832.437 1.367.437s.991-.146 1.367-.437c.377-.294.664-.719.863-1.275.2-.559.299-1.234.299-2.024 0-.786-.101-1.457-.302-2.014-.2-.558-.488-.985-.867-1.278-.376-.296-.83-.444-1.36-.444-.53 0-.985.148-1.363.444-.377.293-.666.72-.867 1.278-.199.557-.298 1.228-.298 2.014 0 .79.1 1.465.298 2.024.199.556.487.981.863 1.275Zm2.603-1.112c-.294.512-.706.767-1.236.767-.352 0-.654-.115-.905-.344-.249-.23-.44-.565-.572-1.005-.133-.44-.199-.976-.199-1.605 0-.945.148-1.675.444-2.191.296-.519.707-.778 1.232-.778.35 0 .65.116.899.348.25.232.442.569.575 1.012.135.443.202.979.202 1.609 0 .947-.146 1.676-.44 2.187Zm2.938-2.834c.249.147.523.221.824.221.3 0 .574-.074.82-.221.249-.146.446-.343.593-.589a1.59 1.59 0 0 0 .22-.824c0-.301-.073-.574-.22-.82a1.654 1.654 0 0 0-.593-.593 1.57 1.57 0 0 0-.82-.22c-.3 0-.575.073-.824.22a1.663 1.663 0 0 0-.59.593c-.146.246-.22.519-.22.82 0 .301.074.575.22.824.147.246.344.443.59.589Zm1.29-.614a.893.893 0 0 1-.466.124.893.893 0 0 1-.465-.124.94.94 0 0 1-.334-.334.891.891 0 0 1-.124-.465c0-.17.041-.325.124-.465a.94.94 0 0 1 .334-.334.893.893 0 0 1 .465-.124c.17 0 .325.041.465.124.14.083.251.194.334.334.083.14.124.295.124.465a.89.89 0 0 1-.124.465.938.938 0 0 1-.334.334ZM33 485.463c0-.221.199-.564.883-.973.645-.387 1.575-.742 2.667-1.042 2.18-.599 4.885-.949 6.95-.949 2.064 0 4.77.35 6.949.949 1.092.3 2.022.655 2.668 1.042.683.409.882.752.882.973 0 .704-.546 1.246-1.511 1.641-.94.384-2.09.542-2.862.564a.5.5 0 0 0-.486.5v1.045c-1.482-.495-3.144-.786-5.64-.786-2.497 0-4.159.291-5.64.786v-1.045a.5.5 0 0 0-.486-.5c-.773-.022-1.923-.18-2.863-.564-.965-.395-1.511-.937-1.511-1.641Zm19.867 2.566c.394-.161.79-.371 1.132-.641v4.908c0 .704-.546 1.246-1.511 1.641-.748.306-1.63.468-2.348.533v-5.83c.807-.065 1.833-.245 2.727-.611Zm2.132 4.267v-6.833c0-.799-.648-1.399-1.368-1.831-.758-.454-1.787-.837-2.917-1.148-2.266-.623-5.06-.985-7.214-.985-2.154 0-4.949.362-7.215.985-1.13.311-2.159.694-2.916 1.148-.72.432-1.369 1.032-1.369 1.831v6.833c0 1.347 1.073 2.133 2.133 2.567 1.085.444 2.364.613 3.211.638a.5.5 0 0 0 .515-.5v-4.73c1.45-.522 3.056-.844 5.64-.844 2.585 0 4.19.322 5.641.844v4.73a.5.5 0 0 0 .515.5c.847-.025 2.126-.194 3.212-.638 1.059-.434 2.132-1.22 2.132-2.567Zm-21.999 0v-4.908c.342.27.739.48 1.133.641.894.366 1.919.546 2.726.611v5.83c-.718-.065-1.6-.227-2.348-.533-.965-.395-1.511-.937-1.511-1.641Z" class="icon" clip-rule="evenodd"/>
            </g>
          </g>
        </g>
        <g class="3D showroom pin">
          <g class="Text">
            <path fill="#1A1D21" fill-opacity=".8" d="M286 418.5h79a3.5 3.5 0 0 1 3.5 3.5v34a3.5 3.5 0 0 1-3.5 3.5h-79a3.5 3.5 0 0 1-3.5-3.5v-34a3.5 3.5 0 0 1 3.5-3.5Z"/>
            <path stroke="#1A1E21" d="M286 418.5h79a3.5 3.5 0 0 1 3.5 3.5v34a3.5 3.5 0 0 1-3.5 3.5h-79a3.5 3.5 0 0 1-3.5-3.5v-34a3.5 3.5 0 0 1 3.5-3.5Z"/>
            <path fill="#FAFBFE" d="M321.031 435.152c-.698 0-1.303-.137-1.815-.412a2.977 2.977 0 0 1-1.181-1.13 3.176 3.176 0 0 1-.419-1.631h1.39c0 .63.176 1.121.527 1.472.356.351.847.527 1.473.527.601 0 1.087-.152 1.46-.457.376-.305.565-.713.565-1.225 0-.47-.201-.846-.603-1.13-.398-.288-.923-.432-1.574-.432h-.788v-1.149h.788c.575 0 1.038-.131 1.39-.393a1.24 1.24 0 0 0 .533-1.047c0-.491-.165-.879-.495-1.162-.33-.284-.766-.425-1.308-.425-.558 0-1.001.156-1.327.469-.321.313-.482.745-.482 1.295h-1.352c0-.571.133-1.077.4-1.517a2.776 2.776 0 0 1 1.111-1.041c.474-.25 1.026-.374 1.656-.374.601 0 1.139.114 1.613.342.474.225.846.538 1.117.94.275.398.413.853.413 1.365 0 .499-.157.933-.47 1.301-.313.364-.734.618-1.263.762v.019c.622.097 1.115.351 1.479.761.364.411.546.895.546 1.454 0 .55-.146 1.037-.438 1.46a2.969 2.969 0 0 1-1.206.997c-.508.241-1.088.361-1.74.361Zm7.821-.152h-3.06v-9.458h3.155c.927 0 1.724.19 2.393.571a3.823 3.823 0 0 1 1.549 1.632c.359.702.539 1.54.539 2.513 0 .978-.182 1.822-.546 2.533a3.821 3.821 0 0 1-1.568 1.638c-.681.381-1.502.571-2.462.571Zm-1.651-1.225h1.562c1.104 0 1.921-.311 2.45-.933.533-.622.8-1.483.8-2.584 0-1.096-.263-1.951-.787-2.564-.525-.618-1.314-.927-2.368-.927h-1.657v7.008Zm-28.825 18.377c-1.134 0-2.029-.285-2.685-.857-.651-.575-.977-1.362-.977-2.361h1.409c.004.622.203 1.109.597 1.46.398.351.95.527 1.656.527.644 0 1.158-.136 1.543-.406.389-.275.584-.644.584-1.105 0-.364-.14-.658-.419-.882-.275-.229-.741-.421-1.396-.578l-1.035-.247c-.957-.229-1.655-.546-2.095-.953-.436-.41-.654-.943-.654-1.599 0-.554.14-1.039.419-1.454.28-.414.671-.736 1.175-.965.507-.228 1.1-.342 1.777-.342 1.02 0 1.83.266 2.431.799.605.534.923 1.262.952 2.184h-1.365c-.033-.546-.232-.973-.596-1.282-.364-.313-.844-.47-1.441-.47-.571 0-1.039.138-1.403.413-.364.271-.546.62-.546 1.047 0 .343.14.622.419.838.279.212.743.396 1.39.552l1.022.241c.948.225 1.646.548 2.095.972.453.423.679.973.679 1.65 0 .567-.146 1.062-.438 1.485-.292.424-.702.751-1.231.984-.529.233-1.151.349-1.867.349Zm6.107-4.011V452h-1.339v-9.458h1.339v3.72c.461-.732 1.128-1.098 1.999-1.098.462 0 .874.101 1.238.304.368.199.658.495.87.889.211.393.317.882.317 1.466V452h-1.339v-4.012c0-.537-.129-.941-.387-1.212-.258-.275-.618-.413-1.079-.413-.457 0-.843.142-1.156.426-.309.279-.463.73-.463 1.352Zm8.817 4.011c-.639 0-1.2-.148-1.682-.444a3.057 3.057 0 0 1-1.13-1.231c-.267-.525-.4-1.13-.4-1.816 0-.694.133-1.303.4-1.828a3.044 3.044 0 0 1 1.13-1.238c.482-.3 1.043-.45 1.682-.45s1.197.15 1.676.45c.482.296.857.709 1.123 1.238.271.525.406 1.134.406 1.828 0 .686-.135 1.291-.406 1.816a3.013 3.013 0 0 1-1.123 1.231c-.479.296-1.037.444-1.676.444Zm0-1.155c.575 0 1.028-.212 1.358-.635.33-.423.495-.99.495-1.701 0-.719-.167-1.293-.501-1.72-.33-.427-.781-.641-1.352-.641-.571 0-1.024.214-1.359.641-.33.423-.495.997-.495 1.72 0 .715.165 1.284.495 1.708.33.419.783.628 1.359.628Zm5.649 1.003-2.075-6.703h1.402l.768 2.742c.115.406.223.821.324 1.244.106.423.21.842.311 1.257.11-.415.218-.834.324-1.257.11-.423.22-.838.33-1.244l.781-2.742h1.276l.768 2.742c.114.402.224.813.33 1.232.106.418.211.833.317 1.244.102-.411.203-.826.305-1.244.106-.419.216-.83.33-1.232l.774-2.742h1.416L324.554 452h-1.396l-.851-2.92a50.703 50.703 0 0 1-.286-1.041c-.088-.355-.177-.709-.266-1.06l-.279 1.06c-.089.356-.184.703-.286 1.041l-.863 2.92h-1.378Zm8.595 0v-6.703h1.282v1.085h.026c.122-.368.315-.653.577-.857.267-.207.614-.311 1.041-.311.102 0 .195.005.28.013.084.009.154.015.209.019v1.251a2.139 2.139 0 0 0-.273-.039 3.568 3.568 0 0 0-.432-.025c-.376 0-.7.131-.971.394-.266.262-.4.666-.4 1.212V452h-1.339Zm7.198.152c-.639 0-1.2-.148-1.682-.444a3.064 3.064 0 0 1-1.13-1.231c-.266-.525-.4-1.13-.4-1.816 0-.694.134-1.303.4-1.828a3.051 3.051 0 0 1 1.13-1.238c.482-.3 1.043-.45 1.682-.45s1.198.15 1.676.45a3.01 3.01 0 0 1 1.124 1.238c.27.525.406 1.134.406 1.828 0 .686-.136 1.291-.406 1.816a3.022 3.022 0 0 1-1.124 1.231c-.478.296-1.037.444-1.676.444Zm0-1.155c.576 0 1.029-.212 1.359-.635.33-.423.495-.99.495-1.701 0-.719-.167-1.293-.502-1.72-.33-.427-.781-.641-1.352-.641-.571 0-1.024.214-1.358.641-.33.423-.495.997-.495 1.72 0 .715.165 1.284.495 1.708.33.419.783.628 1.358.628Zm7.275 1.155c-.639 0-1.2-.148-1.683-.444a3.054 3.054 0 0 1-1.129-1.231c-.267-.525-.4-1.13-.4-1.816 0-.694.133-1.303.4-1.828.27-.529.647-.942 1.129-1.238.483-.3 1.044-.45 1.683-.45s1.197.15 1.675.45c.483.296.857.709 1.124 1.238.271.525.406 1.134.406 1.828 0 .686-.135 1.291-.406 1.816a3.015 3.015 0 0 1-1.124 1.231c-.478.296-1.036.444-1.675.444Zm0-1.155c.575 0 1.028-.212 1.358-.635.33-.423.495-.99.495-1.701 0-.719-.167-1.293-.501-1.72-.33-.427-.781-.641-1.352-.641-.572 0-1.024.214-1.359.641-.33.423-.495.997-.495 1.72 0 .715.165 1.284.495 1.708.33.419.783.628 1.359.628Zm4.392 1.003v-6.703h1.301v1.123c.208-.414.489-.727.845-.939.355-.212.74-.317 1.155-.317.457 0 .857.116 1.2.349.347.232.59.529.73.888.182-.364.457-.66.825-.888.372-.233.806-.349 1.301-.349.415 0 .791.091 1.13.273.339.181.607.452.806.812.199.355.298.802.298 1.339V452h-1.345v-4.297c0-.479-.134-.826-.4-1.041a1.457 1.457 0 0 0-.946-.324c-.448 0-.802.14-1.06.419-.258.275-.387.626-.387 1.054V452h-1.32v-4.386c0-.385-.125-.694-.375-.927-.245-.233-.559-.349-.939-.349-.39 0-.735.137-1.035.412-.296.276-.444.678-.444 1.207V452h-1.34Z" class="3D Showroom"/>
          </g>
          <g class="Pin">
            <path fill="#005450" stroke="#FAFBFE" stroke-width="2" d="M325.5 461c11.667 0 22 7.679 22 22.34 0 3.071-1.556 7.563-2.333 9.424L325.5 535l-19.667-42.236c-.777-1.861-2.333-6.353-2.333-9.424 0-14.661 10.334-22.34 22-22.34Z" class="Pin"/>
            <g class="Apartment">
              <path fill="#FAFBFE" fill-rule="evenodd" d="M313.798 474.25h23.499v10.461h-2.142v11.038h-15.732v-5.256h-5.625V474.25Zm6.625 16.243v4.256h13.732v-10.038h-2.679v-1h4.821v-8.461h-12.392v3.417h-1v-3.417h-8.107v14.243h8.107v-6.833h1v1.84h3.75v1h-3.75v4.993h-3.482Z" class="icon" clip-rule="evenodd"/>
            </g>
          </g>
        </g>
        <g class="Marker">
          <g class="Text">
            <path fill="#1A1D21" fill-opacity=".8" d="M290 321.5h71a3.5 3.5 0 0 1 3.5 3.5v16a3.5 3.5 0 0 1-3.5 3.5h-71a3.5 3.5 0 0 1-3.5-3.5v-16a3.5 3.5 0 0 1 3.5-3.5Z"/>
            <path stroke="#1A1E21" d="M290 321.5h71a3.5 3.5 0 0 1 3.5 3.5v16a3.5 3.5 0 0 1-3.5 3.5h-71a3.5 3.5 0 0 1-3.5-3.5v-16a3.5 3.5 0 0 1 3.5-3.5Z"/>
            <path fill="#FAFBFE" d="M298.863 337.5v-9.458h3.504c1.012 0 1.814.264 2.406.793.592.529.889 1.247.889 2.152 0 .605-.138 1.13-.413 1.575-.275.44-.662.78-1.162 1.021-.499.237-1.087.356-1.764.356h-2.051v3.561h-1.409Zm1.409-4.78h2.025c.61 0 1.09-.154 1.441-.463.356-.313.533-.736.533-1.27 0-.533-.177-.952-.533-1.257-.351-.308-.831-.463-1.441-.463h-2.025v3.453Zm7.859.921v3.859h-1.339v-9.458h1.339v3.72c.461-.732 1.128-1.098 1.999-1.098.462 0 .874.101 1.238.304.368.199.658.495.87.889.211.393.317.882.317 1.466v4.177h-1.339v-4.012c0-.537-.129-.941-.387-1.212-.259-.275-.618-.413-1.079-.413-.458 0-.843.142-1.156.426-.309.279-.463.73-.463 1.352Zm8.817 4.011c-.639 0-1.2-.148-1.682-.444a3.057 3.057 0 0 1-1.13-1.231c-.267-.525-.4-1.13-.4-1.816 0-.694.133-1.303.4-1.828a3.044 3.044 0 0 1 1.13-1.238c.482-.3 1.043-.45 1.682-.45s1.197.15 1.676.45c.482.296.856.709 1.123 1.238.271.525.406 1.134.406 1.828 0 .686-.135 1.291-.406 1.816a3.02 3.02 0 0 1-1.123 1.231c-.479.296-1.037.444-1.676.444Zm0-1.155c.575 0 1.028-.212 1.358-.635.33-.423.495-.99.495-1.701 0-.719-.167-1.293-.501-1.72-.33-.427-.781-.641-1.352-.641-.572 0-1.024.214-1.359.641-.33.423-.495.997-.495 1.72 0 .715.165 1.284.495 1.708.33.419.783.628 1.359.628Zm7.623-5.7v1.104h-1.358v3.828c0 .25.051.423.152.521.102.097.286.146.552.146h.654v1.104h-.844c-1.24 0-1.86-.533-1.86-1.6v-3.999h-1.18v-1.104h1.18v-1.828h1.346v1.828h1.358Zm3.828 6.855c-.639 0-1.2-.148-1.682-.444a3.057 3.057 0 0 1-1.13-1.231c-.267-.525-.4-1.13-.4-1.816 0-.694.133-1.303.4-1.828a3.044 3.044 0 0 1 1.13-1.238c.482-.3 1.043-.45 1.682-.45s1.198.15 1.676.45c.482.296.857.709 1.123 1.238.271.525.406 1.134.406 1.828 0 .686-.135 1.291-.406 1.816a3.013 3.013 0 0 1-1.123 1.231c-.478.296-1.037.444-1.676.444Zm0-1.155c.575 0 1.028-.212 1.358-.635.33-.423.495-.99.495-1.701 0-.719-.167-1.293-.501-1.72-.33-.427-.781-.641-1.352-.641-.571 0-1.024.214-1.358.641-.331.423-.496.997-.496 1.72 0 .715.165 1.284.496 1.708.33.419.782.628 1.358.628Zm7.49 3.656v-9.356h1.314v.965h.019c.212-.368.502-.644.87-.825.368-.182.77-.273 1.206-.273.575 0 1.081.148 1.517.444.436.292.774.7 1.016 1.225.245.521.368 1.126.368 1.815 0 .69-.121 1.297-.362 1.822-.241.521-.58.929-1.016 1.225-.436.292-.946.438-1.529.438-.436 0-.83-.095-1.181-.285a2.239 2.239 0 0 1-.863-.857h-.019v3.662h-1.34Zm3.13-3.675c.541 0 .979-.199 1.314-.597.338-.397.507-.975.507-1.733 0-.757-.169-1.335-.507-1.732-.335-.402-.773-.604-1.314-.604-.572 0-1.029.214-1.372.642-.338.423-.507.988-.507 1.694 0 .703.169 1.268.507 1.695.343.423.8.635 1.372.635Zm4.36 1.022v-6.703h1.34v6.703h-1.34Zm.667-7.858a.846.846 0 0 1-.603-.235.796.796 0 0 1-.241-.584.78.78 0 0 1 .241-.584.83.83 0 0 1 .603-.241.83.83 0 0 1 .603.241.77.77 0 0 1 .247.584.786.786 0 0 1-.247.584.846.846 0 0 1-.603.235Zm3.529 3.999v3.859h-1.339v-6.703h1.314v1.009c.457-.762 1.132-1.142 2.025-1.142.461 0 .874.101 1.237.304.369.199.659.495.87.889.212.393.318.882.318 1.466v4.177h-1.34v-4.012c0-.537-.129-.941-.387-1.212-.258-.275-.618-.413-1.079-.413-.457 0-.842.142-1.155.426-.309.279-.464.73-.464 1.352Z" class="Text"/>
          </g>
          <circle cx="325.5" cy="355" r="9" fill="#005450" fill-opacity=".72" stroke="#FAFBFE" stroke-width="2" class="Ellipse 83"/>
        </g>
        <g class="Spin nav">
          <rect width="160" height="56" x="107" y="488" fill="#1A1D21" fill-opacity=".4" rx="28"/>
          <g class="Spin arrow">
            <path fill="#FAFBFE" fill-opacity=".88" d="M115 516c0-11.046 8.954-20 20-20s20 8.954 20 20-8.954 20-20 20-20-8.954-20-20Z"/>
            <path stroke="#AEBECC" stroke-opacity=".4" d="M135 535.5c-10.77 0-19.5-8.73-19.5-19.5s8.73-19.5 19.5-19.5 19.5 8.73 19.5 19.5-8.73 19.5-19.5 19.5Z"/>
            <g class="Big arrow left">
              <path fill="#1A1E21" fill-rule="evenodd" d="m131.462 517.501 5.132 5.474-2.188 2.051-7.5-8-.962-1.025.962-1.026 7.5-8 2.188 2.051-5.132 5.475H143v3h-11.538Z" class="icon" clip-rule="evenodd"/>
            </g>
          </g>
          <path fill="#FAFBFE" d="M170.172 523.234c-1.139 0-2.113-.218-2.92-.654-.801-.443-1.416-1.038-1.846-1.787-.423-.749-.635-1.589-.635-2.52h2.51c0 .912.251 1.622.752 2.129.508.502 1.211.752 2.11.752.846 0 1.533-.215 2.06-.644.534-.43.801-1.003.801-1.719 0-.671-.287-1.211-.859-1.621-.567-.41-1.316-.615-2.247-.615h-1.25v-1.983h1.25c.84 0 1.511-.185 2.012-.556.501-.371.752-.87.752-1.495 0-.69-.234-1.24-.703-1.65-.469-.41-1.084-.615-1.846-.615-.787 0-1.416.228-1.884.683-.469.45-.704 1.062-.704 1.836h-2.451c0-.885.209-1.67.625-2.353a4.388 4.388 0 0 1 1.768-1.621c.755-.391 1.64-.586 2.656-.586.957 0 1.81.176 2.559.527.748.345 1.338.824 1.767 1.436.436.612.655 1.315.655 2.109 0 .788-.251 1.462-.752 2.022-.502.559-1.159.937-1.973 1.132v.03c.989.136 1.764.527 2.324 1.172.567.638.85 1.39.85 2.255 0 .84-.231 1.589-.694 2.247-.462.651-1.097 1.162-1.904 1.533-.807.371-1.735.556-2.783.556Zm12.305 0c-1.745 0-3.099-.615-4.063-1.845-.963-1.237-1.445-2.976-1.445-5.215 0-1.608.208-3.008.625-4.199.423-1.192 1.054-2.116 1.894-2.774.84-.657 1.888-.986 3.145-.986.924 0 1.738.176 2.441.527.71.352 1.276.837 1.699 1.455.424.612.678 1.312.762 2.1h-2.441c-.117-.612-.388-1.1-.811-1.465-.416-.365-.96-.547-1.631-.547-.742 0-1.357.208-1.845.625-.482.41-.843.983-1.084 1.719-.235.736-.352 1.585-.352 2.549h.02a3.534 3.534 0 0 1 1.455-1.289c.618-.313 1.308-.469 2.07-.469.918 0 1.735.212 2.451.635a4.554 4.554 0 0 1 1.699 1.728c.411.729.616 1.559.616 2.49 0 .977-.222 1.84-.664 2.588a4.676 4.676 0 0 1-1.846 1.748c-.781.417-1.68.625-2.695.625Zm-.01-2.099c.514 0 .98-.127 1.396-.381a2.87 2.87 0 0 0 1.358-2.481c0-.533-.121-1.012-.362-1.435a2.637 2.637 0 0 0-.966-1.016 2.658 2.658 0 0 0-1.397-.371 2.751 2.751 0 0 0-2.402 1.397 2.816 2.816 0 0 0-.371 1.435c0 .534.12 1.016.361 1.446.247.429.576.771.986 1.025a2.63 2.63 0 0 0 1.397.381Zm12.304 2.099c-1.171 0-2.181-.306-3.027-.918-.846-.612-1.501-1.477-1.963-2.597-.455-1.12-.683-2.448-.683-3.985 0-1.543.228-2.874.683-3.994.462-1.126 1.117-1.995 1.963-2.607.846-.612 1.856-.918 3.027-.918 1.172 0 2.181.306 3.028.918.853.612 1.507 1.481 1.963 2.607.455 1.12.683 2.451.683 3.994 0 1.537-.228 2.868-.683 3.995-.456 1.119-1.11 1.985-1.963 2.597-.847.606-1.856.908-3.028.908Zm0-2.129c1.003 0 1.791-.478 2.364-1.435.579-.957.869-2.269.869-3.936 0-1.679-.29-2.998-.869-3.955-.573-.957-1.361-1.435-2.364-1.435-1.002 0-1.793.478-2.373 1.435-.572.957-.859 2.276-.859 3.955 0 1.667.287 2.979.859 3.936.58.957 1.371 1.435 2.373 1.435Zm10.704-5.957a3.296 3.296 0 0 1-1.719-.459 3.487 3.487 0 0 1-1.231-1.23 3.279 3.279 0 0 1-.459-1.709c0-.625.153-1.195.459-1.709a3.487 3.487 0 0 1 1.231-1.23 3.24 3.24 0 0 1 1.719-.469c.625 0 1.191.156 1.699.469.514.306.924.716 1.23 1.23.306.514.459 1.084.459 1.709s-.153 1.195-.459 1.709a3.484 3.484 0 0 1-1.23 1.23 3.228 3.228 0 0 1-1.699.459Zm0-1.777c.442 0 .82-.156 1.132-.469a1.57 1.57 0 0 0 .479-1.152c0-.449-.16-.83-.479-1.143a1.526 1.526 0 0 0-1.132-.478c-.45 0-.834.159-1.153.478a1.54 1.54 0 0 0-.478 1.143c0 .449.159.833.478 1.152.319.313.703.469 1.153.469Z" class="360Â°"/>
          <g class="Spin arrow">
            <path fill="#FAFBFE" fill-opacity=".88" d="M219 516c0-11.046 8.954-20 20-20s20 8.954 20 20-8.954 20-20 20-20-8.954-20-20Z"/>
            <path stroke="#AEBECC" stroke-opacity=".4" d="M239 535.5c-10.77 0-19.5-8.73-19.5-19.5s8.73-19.5 19.5-19.5 19.5 8.73 19.5 19.5-8.73 19.5-19.5 19.5Z"/>
            <g class="Big arrow right">
              <path fill="#1A1E21" fill-rule="evenodd" d="m242.538 517.501-5.132 5.474 2.188 2.051 7.5-8 .962-1.025-.962-1.026-7.5-8-2.188 2.051 5.132 5.475H231v3h11.538Z" class="icon" clip-rule="evenodd"/>
            </g>
          </g>
        </g>
        <g class="Mobile">
          <g class="Menu mobile buttons">
            <path fill="#FAFBFE" fill-opacity=".88" d="M44 552a8 8 0 0 1 8-8h24a8 8 0 0 1 8 8v24a8 8 0 0 1-8 8H52a8 8 0 0 1-8-8v-24Z"/>
            <path stroke="#AEBECC" stroke-opacity=".4" d="M52 544.5h24a7.5 7.5 0 0 1 7.5 7.5v24a7.5 7.5 0 0 1-7.5 7.5H52a7.5 7.5 0 0 1-7.5-7.5v-24a7.5 7.5 0 0 1 7.5-7.5Z"/>
            <g class="Filter">
              <path fill="#1A1E21" fill-rule="evenodd" d="M65.75 557.5a1.75 1.75 0 1 1 3.5 0 1.75 1.75 0 0 1-3.5 0Zm1.75-3.25a3.252 3.252 0 0 0-3.163 2.5H54v1.5h10.337a3.252 3.252 0 0 0 6.326 0H74v-1.5h-3.337a3.252 3.252 0 0 0-3.163-2.5Zm-8.75 9.25a1.75 1.75 0 1 1 3.5 0 1.75 1.75 0 0 1-3.5 0Zm1.75-3.25a3.252 3.252 0 0 0-3.163 2.5H54v1.5h3.337a3.252 3.252 0 0 0 6.326 0H74v-1.5H63.663a3.252 3.252 0 0 0-3.163-2.5Zm10.163 10H74v-1.5h-3.337a3.252 3.252 0 0 0-6.326 0H54v1.5h10.337a3.252 3.252 0 0 0 6.326 0Zm-4.913-.75a1.75 1.75 0 1 1 3.5 0 1.75 1.75 0 0 1-3.5 0Z" class="icon" clip-rule="evenodd"/>
            </g>
          </g>
          <g class="Menu mobile buttons">
            <path fill="#FAFBFE" fill-opacity=".88" d="M86 552a8 8 0 0 1 8-8h24a8 8 0 0 1 8 8v24a8 8 0 0 1-8 8H94a8 8 0 0 1-8-8v-24Z"/>
            <path stroke="#AEBECC" stroke-opacity=".4" d="M94 544.5h24a7.5 7.5 0 0 1 7.5 7.5v24a7.5 7.5 0 0 1-7.5 7.5H94a7.5 7.5 0 0 1-7.5-7.5v-24a7.5 7.5 0 0 1 7.5-7.5Z"/>
            <g class="Card">
              <path fill="#1A1E21" fill-rule="evenodd" d="M99 556.25a.75.75 0 0 0-.75.75v5c0 .414.336.75.75.75h5a.75.75 0 0 0 .75-.75v-5a.75.75 0 0 0-.75-.75h-5Zm.75 5v-3.5h3.5v3.5h-3.5Zm-.75 4a.75.75 0 0 0-.75.75v5c0 .414.336.75.75.75h5a.75.75 0 0 0 .75-.75v-5a.75.75 0 0 0-.75-.75h-5Zm.75 5v-3.5h3.5v3.5h-3.5Zm7.5-13.25a.75.75 0 0 1 .75-.75h5a.75.75 0 0 1 .75.75v5a.75.75 0 0 1-.75.75h-5a.75.75 0 0 1-.75-.75v-5Zm1.5.75v3.5h3.5v-3.5h-3.5Zm-.75 7.5a.75.75 0 0 0-.75.75v5c0 .414.336.75.75.75h5a.75.75 0 0 0 .75-.75v-5a.75.75 0 0 0-.75-.75h-5Zm.75 5v-3.5h3.5v3.5h-3.5Z" class="icon" clip-rule="evenodd"/>
            </g>
          </g>
          <g class="Menu mobile buttons">
            <path fill="#E42858" fill-opacity=".72" d="M136 544.5h79a7.5 7.5 0 0 1 7.5 7.5v24a7.5 7.5 0 0 1-7.5 7.5h-79a7.5 7.5 0 0 1-7.5-7.5v-24a7.5 7.5 0 0 1 7.5-7.5Z"/>
            <path stroke="#E42858" d="M136 544.5h79a7.5 7.5 0 0 1 7.5 7.5v24a7.5 7.5 0 0 1-7.5 7.5h-79a7.5 7.5 0 0 1-7.5-7.5v-24a7.5 7.5 0 0 1 7.5-7.5Z"/>
            <path fill="#FAFBFE" d="M144.862 568.652c-.838 0-1.584-.205-2.24-.615a4.284 4.284 0 0 1-1.549-1.714c-.373-.732-.559-1.581-.559-2.546 0-.969.186-1.819.559-2.551.376-.737.893-1.31 1.549-1.721.656-.41 1.402-.615 2.24-.615.842 0 1.591.205 2.247.615.656.411 1.17.984 1.543 1.721.376.732.565 1.582.565 2.551 0 .872-.157 1.651-.47 2.336-.309.686-.732 1.24-1.269 1.663l1.218 1.581h-1.434l-.762-1.016a4.28 4.28 0 0 1-1.638.311Zm-.577-3.205h1.39l.977 1.276c.352-.301.631-.699.838-1.194.208-.495.311-1.079.311-1.752 0-.77-.131-1.424-.393-1.961-.263-.538-.616-.944-1.06-1.219a2.74 2.74 0 0 0-1.486-.419c-.541 0-1.034.14-1.479.419-.444.275-.797.681-1.06 1.219-.262.537-.393 1.191-.393 1.961 0 .766.131 1.418.393 1.955.263.534.616.94 1.06 1.219.445.275.938.413 1.479.413.28 0 .546-.036.8-.108l-1.377-1.809Zm8.632 3.186c-.457 0-.869-.099-1.237-.298a2.22 2.22 0 0 1-.87-.895c-.212-.394-.317-.882-.317-1.466v-4.177h1.339v4.012c0 .537.129.943.387 1.218.258.271.62.407 1.086.407.452 0 .833-.14 1.142-.419.313-.284.47-.737.47-1.359v-3.859h1.339v6.703h-1.314v-1.009c-.457.761-1.132 1.142-2.025 1.142Zm7.713.019c-.665 0-1.236-.15-1.714-.45a3 3 0 0 1-1.098-1.238c-.254-.529-.381-1.13-.381-1.803 0-.681.133-1.286.4-1.815a3.098 3.098 0 0 1 1.104-1.244c.47-.305 1.01-.457 1.619-.457.635 0 1.185.148 1.65.444.47.296.834.709 1.092 1.238.258.524.387 1.132.387 1.821v.362h-4.932c.026.605.199 1.094.521 1.467.326.372.783.558 1.371.558.44 0 .802-.099 1.085-.298.284-.199.472-.457.565-.775h1.289c-.081.432-.26.813-.54 1.143-.275.33-.622.588-1.041.774a3.389 3.389 0 0 1-1.377.273Zm-1.86-4.157h3.612c-.055-.534-.243-.955-.565-1.264-.322-.313-.736-.469-1.244-.469s-.923.156-1.244.469c-.318.309-.504.73-.559 1.264Zm8.506 4.138a2.56 2.56 0 0 1-1.238-.298 2.22 2.22 0 0 1-.87-.895c-.211-.394-.317-.882-.317-1.466v-4.177h1.339v4.012c0 .537.129.943.388 1.218.258.271.62.407 1.085.407.453 0 .834-.14 1.143-.419.313-.284.469-.737.469-1.359v-3.859h1.34v6.703h-1.314v-1.009c-.457.761-1.132 1.142-2.025 1.142Zm7.712.019c-.664 0-1.235-.15-1.714-.45a3 3 0 0 1-1.098-1.238c-.254-.529-.381-1.13-.381-1.803 0-.681.134-1.286.4-1.815a3.093 3.093 0 0 1 1.105-1.244c.47-.305 1.009-.457 1.618-.457.635 0 1.185.148 1.651.444.47.296.834.709 1.092 1.238.258.524.387 1.132.387 1.821v.362h-4.932c.025.605.199 1.094.52 1.467.326.372.783.558 1.371.558.44 0 .802-.099 1.086-.298.283-.199.472-.457.565-.775h1.288c-.08.432-.26.813-.539 1.143-.275.33-.622.588-1.041.774a3.393 3.393 0 0 1-1.378.273Zm-1.86-4.157h3.612c-.055-.534-.243-.955-.565-1.264-.321-.313-.736-.469-1.244-.469s-.922.156-1.244.469c-.317.309-.504.73-.559 1.264Zm12.391-5.453v9.458h-1.365v-8.074h-.006l-2.311 1.511v-1.346l2.355-1.549h1.327Z" class="Text"/>
            <g class="Chevron down">
              <path fill="#FAFBFE" fill-rule="evenodd" d="M208.319 560.611a1.001 1.001 0 0 0-1.414.044l-3.907 4.157-3.908-4.157a1 1 0 1 0-1.457 1.37l4.563 4.854a1.099 1.099 0 0 0 1.603 0l4.563-4.854a1 1 0 0 0-.043-1.414Z" class="icon" clip-rule="evenodd"/>
            </g>
          </g>
          <g class="Menu mobile buttons">
            <path fill="#FAFBFE" fill-opacity=".88" d="M225 552a8 8 0 0 1 8-8h89a8 8 0 0 1 8 8v24a8 8 0 0 1-8 8h-89a8 8 0 0 1-8-8v-24Z"/>
            <path stroke="#AEBECC" stroke-opacity=".4" d="M233 544.5h89a7.5 7.5 0 0 1 7.5 7.5v24a7.5 7.5 0 0 1-7.5 7.5h-89a7.5 7.5 0 0 1-7.5-7.5v-24a7.5 7.5 0 0 1 7.5-7.5Z"/>
            <path fill="#1A1E21" d="M237.863 568.5v-9.458h6.158v1.238h-4.749v2.831h4.387v1.219h-4.387v4.17h-1.409Zm9.198.133a2.56 2.56 0 0 1-1.238-.298 2.212 2.212 0 0 1-.869-.895c-.212-.394-.318-.882-.318-1.466v-4.177h1.34v4.012c0 .537.129.943.387 1.218.258.271.62.407 1.085.407.453 0 .834-.14 1.143-.419.313-.284.47-.737.47-1.359v-3.859h1.339v6.703h-1.314v-1.009c-.457.761-1.132 1.142-2.025 1.142Zm6.189-3.992v3.859h-1.339v-6.703h1.314v1.009c.457-.762 1.132-1.142 2.025-1.142.461 0 .873.101 1.237.304.368.199.658.495.87.889.212.393.317.882.317 1.466v4.177h-1.339v-4.012c0-.537-.129-.941-.387-1.212-.258-.275-.618-.413-1.079-.413-.457 0-.842.142-1.156.426-.309.279-.463.73-.463 1.352Zm8.804 4.011c-.639 0-1.2-.148-1.682-.444a3.027 3.027 0 0 1-1.117-1.231c-.267-.529-.4-1.135-.4-1.816 0-.69.133-1.299.4-1.828a3.063 3.063 0 0 1 1.123-1.238c.479-.3 1.037-.45 1.676-.45.533 0 1.009.105 1.428.317.424.207.766.495 1.029.863.262.368.421.789.476 1.263h-1.333a1.576 1.576 0 0 0-.508-.926c-.271-.242-.633-.362-1.085-.362-.58 0-1.033.214-1.359.641-.326.427-.489 1.001-.489 1.72 0 .711.163 1.278.489 1.701.326.423.779.635 1.359.635.461 0 .816-.116 1.066-.349.25-.237.419-.552.508-.946h1.352a2.647 2.647 0 0 1-.47 1.257c-.262.368-.605.66-1.028.876a3.16 3.16 0 0 1-1.435.317Zm7.306-6.855v1.104h-1.358v3.828c0 .25.051.423.152.521.102.097.286.146.553.146h.653v1.104h-.844c-1.24 0-1.86-.533-1.86-1.6v-3.999h-1.18v-1.104h1.18v-1.828h1.346v1.828h1.358Zm1.06 6.703v-6.703h1.34v6.703h-1.34Zm.667-7.858a.846.846 0 0 1-.603-.235.796.796 0 0 1-.241-.584.78.78 0 0 1 .241-.584.83.83 0 0 1 .603-.241.83.83 0 0 1 .603.241.771.771 0 0 1 .248.584.787.787 0 0 1-.248.584.846.846 0 0 1-.603.235Zm5.072 8.01c-.639 0-1.2-.148-1.682-.444a3.057 3.057 0 0 1-1.13-1.231c-.267-.525-.4-1.13-.4-1.816 0-.694.133-1.303.4-1.828a3.044 3.044 0 0 1 1.13-1.238c.482-.3 1.043-.45 1.682-.45s1.197.15 1.675.45c.483.296.857.709 1.124 1.238.271.525.406 1.134.406 1.828 0 .686-.135 1.291-.406 1.816a3.015 3.015 0 0 1-1.124 1.231c-.478.296-1.036.444-1.675.444Zm0-1.155c.575 0 1.028-.212 1.358-.635.33-.423.495-.99.495-1.701 0-.719-.167-1.293-.501-1.72-.33-.427-.781-.641-1.352-.641-.572 0-1.024.214-1.359.641-.33.423-.495.997-.495 1.72 0 .715.165 1.284.495 1.708.33.419.783.628 1.359.628Zm5.732-2.856v3.859h-1.34v-6.703h1.314v1.009c.457-.762 1.132-1.142 2.025-1.142.461 0 .874.101 1.238.304.368.199.658.495.87.889.211.393.317.882.317 1.466v4.177h-1.339v-4.012c0-.537-.129-.941-.388-1.212-.258-.275-.617-.413-1.079-.413-.457 0-.842.142-1.155.426-.309.279-.463.73-.463 1.352Zm8.417 4.018c-.512 0-.974-.083-1.384-.248a2.339 2.339 0 0 1-.997-.736c-.249-.326-.389-.73-.419-1.213h1.321c.076.754.56 1.13 1.453 1.13.423 0 .758-.086 1.003-.26.25-.173.375-.394.375-.66a.65.65 0 0 0-.267-.546 1.715 1.715 0 0 0-.698-.305l-1.111-.247c-1.282-.28-1.923-.919-1.923-1.917 0-.593.235-1.075.704-1.448.474-.372 1.094-.558 1.86-.558.758 0 1.38.197 1.866.59.491.39.745.923.762 1.6h-1.282a1.043 1.043 0 0 0-.368-.806c-.242-.216-.561-.324-.959-.324-.381 0-.683.089-.908.267-.224.177-.336.395-.336.653 0 .229.085.413.254.553.173.139.41.243.711.311l1.142.254c.652.143 1.132.366 1.441.666.309.3.464.694.464 1.181 0 .427-.119.795-.356 1.104-.232.305-.552.542-.958.711a3.67 3.67 0 0 1-1.39.248Z" class="Text"/>
            <g class="Chevron down">
              <path fill="#6C7A88" fill-rule="evenodd" d="M315.319 560.611a1.001 1.001 0 0 0-1.414.044l-3.907 4.157-3.908-4.157a1 1 0 1 0-1.457 1.37l4.563 4.854a1.099 1.099 0 0 0 1.603 0l4.563-4.854a1 1 0 0 0-.043-1.414Z" class="icon" clip-rule="evenodd"/>
            </g>
          </g>
        </g>
      </g>
      <g class="Icons">
        <g class="Video pin" data-tablet-click="videopin" data-src="./assets/images/spinhouse-demo/tablet-popups/videopin.mp4" data-type="video" data-title="Video Pin">
          <rect width="28" height="28" x="29" y="241" fill="#111112" rx="14"/>
          <g class="Plus">
            <path fill="#F7F9FB" fill-rule="evenodd" d="M43.954 250.586v4.194h4.194v1.173h-4.194v4.194H42.78v-4.194h-4.194v-1.173h4.194v-4.194h1.174Z" class="icon" clip-rule="evenodd"/>
          </g>
        </g>
        <g class="apartment" data-src="./assets/images/spinhouse-demo/tablet-popups/apartment.png" data-tablet-click="apartment" data-type="image" data-title="Flat pop up">
          <rect width="28" height="28" x="173" y="374" fill="#111112" rx="14"/>
          <g class="Plus">
            <path fill="#F7F9FB" fill-rule="evenodd" d="M187.693 383.42v4.121h4.121v1.153h-4.121v4.121h-1.153v-4.121h-4.121v-1.153h4.121v-4.121h1.153Z" class="icon" clip-rule="evenodd"/>
          </g>
        </g>
        <g class="roomtour" data-tablet-click="roomtour" data-type="video" data-src="./assets/images/spinhouse-demo/tablet-popups/roomtour.mp4" data-title="Showroom pin">
          <g>
              <path stroke="#F7F9FB" stroke-width="2" d="M129 448.348v-38.346c10-2 13-2.502 21.5-3.502v40.001c-7.5 0-14 1-21.5 1.847Z" class="Vector 364"/>
            </g>
            <g class="Icon">
              <rect width="28" height="28" x="104" y="395" fill="#111112" rx="14"/>
              <g class="Plus">
                <path fill="#F7F9FB" fill-rule="evenodd" d="M118.693 404.422v4.121h4.122v1.153h-4.122v4.121h-1.152v-4.121h-4.121v-1.153h4.121v-4.121h1.152Z" class="icon" clip-rule="evenodd"/>
              </g>
          </g>
        </g>
        <g class="roomtour" data-tablet-click="roomtour" data-type="video" data-src="./assets/images/spinhouse-demo/tablet-popups/roomtour.mp4" data-title="Showroom pin">
          <rect width="28" height="28" x="312" y="386" fill="#111112" rx="14"/>
          <g class="Plus">
            <path fill="#F7F9FB" fill-rule="evenodd" d="M326.954 395.586v4.194h4.194v1.173h-4.194v4.194h-1.174v-4.194h-4.194v-1.173h4.194v-4.194h1.174Z" class="icon" clip-rule="evenodd"/>
          </g>
        </g>
        <g class="functions" data-src="./assets/images/spinhouse-demo/tablet-popups/functions.png" data-tablet-click="functions" data-type="image" data-title="Functions">
          <rect width="28" height="28" x="264" y="579" fill="#111112" rx="14"/>
          <g class="Plus">
            <path fill="#F7F9FB" fill-rule="evenodd" d="M278.572 588.342v4.087h4.086v1.143h-4.086v4.087h-1.144v-4.087h-4.087v-1.143h4.087v-4.087h1.144Z" class="icon" clip-rule="evenodd"/>
          </g>
        </g>
        <g class="Navigation pop up" data-src="./assets/images/spinhouse-demo/tablet-popups/navigationpopup.png" data-tablet-click="Navigation pop up" data-type="image" data-title="Navigation pop up">
          <rect width="28" height="28" x="162" y="579" fill="#111112" rx="14"/>
          <g class="Plus">
            <path fill="#F7F9FB" fill-rule="evenodd" d="M176.572 588.342v4.087h4.086v1.143h-4.086v4.087h-1.144v-4.087h-4.087v-1.143h4.087v-4.087h1.144Z" class="icon" clip-rule="evenodd"/>
          </g>
        </g>
        <g class="filter" data-src="./assets/images/spinhouse-demo/tablet-popups/filter-mobile.png" data-tablet-click="filter" data-type="image" data-title="Filter">
          <rect width="28" height="28" x="50" y="579" fill="#111112" rx="14"/>
          <g class="Plus">
            <path fill="#F7F9FB" fill-rule="evenodd" d="M64.572 588.342v4.087h4.086v1.143h-4.087v4.087h-1.143v-4.087h-4.087v-1.143h4.087v-4.087h1.144Z" class="icon" clip-rule="evenodd"/>
          </g>
        </g>
        <g class="360pin" data-tablet-click="360pin" data-type="video" data-title="360° pin" data-src="./assets/images/spinhouse-demo/tablet-popups/pin360.mp4">
          <rect width="28" height="28" x="30" y="403" fill="#111112" rx="14"/>
          <g class="Plus">
            <path fill="#F7F9FB" fill-rule="evenodd" d="M44.954 412.586v4.194h4.194v1.173h-4.194v4.194H43.78v-4.194h-4.194v-1.173h4.194v-4.194h1.174Z" class="icon" clip-rule="evenodd"/>
          </g>
        </g>
        <g class="floor" data-tablet-click="floor" data-src="./assets/images/spinhouse-demo/tablet-popups/floor.png" data-type="image" data-title="Floor pop up">
          <rect width="28" height="28" x="173" y="295" fill="#111112" rx="14"/>
          <g class="Plus">
            <path fill="#F7F9FB" fill-rule="evenodd" d="M187.954 304.586v4.194h4.194v1.173h-4.194v4.194h-1.174v-4.194h-4.194v-1.173h4.194v-4.194h1.174Z" class="icon" clip-rule="evenodd"/>
          </g>
        </g>
        <g class="photopin"  data-tablet-click="photopin" data-src="./assets/images/spinhouse-demo/tablet-popups/photopin.jpg" data-type="image-wide" data-title="Photo Pin">
          <rect width="28" height="28" x="312" y="289" fill="#111112" rx="14"/>
          <g class="Plus">
            <path fill="#F7F9FB" fill-rule="evenodd" d="M326.954 298.586v4.194h4.194v1.173h-4.194v4.194h-1.174v-4.194h-4.194v-1.173h4.194v-4.194h1.174Z" class="icon" clip-rule="evenodd"/>
          </g>
        </g>
        <g class="navpanel" data-src="./assets/images/spinhouse-demo/tablet-popups/rotationpanel.png" data-tablet-click="navpanel" data-type="image" data-title="Rotation Panel">
          <rect width="28" height="28" x="173" y="474" fill="#111112" rx="14"/>
          <g class="Plus">
            <path fill="#F7F9FB" fill-rule="evenodd" d="M187.954 483.586v4.194h4.194v1.173h-4.194v4.194h-1.174v-4.194h-4.194v-1.173h4.194v-4.194h1.174Z" class="icon" clip-rule="evenodd"/>
          </g>
        </g>
      </g>
    </g>
  </g>
</svg>
