<svg width="1200" height="631" viewBox="0 0 1200 631" fill="none" xmlns="http://www.w3.org/2000/svg">
<rect y="0.699219" width="1200" height="630" fill="#212125"/>
<path d="M190.017 341.713V290.666L220.121 308.541L220.122 359.588L190.017 341.713ZM230.157 359.588L230.156 308.541L260.261 290.666V341.713L230.157 359.588ZM255.45 281.852L225.138 299.849L194.828 281.852L225.14 263.855L255.45 281.852Z" stroke="#F7F9FB" stroke-width="10.0348"/>
<path d="M313.613 325.888H334.646C334.86 327.066 335.475 328.082 336.492 328.939C337.509 329.741 338.901 330.384 340.667 330.865C342.433 331.293 344.547 331.508 347.009 331.508C350.22 331.508 352.708 331.186 354.474 330.544C356.294 329.902 357.204 328.858 357.204 327.413C357.204 326.45 356.695 325.647 355.679 325.005C354.662 324.309 352.575 323.854 349.417 323.64L339.462 322.998C330.418 322.409 323.888 320.483 319.875 317.218C315.861 313.953 313.854 309.645 313.854 304.293C313.854 299.798 315.138 296.051 317.707 293.054C320.276 290.057 323.862 287.81 328.464 286.311C333.12 284.812 338.553 284.063 344.761 284.063C350.808 284.063 356.16 284.92 360.816 286.632C365.526 288.291 369.246 290.646 371.975 293.697C374.758 296.747 376.283 300.306 376.551 304.374H355.518C355.358 303.41 354.822 302.581 353.913 301.885C353.056 301.189 351.825 300.654 350.22 300.279C348.614 299.905 346.661 299.717 344.359 299.717C341.416 299.717 339.088 300.012 337.375 300.601C335.716 301.189 334.887 302.153 334.887 303.491C334.887 304.4 335.368 305.176 336.332 305.819C337.348 306.461 339.275 306.889 342.112 307.103L353.351 307.826C359.238 308.2 364.001 309.083 367.64 310.475C371.279 311.813 373.929 313.686 375.588 316.094C377.3 318.503 378.156 321.473 378.156 325.005C378.156 329.447 376.845 333.327 374.223 336.645C371.6 339.964 367.908 342.559 363.144 344.432C358.435 346.252 352.922 347.162 346.607 347.162C340.078 347.162 334.351 346.279 329.428 344.513C324.504 342.747 320.651 340.258 317.868 337.047C315.138 333.836 313.72 330.116 313.613 325.888ZM420.553 285.508C426.012 285.508 430.668 286.418 434.521 288.238C438.428 290.004 441.398 292.546 443.432 295.864C445.466 299.129 446.483 302.982 446.483 307.424C446.483 311.866 445.466 315.746 443.432 319.064C441.398 322.329 438.428 324.871 434.521 326.691C430.668 328.457 426.012 329.34 420.553 329.34H395.105V313.204H419.188C421.222 313.204 422.801 312.696 423.924 311.679C425.048 310.662 425.61 309.244 425.61 307.424C425.61 305.551 425.048 304.133 423.924 303.169C422.801 302.153 421.222 301.644 419.188 301.644H396.871L406.183 292.332V345.717H385.471V285.508H420.553ZM452.657 285.508H473.369V345.717H452.657V285.508ZM538.79 330.625L533.17 331.989V285.508H553.24V345.717H527.31L497.447 299.316L503.066 297.951V345.717H482.997V285.508H509.729L538.79 330.625Z" fill="#F7F9FB"/>
<rect width="432.243" height="116.07" transform="translate(583.521 257.682)" fill="#F7F9FB"/>
<path d="M623.952 285.508H644.663V345.717H623.952V285.508ZM670.352 285.508H691.064V345.717H670.352V285.508ZM635.672 305.819H678.46V324.122H635.672V305.819ZM735.061 347.162C727.729 347.162 721.307 345.851 715.794 343.228C710.335 340.606 706.081 336.94 703.03 332.23C699.979 327.467 698.454 321.928 698.454 315.613C698.454 309.297 699.979 303.785 703.03 299.075C706.081 294.312 710.335 290.619 715.794 287.997C721.307 285.374 727.729 284.063 735.061 284.063C742.393 284.063 748.788 285.374 754.247 287.997C759.76 290.619 764.041 294.312 767.092 299.075C770.142 303.785 771.668 309.297 771.668 315.613C771.668 321.928 770.142 327.467 767.092 332.23C764.041 336.94 759.76 340.606 754.247 343.228C748.788 345.851 742.393 347.162 735.061 347.162ZM735.061 328.698C738.326 328.698 741.135 328.189 743.49 327.173C745.845 326.102 747.638 324.604 748.869 322.677C750.153 320.697 750.795 318.342 750.795 315.613C750.795 312.883 750.153 310.555 748.869 308.628C747.638 306.648 745.845 305.15 743.49 304.133C741.135 303.062 738.326 302.527 735.061 302.527C731.796 302.527 728.987 303.062 726.632 304.133C724.277 305.15 722.457 306.648 721.173 308.628C719.942 310.555 719.326 312.883 719.326 315.613C719.326 318.342 719.942 320.697 721.173 322.677C722.457 324.604 724.277 326.102 726.632 327.173C728.987 328.189 731.796 328.698 735.061 328.698ZM798.929 318.101C798.929 320.295 799.304 322.195 800.053 323.801C800.856 325.353 802.06 326.557 803.665 327.413C805.271 328.27 807.331 328.698 809.847 328.698C812.416 328.698 814.503 328.296 816.109 327.494C817.714 326.637 818.892 325.406 819.641 323.801C820.39 322.195 820.765 320.295 820.765 318.101V285.508H841.476V319.225C841.476 324.844 840.165 329.741 837.543 333.916C834.92 338.09 831.228 341.355 826.464 343.71C821.755 346.011 816.216 347.162 809.847 347.162C803.532 347.162 797.992 346.011 793.229 343.71C788.52 341.355 784.827 338.09 782.151 333.916C779.528 329.741 778.217 324.844 778.217 319.225V285.508H798.929V318.101ZM848.354 325.888H869.387C869.601 327.066 870.216 328.082 871.233 328.939C872.25 329.741 873.642 330.384 875.408 330.865C877.174 331.293 879.288 331.508 881.75 331.508C884.961 331.508 887.449 331.186 889.216 330.544C891.035 329.902 891.945 328.858 891.945 327.413C891.945 326.45 891.437 325.647 890.42 325.005C889.403 324.309 887.316 323.854 884.158 323.64L874.204 322.998C865.159 322.409 858.63 320.483 854.616 317.218C850.602 313.953 848.595 309.645 848.595 304.293C848.595 299.798 849.879 296.051 852.448 293.054C855.017 290.057 858.603 287.81 863.205 286.311C867.862 284.812 873.294 284.063 879.502 284.063C885.55 284.063 890.901 284.92 895.558 286.632C900.267 288.291 903.987 290.646 906.716 293.697C909.499 296.747 911.024 300.306 911.292 304.374H890.259C890.099 303.41 889.563 302.581 888.654 301.885C887.797 301.189 886.566 300.654 884.961 300.279C883.355 299.905 881.402 299.717 879.1 299.717C876.157 299.717 873.829 300.012 872.116 300.601C870.457 301.189 869.628 302.153 869.628 303.491C869.628 304.4 870.109 305.176 871.073 305.819C872.09 306.461 874.016 306.889 876.853 307.103L888.092 307.826C893.979 308.2 898.742 309.083 902.381 310.475C906.02 311.813 908.67 313.686 910.329 316.094C912.041 318.503 912.898 321.473 912.898 325.005C912.898 329.447 911.586 333.327 908.964 336.645C906.342 339.964 902.649 342.559 897.886 344.432C893.176 346.252 887.663 347.162 881.348 347.162C874.819 347.162 869.092 346.279 864.169 344.513C859.245 342.747 855.392 340.258 852.609 337.047C849.879 333.836 848.461 330.116 848.354 325.888ZM973.526 308.468V322.757H928.169V308.468H973.526ZM942.378 315.613L938.686 338.01L930.818 329.34H976.497V345.717H918.215L922.63 315.613L918.215 285.508H976.095V301.885H930.818L938.686 293.215L942.378 315.613Z" fill="#212125"/>
</svg>
