<svg width="68" height="68" viewBox="0 0 68 68" fill="none" xmlns="http://www.w3.org/2000/svg">
<path fill-rule="evenodd" clip-rule="evenodd" d="M1.81152 16.6697C1.81152 12.9418 4.8336 9.91968 8.56152 9.91968H59.4387C63.1666 9.91968 66.1887 12.9418 66.1887 16.6697V22.2085V50.3305C66.1887 54.0584 63.1666 57.0805 59.4387 57.0805H8.56152C4.8336 57.0805 1.81152 54.0584 1.81152 50.3305V22.2085V16.6697ZM8.56152 11.4197C5.66203 11.4197 3.31152 13.7702 3.31152 16.6697V21.4585H64.6887V16.6697C64.6887 13.7702 62.3382 11.4197 59.4387 11.4197H8.56152ZM64.6887 22.9585H3.31152V50.3305C3.31152 53.23 5.66203 55.5805 8.56152 55.5805H59.4387C62.3382 55.5805 64.6887 53.23 64.6887 50.3305V22.9585ZM10.1756 15.7055C9.73538 15.7055 9.37 16.0661 9.37 16.5215C9.37 16.9769 9.73538 17.3375 10.1756 17.3375C10.6157 17.3375 10.9811 16.9769 10.9811 16.5215C10.9811 16.0661 10.6157 15.7055 10.1756 15.7055ZM7.87 16.5215C7.87 15.2472 8.89752 14.2055 10.1756 14.2055C11.4536 14.2055 12.4811 15.2472 12.4811 16.5215C12.4811 17.7959 11.4536 18.8375 10.1756 18.8375C8.89752 18.8375 7.87 17.7959 7.87 16.5215ZM18.3627 15.7055C17.9225 15.7055 17.5571 16.0661 17.5571 16.5215C17.5571 16.9769 17.9225 17.3375 18.3627 17.3375C18.8029 17.3375 19.1682 16.9769 19.1682 16.5215C19.1682 16.0661 18.8029 15.7055 18.3627 15.7055ZM16.0571 16.5215C16.0571 15.2472 17.0847 14.2055 18.3627 14.2055C19.6407 14.2055 20.6682 15.2472 20.6682 16.5215C20.6682 17.7959 19.6407 18.8375 18.3627 18.8375C17.0847 18.8375 16.0571 17.7959 16.0571 16.5215ZM26.5498 15.7055C26.1096 15.7055 25.7443 16.0661 25.7443 16.5215C25.7443 16.9769 26.1096 17.3375 26.5498 17.3375C26.99 17.3375 27.3554 16.9769 27.3554 16.5215C27.3554 16.0661 26.99 15.7055 26.5498 15.7055ZM24.2443 16.5215C24.2443 15.2472 25.2718 14.2055 26.5498 14.2055C27.8279 14.2055 28.8554 15.2472 28.8554 16.5215C28.8554 17.7959 27.8279 18.8375 26.5498 18.8375C25.2718 18.8375 24.2443 17.7959 24.2443 16.5215ZM33.8365 25.7858L34.2209 26.0152L43.2266 31.3893L43.5922 31.6076V32.0334V46.1759V46.6018L43.2266 46.82L34.2209 52.1942L33.8365 52.4235L33.4522 52.1942L24.4462 46.82L24.0805 46.6018V46.1759V32.0334V31.6075L24.4462 31.3893L33.4522 26.0152L33.8365 25.7858ZM25.5805 33.3543V45.7501L33.0865 50.2292L33.0862 37.8334L25.5805 33.3543ZM34.5862 37.8334L34.5865 50.2292L42.0922 45.7501V33.3543L34.5862 37.8334ZM41.3786 32.0334L33.8362 36.5342L26.2941 32.0334L33.8365 27.5326L41.3786 32.0334Z" fill="#F7F9FB"/>
</svg>
