<svg width="68" height="68" viewBox="0 0 68 68" fill="none" xmlns="http://www.w3.org/2000/svg">
<path fill-rule="evenodd" clip-rule="evenodd" d="M4.25 13C3.00736 13 2 14.0074 2 15.25V39.9417H44.2294C44.7934 39.2562 45.596 38.7744 46.5101 38.6233V33.2732C46.5101 31.2021 48.189 29.5232 50.2601 29.5232H57.7451V15.25C57.7451 14.0074 56.7378 13 55.4951 13H4.25ZM59.2451 29.5232V15.25C59.2451 13.1789 57.5662 11.5 55.4951 11.5H4.25C2.17893 11.5 0.5 13.1789 0.5 15.25V40.6917V43.6234C0.5 45.6944 2.17893 47.3734 4.25 47.3734H24.5751V54.9991H21.5929C21.1787 54.9991 20.8429 55.3348 20.8429 55.7491C20.8429 56.1633 21.1787 56.4991 21.5929 56.4991H25.3251H35.9487H39.6808C40.095 56.4991 40.4308 56.1633 40.4308 55.7491C40.4308 55.3348 40.095 54.9991 39.6808 54.9991H36.6987V47.3734H43.3765V54.7491C43.3765 56.8201 45.0555 58.4991 47.1265 58.4991H48.6358H50.1451C51.5841 58.4991 52.8339 57.6885 53.4626 56.4991H63.7494C65.8205 56.4991 67.4994 54.8201 67.4994 52.749V33.2732C67.4994 31.2021 65.8205 29.5232 63.7494 29.5232H59.2451ZM53.8869 54.9991H63.7494C64.9921 54.9991 65.9994 53.9917 65.9994 52.749V33.2732C65.9994 32.0306 64.9921 31.0232 63.7494 31.0232H58.4951H50.2601C49.0175 31.0232 48.0101 32.0306 48.0101 33.2732V38.5728H50.1451C52.2162 38.5728 53.8951 40.2518 53.8951 42.3228V54.7491C53.8951 54.8331 53.8924 54.9164 53.8869 54.9991ZM43.3765 45.8734V42.3228C43.3765 42.0193 43.4126 41.7243 43.4806 41.4417H2V43.6234C2 44.866 3.00736 45.8734 4.25 45.8734H25.3251H35.9487H43.3765ZM35.1987 47.3734H26.0751V54.9991H35.1987V47.3734ZM47.1265 40.0728C45.8839 40.0728 44.8765 41.0802 44.8765 42.3228V46.6234V54.7491C44.8765 55.9917 45.8839 56.9991 47.1265 56.9991H48.6358H50.1451C51.3878 56.9991 52.3951 55.9917 52.3951 54.7491V42.3228C52.3951 41.0802 51.3878 40.0728 50.1451 40.0728H47.2601H47.1265Z" fill="#F7F9FB"/>
</svg>
