<svg width="68" height="68" viewBox="0 0 68 68" fill="none" xmlns="http://www.w3.org/2000/svg">
<path fill-rule="evenodd" clip-rule="evenodd" d="M14.7785 24.6152C15.6108 25.0525 16.57 25.2712 17.6561 25.2712C18.7 25.2712 19.6309 25.0737 20.4491 24.6787C21.2743 24.2767 21.9232 23.723 22.3957 23.0177C22.8753 22.3054 23.1151 21.4908 23.1151 20.5739C23.1151 19.6429 22.8118 18.8424 22.2053 18.1724C21.6058 17.4953 20.8017 17.0721 19.7932 16.9028V16.8711C20.6748 16.6031 21.366 16.1623 21.8667 15.5487C22.3745 14.928 22.6284 14.2192 22.6284 13.4222C22.6284 12.5617 22.4063 11.8 21.9619 11.137C21.5176 10.4741 20.9111 9.95215 20.1423 9.57129C19.3735 9.19043 18.506 9 17.5397 9C16.5453 9 15.6637 9.20454 14.8949 9.61361C14.1332 10.0227 13.5337 10.594 13.0964 11.3275C12.6662 12.0539 12.451 12.8932 12.451 13.8454H14.2919C14.2919 12.8509 14.581 12.0751 15.1594 11.5179C15.7377 10.9537 16.5276 10.6715 17.5292 10.6715C18.5095 10.6715 19.2924 10.9255 19.8778 11.4333C20.4702 11.9411 20.7665 12.6393 20.7665 13.528C20.7665 14.2968 20.4526 14.9174 19.8249 15.39C19.1972 15.8555 18.3755 16.0882 17.3599 16.0882H16.0904V17.7809H17.3599C18.5166 17.7809 19.4546 18.0384 20.174 18.5532C20.8934 19.061 21.2531 19.7346 21.2531 20.5739C21.2531 21.4978 20.9146 22.2349 20.2375 22.785C19.5675 23.3281 18.6929 23.5996 17.6138 23.5996C16.4853 23.5996 15.6072 23.2893 14.9795 22.6686C14.3518 22.048 14.038 21.1804 14.038 20.0661H12.1125C12.1125 21.0888 12.3488 21.9915 12.8213 22.7744C13.2939 23.5573 13.9463 24.1709 14.7785 24.6152ZM25.581 23.3245C26.5402 24.6223 27.8908 25.2712 29.6329 25.2712C30.6697 25.2712 31.583 25.049 32.3729 24.6047C33.1629 24.1533 33.78 23.5291 34.2243 22.7321C34.6757 21.9351 34.9014 21.0182 34.9014 19.9814C34.9014 18.9799 34.6863 18.0877 34.2561 17.3049C33.8259 16.5149 33.2369 15.8943 32.4893 15.4429C31.7488 14.9844 30.9024 14.7552 29.9503 14.7552C29.1039 14.7552 28.321 14.9386 27.6016 15.3053C26.8893 15.6721 26.3533 16.1587 25.9936 16.7653H25.9724C25.9724 15.5875 26.117 14.5436 26.4062 13.6338C26.7024 12.7169 27.1467 11.9975 27.7392 11.4756C28.3387 10.9537 29.0933 10.6927 30.0032 10.6927C30.8001 10.6927 31.4455 10.9184 31.9392 11.3698C32.44 11.8212 32.7644 12.4277 32.9125 13.1895H34.7745C34.6264 11.934 34.115 10.9219 33.2405 10.1532C32.3729 9.38439 31.2551 9 29.8868 9C28.5679 9 27.4853 9.36675 26.6389 10.1003C25.7925 10.8267 25.1648 11.8494 24.7558 13.1683C24.3537 14.4872 24.1527 16.0318 24.1527 17.8021C24.1527 20.1789 24.6288 22.0197 25.581 23.3245ZM31.3573 23.1024C30.8425 23.4198 30.2676 23.5785 29.6329 23.5785C29.0052 23.5785 28.4339 23.4198 27.919 23.1024C27.4041 22.7779 26.9915 22.3442 26.6812 21.8011C26.3779 21.258 26.2263 20.6585 26.2263 20.0026C26.2263 19.3467 26.3815 18.7507 26.6918 18.2147C27.0092 17.6716 27.4288 17.2414 27.9507 16.924C28.4797 16.6066 29.0616 16.4479 29.6964 16.4479C30.3311 16.4479 30.9024 16.6066 31.4102 16.924C31.918 17.2343 32.3201 17.6575 32.6163 18.1935C32.9125 18.7225 33.0606 19.3185 33.0606 19.9814C33.0606 20.6444 32.9054 21.251 32.5951 21.8011C32.2918 22.3442 31.8792 22.7779 31.3573 23.1024ZM38.6051 24.2767C39.4585 24.9397 40.4671 25.2712 41.6308 25.2712C42.7945 25.2712 43.8031 24.9397 44.6565 24.2767C45.5099 23.6067 46.1658 22.6651 46.6243 21.452C47.0898 20.2389 47.3225 18.8036 47.3225 17.1462C47.3225 15.4817 47.0898 14.0429 46.6243 12.8298C46.1658 11.6096 45.5099 10.668 44.6565 10.005C43.8031 9.33502 42.7945 9 41.6308 9C40.4671 9 39.4585 9.33502 38.6051 10.005C37.7587 10.668 37.1028 11.6096 36.6373 12.8298C36.1718 14.0429 35.9391 15.4817 35.9391 17.1462C35.9391 18.8036 36.1718 20.2389 36.6373 21.452C37.1028 22.6651 37.7587 23.6067 38.6051 24.2767ZM44.4767 21.8646C43.7855 23.0072 42.8368 23.5785 41.6308 23.5785C40.4247 23.5785 39.4726 23.0072 38.7743 21.8646C38.0832 20.715 37.7376 19.1421 37.7376 17.1462C37.7376 15.1361 38.0832 13.5597 38.7743 12.4172C39.4726 11.2675 40.4247 10.6927 41.6308 10.6927C42.8368 10.6927 43.7855 11.2675 44.4767 12.4172C45.1749 13.5597 45.524 15.1361 45.524 17.1462C45.524 19.1421 45.1749 20.715 44.4767 21.8646ZM50.2116 15.7391C50.7546 16.0565 51.3506 16.2152 51.9995 16.2152C52.6484 16.2152 53.2408 16.0565 53.7768 15.7391C54.3129 15.4217 54.7396 14.995 55.0569 14.459C55.3743 13.923 55.533 13.3305 55.533 12.6816C55.533 12.0257 55.3743 11.4297 55.0569 10.8937C54.7396 10.3577 54.3129 9.93099 53.7768 9.61361C53.2408 9.28917 52.6484 9.12695 51.9995 9.12695C51.3506 9.12695 50.7546 9.28917 50.2116 9.61361C49.6755 9.93099 49.2453 10.3577 48.9209 10.8937C48.6035 11.4297 48.4448 12.0257 48.4448 12.6816C48.4448 13.3305 48.6035 13.923 48.9209 14.459C49.2453 14.995 49.6755 15.4217 50.2116 15.7391ZM53.4065 14.0993C53.0186 14.4872 52.5496 14.6776 51.9995 14.6706C51.4423 14.6776 50.9662 14.4872 50.5713 14.0993C50.1833 13.7043 49.9894 13.2318 49.9894 12.6816C49.9894 12.1245 50.1833 11.6519 50.5713 11.264C50.9662 10.869 51.4423 10.6715 51.9995 10.6715C52.5496 10.6715 53.0186 10.869 53.4065 11.264C53.7945 11.6519 53.9884 12.1245 53.9884 12.6816C53.9884 13.2318 53.7945 13.7043 53.4065 14.0993ZM10.75 37.3561C10.75 36.6839 11.3311 35.8561 12.8241 34.9616C14.2604 34.101 16.3086 33.3226 18.6878 32.6686C23.4383 31.3628 29.3296 30.6006 33.8327 30.6006C38.3358 30.6006 44.2271 31.3628 48.9777 32.6686C51.3569 33.3226 53.405 34.101 54.8414 34.9616C56.3343 35.8561 56.9155 36.6839 56.9155 37.3561C56.9155 39.0953 55.5561 40.3511 53.4335 41.2192C51.3499 42.0714 48.814 42.4172 47.1155 42.4669C46.71 42.4788 46.3874 42.8109 46.3874 43.2166V43.2198V43.2231V43.2263V43.2296V43.233V43.2363V43.2396V43.243V43.2464V43.2499V43.2533V43.2568V43.2603V43.2638V43.2673V43.2709V43.2744V43.278V43.2817V43.2853V43.289V43.2927V43.2964V43.3001V43.3039V43.3076V43.3114V43.3152V43.3191V43.3229V43.3268V43.3307V43.3346V43.3386V43.3426V43.3465V43.3506V43.3546V43.3586V43.3627V43.3668V43.3709V43.375V43.3792V43.3834V43.3876V43.3918V43.396V43.4003V43.4046V43.4089V43.4132V43.4175V43.4219V43.4263V43.4307V43.4351V43.4396V43.444V43.4485V43.453V43.4575V43.4621V43.4667V43.4712V43.4759V43.4805V43.4851V43.4898V43.4945V43.4992V43.5039V43.5087V43.5134V43.5182V43.523V43.5279V43.5327V43.5376V43.5425V43.5474V43.5523V43.5572V43.5622V43.5672V43.5722V43.5772V43.5822V43.5873V43.5924V43.5975V43.6026V43.6078V43.6129V43.6181V43.6233V43.6285V43.6337V43.639V43.6443V43.6495V43.6549V43.6602V43.6655V43.6709V43.6763V43.6817V43.6871V43.6926V43.698V43.7035V43.709V43.7145V43.72V43.7256V43.7312V43.7368V43.7424V43.748V43.7536V43.7593V43.765V43.7707V43.7764V43.7821V43.7879V43.7937V43.7994V43.8053V43.8111V43.8169V43.8228V43.8287V43.8346V43.8405V43.8464V43.8524V43.8583V43.8643V43.8703V43.8763V43.8824V43.8884V43.8945V43.9006V43.9067V43.9128V43.919V43.9251V43.9313V43.9375V43.9437V43.9499V43.9562V43.9624V43.9687V43.975V43.9813V43.9877V43.994V44.0004V44.0067V44.0131V44.0196V44.026V44.0324V44.0389V44.0454V44.0519V44.0584V44.0649V44.0715V44.078V44.0846V44.0912V44.0978V44.1045V44.1111V44.1178V44.1244V44.1311V44.1378V44.1446V44.1513V44.1581V44.1648V44.1716V44.1784V44.1852V44.1921V44.1989V44.2058V44.2127V44.2196V44.2265V44.2334V44.2404V44.2473V44.2543V44.2613V44.2683V44.2754V44.2824V44.2894V44.2965V44.3036V44.3107V44.3178V44.325V44.3321V44.3393V44.3464V44.3536V44.3608V44.3681V44.3753V44.3825V44.3898V44.3971V44.4044V44.4117V44.419V44.4264V44.4337V44.4411V44.4485V44.4559V44.4633V44.4707V44.4782V44.4856V44.4931V44.5006V44.5081V44.5156V44.5231V44.5306V44.5382V44.5458V44.5534V44.561V44.5686V44.5762V44.5838V44.5915V44.5992V44.6068V44.6145V44.6222V44.63V44.6377V44.6455V44.6532V44.661V44.6688V44.6766V44.6844V44.6922V44.7001V44.7079V44.7158V44.7237V44.7316V44.7395V44.7474V44.7554V44.7633V44.7713V44.7793V44.7873V44.7953V44.8033V44.8113V44.8194V44.8274V44.8355V44.8436V44.8516V44.8598V44.8679V44.876V44.8841V44.8923V44.9005V44.9087V44.9169V44.9251V44.9333V44.9415V44.9498V44.958V44.9663V44.9746V44.9829V44.9912V44.9995V45.0078V45.0161V45.0245V45.0329V45.0412V45.0496V45.058V45.0664V45.0749V45.0833V45.0918V45.1002V45.1087V45.1172V45.1257V45.1342V45.1427V45.1512V45.1598V45.1683V45.1769V45.1855V45.194V45.2026V45.2112V45.2199V45.2285V45.2371V45.2458V45.2545V45.2631V45.2718V45.2805V45.2892V45.2979V45.3067V45.3154V45.3242V45.3329V45.3417V45.3505V45.3593V45.3681V45.3769V45.3857V45.3946V45.4034V45.4123V45.4212V45.43V45.4389V45.4478V45.4567V45.4656V45.4746V45.4835V45.4925V45.5014V45.5104V45.5194V45.5284V45.5374V45.5464V45.5554V45.5644V45.5735V45.5825V45.5916V45.6007V45.6097V45.6188V45.6279V45.637V45.6462V45.6553V45.6644V45.6736V45.6827V45.6919V45.7011V45.7102V45.7194V45.7286V45.7379V45.7471V45.7563V45.7655V45.7748V45.784V45.7933V45.8026V45.8119V45.8212V45.8305V45.8398V45.8491V45.8584V45.8678V45.8771V45.8865V45.8958V45.9052V45.9146V45.924V45.9334V45.9428V45.946C43.1015 44.7969 39.4585 44.1117 33.8327 44.1117C28.207 44.1117 24.564 44.7969 21.2781 45.946V45.9428V45.9334V45.924V45.9146V45.9052V45.8958V45.8865V45.8771V45.8678V45.8584V45.8491V45.8398V45.8305V45.8212V45.8119V45.8026V45.7933V45.784V45.7748V45.7655V45.7563V45.7471V45.7379V45.7286V45.7194V45.7102V45.7011V45.6919V45.6827V45.6736V45.6644V45.6553V45.6462V45.637V45.6279V45.6188V45.6097V45.6007V45.5916V45.5825V45.5735V45.5644V45.5554V45.5464V45.5374V45.5284V45.5194V45.5104V45.5014V45.4925V45.4835V45.4746V45.4656V45.4567V45.4478V45.4389V45.43V45.4212V45.4123V45.4034V45.3946V45.3857V45.3769V45.3681V45.3593V45.3505V45.3417V45.3329V45.3242V45.3154V45.3067V45.2979V45.2892V45.2805V45.2718V45.2631V45.2545V45.2458V45.2371V45.2285V45.2199V45.2112V45.2026V45.194V45.1855V45.1769V45.1683V45.1598V45.1512V45.1427V45.1342V45.1257V45.1172V45.1087V45.1002V45.0918V45.0833V45.0749V45.0664V45.058V45.0496V45.0412V45.0329V45.0245V45.0161V45.0078V44.9995V44.9912V44.9829V44.9746V44.9663V44.958V44.9498V44.9415V44.9333V44.9251V44.9169V44.9087V44.9005V44.8923V44.8841V44.876V44.8679V44.8598V44.8516V44.8436V44.8355V44.8274V44.8194V44.8113V44.8033V44.7953V44.7873V44.7793V44.7713V44.7633V44.7554V44.7474V44.7395V44.7316V44.7237V44.7158V44.7079V44.7001V44.6922V44.6844V44.6766V44.6688V44.661V44.6532V44.6455V44.6377V44.63V44.6222V44.6145V44.6068V44.5992V44.5915V44.5838V44.5762V44.5686V44.561V44.5534V44.5458V44.5382V44.5306V44.5231V44.5156V44.5081V44.5006V44.4931V44.4856V44.4782V44.4707V44.4633V44.4559V44.4485V44.4411V44.4337V44.4264V44.419V44.4117V44.4044V44.3971V44.3898V44.3825V44.3753V44.3681V44.3608V44.3536V44.3464V44.3393V44.3321V44.325V44.3178V44.3107V44.3036V44.2965V44.2894V44.2824V44.2754V44.2683V44.2613V44.2543V44.2473V44.2404V44.2334V44.2265V44.2196V44.2127V44.2058V44.1989V44.1921V44.1852V44.1784V44.1716V44.1648V44.1581V44.1513V44.1446V44.1378V44.1311V44.1244V44.1178V44.1111V44.1045V44.0978V44.0912V44.0846V44.078V44.0715V44.0649V44.0584V44.0519V44.0454V44.0389V44.0324V44.026V44.0196V44.0131V44.0067V44.0004V43.994V43.9877V43.9813V43.975V43.9687V43.9624V43.9562V43.9499V43.9437V43.9375V43.9313V43.9251V43.919V43.9128V43.9067V43.9006V43.8945V43.8884V43.8824V43.8763V43.8703V43.8643V43.8583V43.8524V43.8464V43.8405V43.8346V43.8287V43.8228V43.8169V43.8111V43.8053V43.7994V43.7937V43.7879V43.7821V43.7764V43.7707V43.765V43.7593V43.7536V43.748V43.7424V43.7368V43.7312V43.7256V43.72V43.7145V43.709V43.7035V43.698V43.6926V43.6871V43.6817V43.6763V43.6709V43.6655V43.6602V43.6549V43.6495V43.6443V43.639V43.6337V43.6285V43.6233V43.6181V43.6129V43.6078V43.6026V43.5975V43.5924V43.5873V43.5822V43.5772V43.5722V43.5672V43.5622V43.5572V43.5523V43.5474V43.5425V43.5376V43.5327V43.5279V43.523V43.5182V43.5134V43.5087V43.5039V43.4992V43.4945V43.4898V43.4851V43.4805V43.4759V43.4712V43.4667V43.4621V43.4575V43.453V43.4485V43.444V43.4396V43.4351V43.4307V43.4263V43.4219V43.4175V43.4132V43.4089V43.4046V43.4003V43.396V43.3918V43.3876V43.3834V43.3792V43.375V43.3709V43.3668V43.3627V43.3586V43.3546V43.3506V43.3465V43.3426V43.3386V43.3346V43.3307V43.3268V43.3229V43.3191V43.3152V43.3114V43.3076V43.3039V43.3001V43.2964V43.2927V43.289V43.2853V43.2817V43.278V43.2744V43.2709V43.2673V43.2638V43.2603V43.2568V43.2533V43.2499V43.2464V43.243V43.2396V43.2363V43.233V43.2296V43.2263V43.2231V43.2198V43.2166C21.2781 42.8109 20.9555 42.4788 20.55 42.4669C18.8515 42.4172 16.3156 42.0714 14.2319 41.2192C12.1093 40.3511 10.75 39.0953 10.75 37.3561ZM54.0014 42.6076C55.0693 42.1708 56.1119 41.5789 56.9155 40.7918V52.1616C56.9155 53.9008 55.5561 55.1565 53.4335 56.0247C51.6463 56.7556 49.5263 57.114 47.8874 57.2326V47.0208V47.0107V47.0006V46.9904V46.9803V46.9702V46.9601V46.9501V46.94V46.9299V46.9198V46.9097V46.8997V46.8896V46.8796V46.8695V46.8595V46.8494V46.8394V46.8293V46.8193V46.8093V46.7993V46.7893V46.7793V46.7693V46.7593V46.7493V46.7393V46.7293V46.7194V46.7094V46.6994V46.6895V46.6795V46.6696V46.6597V46.6497V46.6398V46.6299V46.62V46.6101V46.6002V46.5903V46.5804V46.5705V46.5606V46.5507V46.5409V46.531V46.5212V46.5113V46.5015V46.4916V46.4818V46.472V46.4622V46.4524V46.4426V46.4328V46.423V46.4132V46.4034V46.3937V46.3839V46.3741V46.3644V46.3546V46.3449V46.3352V46.3255V46.3158V46.306V46.2963V46.2867V46.277V46.2673V46.2576V46.248V46.2383V46.2286V46.219V46.2094V46.1997V46.1901V46.1805V46.1709V46.1613V46.1517V46.1421V46.1326V46.123V46.1134V46.1039V46.0944V46.0848V46.0753V46.0658V46.0563V46.0468V46.0373V46.0278V46.0183V46.0088V45.9994V45.9899V45.9805V45.971V45.9616V45.9522V45.9428V45.9334V45.924V45.9146V45.9052V45.8958V45.8865V45.8771V45.8678V45.8584V45.8491V45.8398V45.8305V45.8212V45.8119V45.8026V45.7933V45.784V45.7748V45.7655V45.7563V45.7471V45.7379V45.7286V45.7194V45.7102V45.7011V45.6919V45.6827V45.6736V45.6644V45.6553V45.6462V45.637V45.6279V45.6188V45.6097V45.6007V45.5916V45.5825V45.5735V45.5644V45.5554V45.5464V45.5374V45.5284V45.5194V45.5104V45.5014V45.4925V45.4835V45.4746V45.4656V45.4567V45.4478V45.4389V45.43V45.4212V45.4123V45.4034V45.3946V45.3857V45.3769V45.3681V45.3593V45.3505V45.3417V45.3329V45.3242V45.3154V45.3067V45.2979V45.2892V45.2805V45.2718V45.2631V45.2545V45.2458V45.2371V45.2285V45.2199V45.2112V45.2026V45.194V45.1855V45.1769V45.1683V45.1598V45.1512V45.1427V45.1342V45.1257V45.1172V45.1087V45.1002V45.0918V45.0833V45.0749V45.0664V45.058V45.0496V45.0412V45.0329V45.0245V45.0161V45.0078V44.9995V44.9912V44.9829V44.9746V44.9663V44.958V44.9498V44.9415V44.9333V44.9251V44.9169V44.9087V44.9005V44.8923V44.8841V44.876V44.8679V44.8598V44.8516V44.8436V44.8355V44.8274V44.8194V44.8113V44.8033V44.7953V44.7873V44.7793V44.7713V44.7633V44.7554V44.7474V44.7395V44.7316V44.7237V44.7158V44.7079V44.7001V44.6922V44.6844V44.6766V44.6688V44.661V44.6532V44.6455V44.6377V44.63V44.6222V44.6145V44.6068V44.5992V44.5915V44.5838V44.5762V44.5686V44.561V44.5534V44.5458V44.5382V44.5306V44.5231V44.5156V44.5081V44.5006V44.4931V44.4856V44.4782V44.4707V44.4633V44.4559V44.4485V44.4411V44.4337V44.4264V44.419V44.4117V44.4044V44.3971V44.3898V44.3825V44.3753V44.3681V44.3608V44.3536V44.3464V44.3393V44.3321V44.325V44.3178V44.3107V44.3036V44.2965V44.2894V44.2824V44.2754V44.2683V44.2613V44.2543V44.2473V44.2404V44.2334V44.2265V44.2196V44.2127V44.2058V44.1989V44.1921V44.1852V44.1784V44.1716V44.1648V44.1581V44.1513V44.1446V44.1378V44.1311V44.1244V44.1178V44.1111V44.1045V44.0978V44.0912V44.0846V44.078V44.0715V44.0649V44.0584V44.0519V44.0454V44.0389V44.0324V44.026V44.0196V44.0131V44.0067V44.0004V43.994V43.9877V43.9813V43.975V43.9687V43.9624V43.9562V43.9499V43.9437V43.9375V43.9313V43.9307C49.6532 43.812 51.9895 43.4305 54.0014 42.6076ZM58.4155 52.1616V37.3561C58.4155 35.8178 57.16 34.6021 55.6124 33.6749C54.0082 32.7137 51.8119 31.892 49.3753 31.2223C44.4944 29.8806 38.4694 29.1006 33.8327 29.1006C29.1961 29.1006 23.171 29.8806 18.2902 31.2223C15.8536 31.892 13.6573 32.7137 12.0531 33.6749C10.5055 34.6021 9.25 35.8178 9.25 37.3561V52.1616C9.25 54.864 11.4 56.487 13.6641 57.413C15.9672 58.355 18.6953 58.7187 20.5061 58.7717C20.7087 58.7777 20.9051 58.7013 21.0506 58.5601C21.196 58.4189 21.2781 58.2248 21.2781 58.022V47.5397C24.5196 46.3461 28.0685 45.6117 33.8327 45.6117C39.597 45.6117 43.1459 46.3461 46.3874 47.5397V58.022C46.3874 58.2248 46.4695 58.4189 46.6149 58.5601C46.7603 58.7013 46.9567 58.7777 47.1594 58.7717C48.9702 58.7187 51.6983 58.355 54.0014 57.413C56.2655 56.487 58.4155 54.864 58.4155 52.1616ZM10.75 52.1616V40.7918C11.5535 41.5789 12.5961 42.1708 13.6641 42.6076C15.676 43.4305 18.0123 43.812 19.7781 43.9307V43.9313V43.9375V43.9437V43.9499V43.9562V43.9624V43.9687V43.975V43.9813V43.9877V43.994V44.0004V44.0067V44.0131V44.0196V44.026V44.0324V44.0389V44.0454V44.0519V44.0584V44.0649V44.0715V44.078V44.0846V44.0912V44.0978V44.1045V44.1111V44.1178V44.1244V44.1311V44.1378V44.1446V44.1513V44.1581V44.1648V44.1716V44.1784V44.1852V44.1921V44.1989V44.2058V44.2127V44.2196V44.2265V44.2334V44.2404V44.2473V44.2543V44.2613V44.2683V44.2754V44.2824V44.2894V44.2965V44.3036V44.3107V44.3178V44.325V44.3321V44.3393V44.3464V44.3536V44.3608V44.3681V44.3753V44.3825V44.3898V44.3971V44.4044V44.4117V44.419V44.4264V44.4337V44.4411V44.4485V44.4559V44.4633V44.4707V44.4782V44.4856V44.4931V44.5006V44.5081V44.5156V44.5231V44.5306V44.5382V44.5458V44.5534V44.561V44.5686V44.5762V44.5838V44.5915V44.5992V44.6068V44.6145V44.6222V44.63V44.6377V44.6455V44.6532V44.661V44.6688V44.6766V44.6844V44.6922V44.7001V44.7079V44.7158V44.7237V44.7316V44.7395V44.7474V44.7554V44.7633V44.7713V44.7793V44.7873V44.7953V44.8033V44.8113V44.8194V44.8274V44.8355V44.8436V44.8516V44.8598V44.8679V44.876V44.8841V44.8923V44.9005V44.9087V44.9169V44.9251V44.9333V44.9415V44.9498V44.958V44.9663V44.9746V44.9829V44.9912V44.9995V45.0078V45.0161V45.0245V45.0329V45.0412V45.0496V45.058V45.0664V45.0749V45.0833V45.0918V45.1002V45.1087V45.1172V45.1257V45.1342V45.1427V45.1512V45.1598V45.1683V45.1769V45.1855V45.194V45.2026V45.2112V45.2199V45.2285V45.2371V45.2458V45.2545V45.2631V45.2718V45.2805V45.2892V45.2979V45.3067V45.3154V45.3242V45.3329V45.3417V45.3505V45.3593V45.3681V45.3769V45.3857V45.3946V45.4034V45.4123V45.4212V45.43V45.4389V45.4478V45.4567V45.4656V45.4746V45.4835V45.4925V45.5014V45.5104V45.5194V45.5284V45.5374V45.5464V45.5554V45.5644V45.5735V45.5825V45.5916V45.6007V45.6097V45.6188V45.6279V45.637V45.6462V45.6553V45.6644V45.6736V45.6827V45.6919V45.7011V45.7102V45.7194V45.7286V45.7379V45.7471V45.7563V45.7655V45.7748V45.784V45.7933V45.8026V45.8119V45.8212V45.8305V45.8398V45.8491V45.8584V45.8678V45.8771V45.8865V45.8958V45.9052V45.9146V45.924V45.9334V45.9428V45.9522V45.9616V45.971V45.9805V45.9899V45.9994V46.0088V46.0183V46.0278V46.0373V46.0468V46.0563V46.0658V46.0753V46.0848V46.0944V46.1039V46.1134V46.123V46.1326V46.1421V46.1517V46.1613V46.1709V46.1805V46.1901V46.1997V46.2094V46.219V46.2286V46.2383V46.248V46.2576V46.2673V46.277V46.2867V46.2963V46.306V46.3158V46.3255V46.3352V46.3449V46.3546V46.3644V46.3741V46.3839V46.3937V46.4034V46.4132V46.423V46.4328V46.4426V46.4524V46.4622V46.472V46.4818V46.4916V46.5015V46.5113V46.5212V46.531V46.5409V46.5507V46.5606V46.5705V46.5804V46.5903V46.6002V46.6101V46.62V46.6299V46.6398V46.6497V46.6597V46.6696V46.6795V46.6895V46.6994V46.7094V46.7194V46.7293V46.7393V46.7493V46.7593V46.7693V46.7793V46.7893V46.7993V46.8093V46.8193V46.8293V46.8394V46.8494V46.8595V46.8695V46.8796V46.8896V46.8997V46.9097V46.9198V46.9299V46.94V46.9501V46.9601V46.9702V46.9803V46.9904V47.0006V47.0107V47.0208V57.2326C18.1392 57.114 16.0192 56.7556 14.2319 56.0247C12.1093 55.1565 10.75 53.9008 10.75 52.1616Z" fill="#F7F9FB"/>
</svg>
