<svg xmlns="http://www.w3.org/2000/svg" width="68" height="68" viewBox="0 0 68 68" fill="none">
  <path fill-rule="evenodd" clip-rule="evenodd" d="M33.9998 14.25C30.3067 14.25 27.3096 17.2518 27.3096 20.9586C27.3096 24.6654 30.3067 27.6672 33.9998 27.6672C37.6929 27.6672 40.69 24.6654 40.69 20.9586C40.69 17.2518 37.6929 14.25 33.9998 14.25ZM25.8096 20.9586C25.8096 16.4269 29.4747 12.75 33.9998 12.75C38.5249 12.75 42.19 16.4269 42.19 20.9586C42.19 25.4904 38.5249 29.1672 33.9998 29.1672C29.4747 29.1672 25.8096 25.4904 25.8096 20.9586ZM13.5574 26.7052C11.101 26.7052 9.10647 28.7019 9.10647 31.169C9.10647 33.636 11.101 35.6328 13.5574 35.6328C16.0138 35.6328 18.0083 33.636 18.0083 31.169C18.0083 28.7019 16.0138 26.7052 13.5574 26.7052ZM7.60647 31.169C7.60647 27.877 10.269 25.2052 13.5574 25.2052C16.8457 25.2052 19.5083 27.877 19.5083 31.169C19.5083 34.4609 16.8457 37.1328 13.5574 37.1328C10.269 37.1328 7.60647 34.4609 7.60647 31.169ZM54.5867 26.7052C52.1303 26.7052 50.1358 28.7019 50.1358 31.169C50.1358 33.636 52.1303 35.6328 54.5867 35.6328C57.0431 35.6328 59.0376 33.636 59.0376 31.169C59.0376 28.7019 57.0431 26.7052 54.5867 26.7052ZM48.6358 31.169C48.6358 27.877 51.2984 25.2052 54.5867 25.2052C57.8751 25.2052 60.5376 27.877 60.5376 31.169C60.5376 34.4609 57.8751 37.1328 54.5867 37.1328C51.2984 37.1328 48.6358 34.4609 48.6358 31.169ZM33.9805 36.481C26.8927 36.481 22.9894 40.2638 20.8361 44.0769C19.3334 46.7382 18.6948 49.4042 18.4675 50.7713C18.1929 52.4229 18.4384 53.3598 18.8927 53.8891C19.3487 54.4204 20.1939 54.75 21.6283 54.75H22.1473H45.8523H46.3326C47.7671 54.75 48.6122 54.4204 49.0683 53.8891C49.5226 53.3598 49.7681 52.4229 49.4935 50.7713C49.2668 49.4076 48.6308 46.7515 47.136 44.0968C44.9851 40.2768 41.0804 36.481 33.9805 36.481ZM46.3326 56.25H45.8523H22.1473H21.6283H4.82297C3.67612 56.25 2.6162 55.9934 1.93566 55.1983C1.25396 54.4018 1.13078 53.2733 1.34765 51.9651C1.56026 50.6826 2.23448 47.9313 4.02792 45.4823C5.84508 43.001 8.80544 40.8466 13.4851 40.8466C16.1551 40.8466 18.2781 41.5489 19.9511 42.629C22.383 38.7179 26.6613 34.981 33.9805 34.981C41.311 34.981 45.591 38.7294 48.021 42.6468C49.6981 41.5567 51.8296 40.8466 54.5145 40.8466C59.1942 40.8466 62.1545 43.001 63.9717 45.4823C65.7651 47.9313 66.4394 50.6826 66.652 51.9651C66.8688 53.2733 66.7457 54.4018 66.064 55.1983C65.3834 55.9934 64.3235 56.25 63.1767 56.25H46.3326ZM48.7639 43.9535C50.2061 42.9958 52.0759 42.3466 54.5145 42.3466C58.6489 42.3466 61.1847 44.2155 62.7615 46.3686C64.362 48.5541 64.9795 51.0484 65.1722 52.2105C65.3605 53.3468 65.1798 53.9245 64.9244 54.2229C64.6678 54.5227 64.1573 54.75 63.1767 54.75H50.3017C51.1018 53.7277 51.2652 52.282 50.9732 50.5253C50.745 49.1531 50.1414 46.6005 48.7639 43.9535ZM19.2069 43.9344C17.7689 42.9873 15.9078 42.3466 13.4851 42.3466C9.35071 42.3466 6.8149 44.2155 5.23811 46.3686C3.6376 48.5541 3.0201 51.0484 2.82746 52.2105C2.63908 53.3468 2.81983 53.9245 3.07527 54.2229C3.33186 54.5227 3.84228 54.75 4.82297 54.75H17.6593C16.8592 53.7277 16.6957 52.282 16.9878 50.5253C17.2165 49.1498 17.8224 46.5883 19.2069 43.9344Z" fill="#F7F9FB"/>
</svg>