<svg width="68" height="68" viewBox="0 0 68 68" fill="none" xmlns="http://www.w3.org/2000/svg">
<path fill-rule="evenodd" clip-rule="evenodd" d="M25.1029 6C25.1029 3.37664 27.2295 1.25 29.8529 1.25H48.7707C51.3941 1.25 53.5207 3.37665 53.5207 6V20.6004H53.5237H53.531H53.5383H53.5455H53.5527H53.5598H53.5669H53.574H53.5811H53.5881H53.595H53.602H53.6089H53.6157H53.6226H53.6294H53.6361H53.6428H53.6495H53.6562H53.6628H53.6694H53.676H53.6825H53.689H53.6955H53.7019H53.7083H53.7147H53.721H53.7273H53.7336H53.7398H53.746H53.7522H53.7584H53.7645H53.7706H53.7766H53.7826H53.7886H53.7946H53.8006H53.8065H53.8123H53.8182H53.824H53.8298H53.8356H53.8413H53.847H53.8527H53.8584H53.864H53.8696H53.8752H53.8807H53.8863H53.8918H53.8972H53.9027H53.9081H53.9135H53.9189H53.9242H53.9295H53.9348H53.9401H53.9454H53.9506H53.9558H53.961H53.9661H53.9712H53.9763H53.9814H53.9865H53.9915H53.9965H54.0015H54.0065H54.0115H54.0164H54.0213H54.0262H54.0311H54.0359H54.0407H54.0455H54.0503H54.0551H54.0598H54.0645H54.0692H54.0739H54.0786H54.0832H54.0879H54.0925H54.0971H54.1016H54.1062H54.1107H54.1152H54.1198H54.1242H54.1287H54.1332H54.1376H54.142H54.1464H54.1508H54.1552H54.1595H54.1639H54.1682H54.1725H54.1768H54.1811H54.1853H54.1896H54.1938H54.1981H54.2023H54.2065H54.2106H54.2148H54.219H54.2231H54.2272H54.2314H54.2355H54.2396H54.2437H54.2477H54.2518H54.2558H54.2599H54.2639H54.2679H54.2719H54.2759H54.2799H54.2839H54.2878H54.2918H54.2957H54.2997H54.3036H54.3075H54.3115H54.3154H54.3193H54.3231H54.327H54.3309H54.3348H54.3386H54.3425H54.3463H54.3501H54.354H54.3578H54.3616H54.3654H54.3692H54.373H54.3768H54.3806H54.3844H54.3882H54.392H54.3958H54.3995H54.4033H54.4071H54.4108H54.4146H54.4183H54.4221H54.4258H54.4296H54.4333H54.437H54.4408H54.4445H54.4482H54.452H54.4557H54.4594H54.4632H54.4669H54.4706H54.4743H54.4781H54.4818H54.4855H54.4893H54.493H54.4967H54.5004H54.5042H54.5079H54.5116H54.5154H54.5191H54.5229H54.5266H54.5303H54.5341H54.5378H54.5416H54.5454H54.5491H54.5529H54.5567H54.5604H54.5642H54.568H54.5718H54.5756H54.5794H54.5832H54.587H54.5908H54.5946H54.5984H54.6023H54.6061H54.6099H54.6138H54.6177H54.6215H54.6254H54.6293H54.6332H54.6371H54.641H54.6449H54.6488H54.6527H54.6567H54.6606H54.6646H54.6685H54.6725H54.6765H54.6805H54.6845H54.6885H54.6925H54.6966H54.7006H54.7047H54.7088H54.7129H54.7169H54.7211H54.7252H54.7293H54.7335H54.7376H54.7418H54.746H54.7502H54.7544H54.7586H54.7628H54.7671H54.7714H54.7756H54.7799H54.7842H54.7886H54.7929H54.7973H54.8016H54.806H54.8104H54.8148H54.8193H54.8237H54.8282H54.8327H54.8372H54.8417H54.8462H54.8508H54.8554H54.86H54.8646H54.8692H54.8739H54.8785H54.8832H54.8879H54.8926H54.8974H54.9021H54.9069H54.9117H54.9166H54.9214H54.9263H54.9312H54.9361H54.941H54.9459H54.9509H54.9559H54.9609H54.966H54.971H54.9761H54.9812H54.9863H54.9915H54.9967H55.0019H55.0071H55.0124H55.0176H55.0229H55.0282H55.0336H55.039H55.0444H55.0498H55.0552H55.0607H55.0662H55.0717H55.0773H55.0829H55.0885H55.0941H55.0998H55.1054H55.1112H55.1169H55.1227H55.1285H55.1343H55.1401H55.146H55.1519H55.1579H55.1639H55.1699H55.1759H55.1819H55.188H55.1942H55.2003H55.2065H55.2127H55.2189H55.2252H55.2315H55.2379H55.2442H55.2506H55.257H55.2635H55.27H55.2765H55.2831H55.2897H55.2963H55.303H55.3097H55.3164H55.3232H55.33H55.3368H55.3437H55.3506H55.3575H55.3645H55.3715H55.3785H55.3856H55.3927H55.3999H55.4071H55.4143H55.4215H55.4288H55.4362H55.4435H55.4509H55.4584H55.4659H55.4734H55.481H55.4886H55.4962H55.5039H55.5116H55.5193H55.5271H55.535H55.5428H55.5508H55.5587H55.5667H55.5747H55.5828H55.5909H55.5991H55.6073H55.6155H55.6238H55.6321H55.6405H55.6489H55.6573H55.6658H55.6744H55.6829H55.6916H55.7002H55.7089H55.7177H55.7265H55.7353H55.7442H55.7531H55.7621H55.7711C56.7676 20.6004 57.5374 21.012 58.0439 21.629C58.5335 22.2254 58.75 22.9775 58.75 23.6583C58.75 24.3711 58.4714 25.1541 57.9884 25.7654C57.9028 25.8736 57.8092 25.9784 57.7078 26.0776C57.8302 26.1831 57.9424 26.2986 58.0439 26.4222C58.5335 27.0186 58.75 27.7707 58.75 28.4515C58.75 29.1643 58.4714 29.9473 57.9884 30.5586C57.9028 30.6669 57.8092 30.7716 57.7078 30.8708C57.8302 30.9763 57.9424 31.0918 58.0439 31.2155C58.5335 31.8118 58.75 32.5639 58.75 33.2447C58.75 33.9575 58.4714 34.7405 57.9884 35.3518C57.9028 35.4601 57.8092 35.5648 57.7078 35.664C57.8302 35.7696 57.9424 35.885 58.0439 36.0087C58.5335 36.605 58.75 37.3572 58.75 38.0379C58.75 38.7507 58.4714 39.5337 57.9884 40.145C57.4969 40.767 56.7394 41.2733 55.7711 41.2733H55.7647H55.7583H55.7518H55.7454H55.7389H55.7325H55.726H55.7195H55.713H55.7065H55.7001H55.6936H55.6871H55.6806H55.674H55.6675H55.661H55.6545H55.6479H55.6414H55.6349H55.6283H55.6218H55.6152H55.6086H55.6021H55.5955H55.5889H55.5823H55.5758H55.5692H55.5626H55.556H55.5494H55.5428H55.5362H55.5295H55.5229H55.5163H55.5097H55.503H55.4964H55.4897H55.4831H55.4765H55.4698H55.4631H55.4565H55.4498H55.4431H55.4365H55.4298H55.4231H55.4164H55.4098H55.4031H55.3964H55.3897H55.383H55.3763H55.3696H55.3629H55.3562H55.3494H55.3427H55.336H55.3293H55.3226H55.3158H55.3091H55.3024H55.2956H55.2889H55.2821H55.2754H55.2687H55.2619H55.2552H55.2484H55.2416H55.2349H55.2281H55.2214H55.2146H55.2078H55.2011H55.1943H55.1875H55.1808H55.174H55.1672H55.1604H55.1537H55.1469H55.1401H55.1333H55.1265H55.1197H55.1129H55.1062H55.0994H55.0926H55.0858H55.079H55.0722H55.0654H55.0586H55.0518H55.045H55.0382H55.0314H55.0246H55.0178H55.011H55.0042H54.9974H54.9906H54.9838H54.977H54.9702H54.9634H54.9566H54.9498H54.943H54.9362H54.9294H54.9226H54.9158H54.909H54.9021H54.8953H54.8885H54.8817H54.8749H54.8681H54.8613H54.8545H54.8477H54.8409H54.8341H54.8273H54.8205H54.8137H54.8069H54.8001H54.7934H54.7866H54.7798H54.773H54.7662H54.7594H54.7526H54.7458H54.739H54.7323H54.7255H54.7187H54.7119H54.7051H54.6984H54.6916H54.6848H54.6781H54.6713H54.6645H54.6578H54.651H54.6442H54.6375H54.6307H54.624H54.6172H54.6105H54.6037H54.597H54.5902H54.5835H54.5768H54.57H54.5633H54.5566H54.5498H54.5431H54.5364H54.5297H54.523H54.5163H54.5095H54.5028H54.4961H54.4894H54.4827H54.476H54.4694H54.4627H54.456H54.4493H54.4426H54.436H54.4293H54.4226H54.416H54.4093H54.4026H54.396H54.3894H54.3827H54.3761H54.3694H54.3628H54.3562H54.3496H54.3429H54.3363H54.3297H54.3231H54.3165H54.3099H54.3033H54.2967H54.2902H54.2836H54.277H54.2704H54.2639H54.2573H54.2508H54.2442H54.2377H54.2311H54.2246H54.2181H54.2115H54.205H54.1985H54.192H54.1855H54.179H54.1725H54.166H54.1595H54.1531H54.1466H54.1401H54.1337H54.1272H54.1208H54.1143H54.1079H54.1015H54.0951H54.0887H54.0822H54.0758H54.0694H54.0631H54.0567H54.0503H54.0439H54.0376H54.0312H54.0248H54.0185H54.0122H54.0058H53.9995H53.9932H53.9869H53.9806H53.9743H53.968H53.9617H53.9554H53.9492H53.9429H53.9366H53.9304H53.9241H53.9179H53.9117H53.9055H53.8993H53.8931H53.8869H53.8807H53.8745H53.8683H53.8622H53.856H53.8499H53.8437H53.8376H53.8315H53.8253H53.8192H53.8131H53.807H53.801H53.7949H53.7888H53.7828H53.7767H53.7707H53.7646H53.7586H53.7526H53.7466H53.7406H53.7346H53.7286H53.7227H53.7167H53.7108H53.7048H53.6989H53.693H53.687H53.6811H53.6752H53.6693H53.6635H53.6576H53.6517H53.6459H53.6401H53.6342H53.6284H53.6226H53.6168H53.611H53.6052H53.5995H53.5937H53.5879H53.5822H53.5765H53.5707H53.565H53.5593H53.5536H53.548H53.5423H53.5366H53.531H53.5254H53.5207V42.8255C53.5207 45.4488 51.3941 47.5755 48.7707 47.5755H47.0289C46.2328 48.5032 44.6519 50.3474 43.2253 52.0171C41.1974 54.3908 38.5867 56.2083 35.6597 56.0062C34.4696 55.9241 33.5121 56.0686 32.6228 56.4208C31.9179 56.6999 31.2306 57.1194 30.4868 57.7007L31.6088 58.8071L32.1414 59.3324L31.6176 59.8663L25.0851 66.5252C24.795 66.8209 24.3202 66.8255 24.0245 66.5354C23.7288 66.2453 23.7243 65.7705 24.0143 65.4748L30.0229 59.3499L28.841 58.1844L17.5038 47.0045L16.6891 46.201L9.53539 53.4931C9.24532 53.7888 8.77046 53.7934 8.47478 53.5033C8.17909 53.2132 8.17454 52.7384 8.46461 52.4427L16.1449 44.6138L16.6715 44.077L17.2069 44.605L17.9366 45.3245C18.6952 44.2602 19.1266 43.532 19.3878 42.7837C19.6996 41.8904 19.7879 40.9118 19.7879 39.1918V39.1715V39.1511V39.1306V39.1101V39.0894V39.0687V39.0479V39.0271V39.0061V38.9851V38.964V38.9428V38.9216V38.9003V38.8789V38.8574V38.8359V38.8142V38.7926V38.7708V38.749V38.7271V38.7051V38.683V38.6609V38.6387V38.6165V38.5941V38.5717V38.5493V38.5267V38.5041V38.4815V38.4587V38.4359V38.4131V38.3901V38.3671V38.3441V38.3209V38.2977V38.2745V38.2511V38.2277V38.2043V38.1808V38.1572V38.1335V38.1098V38.0861V38.0622V38.0383V38.0144V37.9904V37.9663V37.9422V37.918V37.8937V37.8694V37.8451V37.8206V37.7961V37.7716V37.747V37.7224V37.6977V37.6729V37.6481V37.6232V37.5983V37.5733V37.5483V37.5232V37.498V37.4728V37.4476V37.4223V37.3969V37.3715V37.3461V37.3206V37.295V37.2694V37.2437V37.218V37.1923V37.1665V37.1406V37.1147V37.0888V37.0628V37.0368V37.0107V36.9846V36.9584V36.9322V36.9059V36.8796V36.8532V36.8268V36.8004V36.7739V36.7474V36.7208V36.6942V36.6675V36.6408V36.6141V36.5873V36.5605V36.5336V36.5067V36.4798V36.4528V36.4258V36.3987V36.3717V36.3445V36.3174V36.2902V36.2629V36.2356V36.2083V36.181V36.1536V36.1262V36.0987V36.0713V36.0437V36.0162V35.9886V35.961V35.9333V35.9057V35.878V35.8502V35.8224V35.7946V35.7668V35.7389V35.7111V35.6831V35.6552V35.6272V35.5992V35.5712V35.5431V35.515V35.4869V35.4588V35.4306V35.4024V35.3742V35.346V35.3177V35.2894V35.2611V35.2328V35.2044V35.176V35.1476V35.1192V35.0908V35.0623V35.0338V35.0053V34.9768V34.9482V34.9197V34.8911V34.8625V34.8339V34.8052V34.7766V34.7479V34.7192V34.6905V34.6618V34.633V34.6043V34.5755V34.5467V34.5179V34.4891V34.4603V34.4315V34.4026V34.3738V34.3449V34.316V34.2871V34.2582V34.2293V34.2003V34.1714V34.1425V34.1135V34.0845V34.0556V34.0266V33.9976V33.9686V33.9396V33.9106V33.8815V33.8525V33.8235V33.7944V33.7654V33.7364V33.7073V33.6783V33.6492V33.6201V33.5911V33.562V33.5329V33.5039V33.4748V33.4457V33.4167V33.3876V33.3585V33.3294V33.3004V33.2713V33.2422V33.2132V33.1841V33.155V33.126V33.0969V33.0679V33.0388V33.0098V32.9807V32.9517V32.9227V32.8936V32.8646V32.8356V32.8066V32.7776V32.7486V32.7196V32.6907V32.6617V32.6327V32.6038V32.5748V32.5459V32.517V32.4881V32.4592V32.4303V32.4014V32.3726V32.3437V32.3149V32.2861V32.2573V32.2285V32.1997V32.1709V32.1422V32.1135V32.0847V32.056V32.0274V31.9987V31.97V31.9414V31.9128V31.8842V31.8556V31.8271V31.7985V31.77V31.7415V31.713V31.6846V31.6561V31.6277V31.5993V31.5709V31.5426V31.5142V31.4859V31.4577V31.4294V31.4012V31.373V31.3448V31.3166V31.2885V31.2604V31.2323V31.2043V31.1762V31.1482V31.1203V31.0923V31.0644V31.0365V31.0087V30.9809V30.9531V30.9253V30.8976V30.8699V30.8422V30.8146V30.7869V30.7594V30.7318V30.7043V30.6768V30.6494V30.622V30.5946V30.5673V30.54V30.5127V30.4855V30.4583V30.4311V30.404V30.3769V30.3499V30.3229V30.2959V30.269V30.2421V30.2153V30.1885V30.1617V30.135V30.1083V30.0816V30.055V30.0285V30.002V29.9755V29.9491V29.9227V29.8963V29.87V29.8438V29.8176V29.7914V29.7653V29.7392V29.7132V29.6872V29.6613V29.6354V29.6095V29.5837V29.558V29.5323V29.5067V29.4811V29.4555V29.4301V29.4046V29.3792V29.3539V29.3286V29.3034V29.2782V29.2531V29.228V29.203V29.178V29.1531V29.1282V29.1034V29.0787V29.054V29.0293V29.0048V28.9802V28.9558V28.9314V28.907V28.8827V28.8585V28.8343V28.8102V28.7861V28.7621V28.7382V28.7143V28.6905V28.6668V28.6431V28.6194V28.5959V28.5724V28.5489V28.5256V28.5023V28.479V28.4558V28.4327V28.4097V28.3867V28.3637V28.3409V28.3181V28.2954V28.2727V28.2501V28.2276V28.2052V28.1828V28.1605V28.1383V28.1161V28.094V28.072V28.05V28.0281V28.0063V27.9846V27.9629V27.9413V27.9198V27.8983V27.8769V27.8556V27.8344V27.8133V27.7922V27.7712V27.7503V27.7294V27.7087V27.688V27.6673V27.6468V27.6263V27.606V27.5857V27.5654V27.5453V27.5252V27.5052V27.4853V27.4655V27.4458V27.4261V27.4066V27.3871V27.3676V27.3483V27.3291V27.3099V27.2908V27.2719V27.253V27.2341V27.2154V27.1967V27.1782V27.1597V27.1413V27.123V27.1048V27.0867V27.0687V27.0507V27.0329V27.0151V26.9974V26.9798V26.9623V26.9449V26.9276V26.9104V26.8933V26.8762V26.8593V26.8424V26.8257V26.809V26.7924V26.776V26.7596V26.7433V26.7271V26.711V26.695V26.6791V26.6633V26.6476V26.632V26.6165V26.6011V26.5858V26.5706V26.5555V26.5405V26.5255V26.5107V26.496V26.4814V26.4669V26.4525V26.4382V26.424V26.4099C19.7879 25.024 20.3505 23.4787 21.3692 22.275C22.2621 21.2199 23.5284 20.4029 25.1029 20.2034V6ZM25.1029 21.72C24.0323 21.9052 23.1603 22.4805 22.5142 23.244C21.7112 24.1928 21.2879 25.3992 21.2879 26.4099V26.424V26.4382V26.4525V26.4669V26.4814V26.496V26.5107V26.5255V26.5405V26.5555V26.5706V26.5858V26.6011V26.6165V26.632V26.6476V26.6633V26.6791V26.695V26.711V26.7271V26.7433V26.7596V26.776V26.7924V26.809V26.8257V26.8424V26.8593V26.8762V26.8933V26.9104V26.9276V26.9449V26.9623V26.9798V26.9974V27.0151V27.0329V27.0507V27.0687V27.0867V27.1048V27.123V27.1413V27.1597V27.1782V27.1967V27.2154V27.2341V27.253V27.2719V27.2908V27.3099V27.3291V27.3483V27.3676V27.3871V27.4066V27.4261V27.4458V27.4655V27.4853V27.5052V27.5252V27.5453V27.5654V27.5857V27.606V27.6263V27.6468V27.6673V27.688V27.7087V27.7294V27.7503V27.7712V27.7922V27.8133V27.8344V27.8556V27.8769V27.8983V27.9198V27.9413V27.9629V27.9846V28.0063V28.0281V28.05V28.072V28.094V28.1161V28.1383V28.1605V28.1828V28.2052V28.2276V28.2501V28.2727V28.2954V28.3181V28.3409V28.3637V28.3867V28.4097V28.4327V28.4558V28.479V28.5023V28.5256V28.5489V28.5724V28.5959V28.6194V28.6431V28.6668V28.6905V28.7143V28.7382V28.7621V28.7861V28.8102V28.8343V28.8585V28.8827V28.907V28.9314V28.9558V28.9802V29.0048V29.0293V29.054V29.0787V29.1034V29.1282V29.1531V29.178V29.203V29.228V29.2531V29.2782V29.3034V29.3286V29.3539V29.3792V29.4046V29.4301V29.4555V29.4811V29.5067V29.5323V29.558V29.5837V29.6095V29.6354V29.6613V29.6872V29.7132V29.7392V29.7653V29.7914V29.8176V29.8438V29.87V29.8963V29.9227V29.9491V29.9755V30.002V30.0285V30.055V30.0816V30.1083V30.135V30.1617V30.1885V30.2153V30.2421V30.269V30.2959V30.3229V30.3499V30.3769V30.404V30.4311V30.4583V30.4855V30.5127V30.54V30.5673V30.5946V30.622V30.6494V30.6768V30.7043V30.7318V30.7594V30.7869V30.8146V30.8422V30.8699V30.8976V30.9253V30.9531V30.9809V31.0087V31.0365V31.0644V31.0923V31.1203V31.1482V31.1762V31.2043V31.2323V31.2604V31.2885V31.3166V31.3448V31.373V31.4012V31.4294V31.4577V31.4859V31.5142V31.5426V31.5709V31.5993V31.6277V31.6561V31.6846V31.713V31.7415V31.77V31.7985V31.8271V31.8556V31.8842V31.9128V31.9414V31.97V31.9987V32.0274V32.056V32.0847V32.1135V32.1422V32.1709V32.1997V32.2285V32.2573V32.2861V32.3149V32.3437V32.3726V32.4014V32.4303V32.4592V32.4881V32.517V32.5459V32.5748V32.6038V32.6327V32.6617V32.6907V32.7196V32.7486V32.7776V32.8066V32.8356V32.8646V32.8936V32.9227V32.9517V32.9807V33.0098V33.0388V33.0679V33.0969V33.126V33.155V33.1841V33.2132V33.2422V33.2713V33.3004V33.3294V33.3585V33.3876V33.4167V33.4457V33.4748V33.5039V33.5329V33.562V33.5911V33.6201V33.6492V33.6783V33.7073V33.7364V33.7654V33.7944V33.8235V33.8525V33.8815V33.9106V33.9396V33.9686V33.9976V34.0266V34.0556V34.0845V34.1135V34.1425V34.1714V34.2003V34.2293V34.2582V34.2871V34.316V34.3449V34.3738V34.4026V34.4315V34.4603V34.4891V34.5179V34.5467V34.5755V34.6043V34.633V34.6618V34.6905V34.7192V34.7479V34.7766V34.8052V34.8339V34.8625V34.8911V34.9197V34.9482V34.9768V35.0053V35.0338V35.0623V35.0908V35.1192V35.1476V35.176V35.2044V35.2328V35.2611V35.2894V35.3177V35.346V35.3742V35.4024V35.4306V35.4588V35.4869V35.515V35.5431V35.5712V35.5992V35.6272V35.6552V35.6831V35.7111V35.7389V35.7668V35.7946V35.8224V35.8502V35.878V35.9057V35.9333V35.961V35.9886V36.0162V36.0437V36.0713V36.0987V36.1262V36.1536V36.181V36.2083V36.2356V36.2629V36.2902V36.3174V36.3445V36.3717V36.3987V36.4258V36.4528V36.4798V36.5067V36.5336V36.5605V36.5873V36.6141V36.6408V36.6675V36.6942V36.7208V36.7474V36.7739V36.8004V36.8268V36.8532V36.8796V36.9059V36.9322V36.9584V36.9846V37.0107V37.0368V37.0628V37.0888V37.1147V37.1406V37.1665V37.1923V37.218V37.2437V37.2694V37.295V37.3206V37.3461V37.3715V37.3969V37.4223V37.4476V37.4728V37.498V37.5232V37.5483V37.5733V37.5983V37.6232V37.6481V37.6729V37.6977V37.7224V37.747V37.7716V37.7961V37.8206V37.8451V37.8694V37.8937V37.918V37.9422V37.9663V37.9904V38.0144V38.0383V38.0622V38.0861V38.1098V38.1335V38.1572V38.1808V38.2043V38.2277V38.2511V38.2745V38.2977V38.3209V38.3441V38.3671V38.3901V38.4131V38.4359V38.4587V38.4815V38.5041V38.5267V38.5493V38.5717V38.5941V38.6165V38.6387V38.6609V38.683V38.7051V38.7271V38.749V38.7708V38.7926V38.8142V38.8359V38.8574V38.8789V38.9003V38.9216V38.9428V38.964V38.9851V39.0061V39.0271V39.0479V39.0687V39.0894V39.1101V39.1306V39.1511V39.1715V39.1918C21.2879 40.9337 21.2048 42.1298 20.804 43.278C20.4555 44.2765 19.8814 45.1952 19.0179 46.3908L29.4106 56.6394C30.284 55.9401 31.1426 55.3936 32.0705 55.0262C33.1957 54.5806 34.3813 54.4144 35.763 54.5098C37.9796 54.6628 40.1695 53.2848 42.0849 51.0428C43.1107 49.842 44.2163 48.5513 45.0528 47.5755H29.8529C27.2296 47.5755 25.1029 45.4488 25.1029 42.8255V21.72ZM52.0207 41.2733V40.5233V35.7301V30.9369V26.1436V21.3504V6C52.0207 4.20507 50.5657 2.75 48.7707 2.75H29.8529C28.058 2.75 26.6029 4.20507 26.6029 6V20.9066V42.8255C26.6029 44.6204 28.058 46.0755 29.8529 46.0755H46.6842H48.7707C50.5657 46.0755 52.0207 44.6204 52.0207 42.8255V41.2733ZM53.5207 39.7733H53.5254H53.531H53.5366H53.5423H53.548H53.5536H53.5593H53.565H53.5707H53.5765H53.5822H53.5879H53.5937H53.5995H53.6052H53.611H53.6168H53.6226H53.6284H53.6342H53.6401H53.6459H53.6517H53.6576H53.6635H53.6693H53.6752H53.6811H53.687H53.693H53.6989H53.7048H53.7108H53.7167H53.7227H53.7286H53.7346H53.7406H53.7466H53.7526H53.7586H53.7646H53.7707H53.7767H53.7828H53.7888H53.7949H53.801H53.807H53.8131H53.8192H53.8253H53.8315H53.8376H53.8437H53.8499H53.856H53.8622H53.8683H53.8745H53.8807H53.8869H53.8931H53.8993H53.9055H53.9117H53.9179H53.9241H53.9304H53.9366H53.9429H53.9492H53.9554H53.9617H53.968H53.9743H53.9806H53.9869H53.9932H53.9995H54.0058H54.0122H54.0185H54.0248H54.0312H54.0376H54.0439H54.0503H54.0567H54.0631H54.0694H54.0758H54.0822H54.0887H54.0951H54.1015H54.1079H54.1143H54.1208H54.1272H54.1337H54.1401H54.1466H54.1531H54.1595H54.166H54.1725H54.179H54.1855H54.192H54.1985H54.205H54.2115H54.2181H54.2246H54.2311H54.2377H54.2442H54.2508H54.2573H54.2639H54.2704H54.277H54.2836H54.2902H54.2967H54.3033H54.3099H54.3165H54.3231H54.3297H54.3363H54.3429H54.3496H54.3562H54.3628H54.3694H54.3761H54.3827H54.3894H54.396H54.4026H54.4093H54.416H54.4226H54.4293H54.436H54.4426H54.4493H54.456H54.4627H54.4694H54.476H54.4827H54.4894H54.4961H54.5028H54.5095H54.5163H54.523H54.5297H54.5364H54.5431H54.5498H54.5566H54.5633H54.57H54.5768H54.5835H54.5902H54.597H54.6037H54.6105H54.6172H54.624H54.6307H54.6375H54.6442H54.651H54.6578H54.6645H54.6713H54.6781H54.6848H54.6916H54.6984H54.7051H54.7119H54.7187H54.7255H54.7323H54.739H54.7458H54.7526H54.7594H54.7662H54.773H54.7798H54.7866H54.7934H54.8001H54.8069H54.8137H54.8205H54.8273H54.8341H54.8409H54.8477H54.8545H54.8613H54.8681H54.8749H54.8817H54.8885H54.8953H54.9021H54.909H54.9158H54.9226H54.9294H54.9362H54.943H54.9498H54.9566H54.9634H54.9702H54.977H54.9838H54.9906H54.9974H55.0042H55.011H55.0178H55.0246H55.0314H55.0382H55.045H55.0518H55.0586H55.0654H55.0722H55.079H55.0858H55.0926H55.0994H55.1062H55.1129H55.1197H55.1265H55.1333H55.1401H55.1469H55.1537H55.1604H55.1672H55.174H55.1808H55.1875H55.1943H55.2011H55.2078H55.2146H55.2214H55.2281H55.2349H55.2416H55.2484H55.2552H55.2619H55.2687H55.2754H55.2821H55.2889H55.2956H55.3024H55.3091H55.3158H55.3226H55.3293H55.336H55.3427H55.3494H55.3562H55.3629H55.3696H55.3763H55.383H55.3897H55.3964H55.4031H55.4098H55.4164H55.4231H55.4298H55.4365H55.4431H55.4498H55.4565H55.4631H55.4698H55.4765H55.4831H55.4897H55.4964H55.503H55.5097H55.5163H55.5229H55.5295H55.5362H55.5428H55.5494H55.556H55.5626H55.5692H55.5758H55.5823H55.5889H55.5955H55.6021H55.6086H55.6152H55.6218H55.6283H55.6349H55.6414H55.6479H55.6545H55.661H55.6675H55.674H55.6806H55.6871H55.6936H55.7001H55.7065H55.713H55.7195H55.726H55.7325H55.7389H55.7454H55.7518H55.7583H55.7647H55.7711C56.1745 39.7733 56.5314 39.5695 56.8115 39.2151C57.0999 38.85 57.25 38.3903 57.25 38.0379C57.25 37.6535 57.1236 37.2517 56.8845 36.9604C56.6624 36.6898 56.3177 36.4801 55.7711 36.4801H55.7647H55.7621H55.7583H55.7531H55.7518H55.7454H55.7442H55.7389H55.7353H55.7325H55.7265H55.726H55.7195H55.7177H55.713H55.7089H55.7065H55.7002H55.7001H55.6936H55.6916H55.6871H55.6829H55.6806H55.6744H55.674H55.6675H55.6658H55.661H55.6573H55.6545H55.6489H55.6479H55.6414H55.6405H55.6349H55.6321H55.6283H55.6238H55.6218H55.6155H55.6152H55.6086H55.6073H55.6021H55.5991H55.5955H55.5909H55.5889H55.5828H55.5823H55.5758H55.5747H55.5692H55.5667H55.5626H55.5587H55.556H55.5508H55.5494H55.5428H55.5428H55.5362H55.535H55.5295H55.5271H55.5229H55.5193H55.5163H55.5116H55.5097H55.5039H55.503H55.4964H55.4962H55.4897H55.4886H55.4831H55.481H55.4765H55.4734H55.4698H55.4659H55.4631H55.4584H55.4565H55.4509H55.4498H55.4435H55.4431H55.4365H55.4362H55.4298H55.4288H55.4231H55.4215H55.4164H55.4143H55.4098H55.4071H55.4031H55.3999H55.3964H55.3927H55.3897H55.3856H55.383H55.3785H55.3763H55.3715H55.3696H55.3645H55.3629H55.3575H55.3562H55.3506H55.3494H55.3437H55.3427H55.3368H55.336H55.33H55.3293H55.3232H55.3226H55.3164H55.3158H55.3097H55.3091H55.303H55.3024H55.2963H55.2956H55.2897H55.2889H55.2831H55.2821H55.2765H55.2754H55.27H55.2687H55.2635H55.2619H55.257H55.2552H55.2506H55.2484H55.2442H55.2416H55.2379H55.2349H55.2315H55.2281H55.2252H55.2214H55.2189H55.2146H55.2127H55.2078H55.2065H55.2011H55.2003H55.1943H55.1942H55.188H55.1875H55.1819H55.1808H55.1759H55.174H55.1699H55.1672H55.1639H55.1604H55.1579H55.1537H55.1519H55.1469H55.146H55.1401H55.1401H55.1343H55.1333H55.1285H55.1265H55.1227H55.1197H55.1169H55.1129H55.1112H55.1062H55.1054H55.0998H55.0994H55.0941H55.0926H55.0885H55.0858H55.0829H55.079H55.0773H55.0722H55.0717H55.0662H55.0654H55.0607H55.0586H55.0552H55.0518H55.0498H55.045H55.0444H55.039H55.0382H55.0336H55.0314H55.0282H55.0246H55.0229H55.0178H55.0176H55.0124H55.011H55.0071H55.0042H55.0019H54.9974H54.9967H54.9915H54.9906H54.9863H54.9838H54.9812H54.977H54.9761H54.971H54.9702H54.966H54.9634H54.9609H54.9566H54.9559H54.9509H54.9498H54.9459H54.943H54.941H54.9362H54.9361H54.9312H54.9294H54.9263H54.9226H54.9214H54.9166H54.9158H54.9117H54.909H54.9069H54.9021H54.8974H54.8953H54.8926H54.8885H54.8879H54.8832H54.8817H54.8785H54.8749H54.8739H54.8692H54.8681H54.8646H54.8613H54.86H54.8554H54.8545H54.8508H54.8477H54.8462H54.8417H54.8409H54.8372H54.8341H54.8327H54.8282H54.8273H54.8237H54.8205H54.8193H54.8148H54.8137H54.8104H54.8069H54.806H54.8016H54.8001H54.7973H54.7934H54.7929H54.7886H54.7866H54.7842H54.7799H54.7798H54.7756H54.773H54.7714H54.7671H54.7662H54.7628H54.7594H54.7586H54.7544H54.7526H54.7502H54.746H54.7458H54.7418H54.739H54.7376H54.7335H54.7323H54.7293H54.7255H54.7252H54.7211H54.7187H54.7169H54.7129H54.7119H54.7088H54.7051H54.7047H54.7006H54.6984H54.6966H54.6925H54.6916H54.6885H54.6848H54.6845H54.6805H54.6781H54.6765H54.6725H54.6713H54.6685H54.6646H54.6645H54.6606H54.6578H54.6567H54.6527H54.651H54.6488H54.6449H54.6442H54.641H54.6375H54.6371H54.6332H54.6307H54.6293H54.6254H54.624H54.6215H54.6177H54.6172H54.6138H54.6105H54.6099H54.6061H54.6037H54.6023H54.5984H54.597H54.5946H54.5908H54.5902H54.587H54.5835H54.5832H54.5794H54.5768H54.5756H54.5718H54.57H54.568H54.5642H54.5633H54.5604H54.5567H54.5566H54.5529H54.5498H54.5491H54.5454H54.5431H54.5416H54.5378H54.5364H54.5341H54.5303H54.5297H54.5266H54.523H54.5229H54.5191H54.5163H54.5154H54.5116H54.5095H54.5079H54.5042H54.5028H54.5004H54.4967H54.4961H54.493H54.4894H54.4893H54.4855H54.4827H54.4818H54.4781H54.476H54.4743H54.4706H54.4694H54.4669H54.4632H54.4627H54.4594H54.456H54.4557H54.452H54.4493H54.4482H54.4445H54.4426H54.4408H54.437H54.436H54.4333H54.4296H54.4293H54.4258H54.4226H54.4221H54.4183H54.416H54.4146H54.4108H54.4093H54.4071H54.4033H54.4026H54.3995H54.396H54.3958H54.392H54.3894H54.3882H54.3844H54.3827H54.3806H54.3768H54.3761H54.373H54.3694H54.3692H54.3654H54.3628H54.3616H54.3578H54.3562H54.354H54.3501H54.3496H54.3463H54.3429H54.3425H54.3386H54.3363H54.3348H54.3309H54.3297H54.327H54.3231H54.3193H54.3165H54.3154H54.3115H54.3099H54.3075H54.3036H54.3033H54.2997H54.2967H54.2957H54.2918H54.2902H54.2878H54.2839H54.2836H54.2799H54.277H54.2759H54.2719H54.2704H54.2679H54.2639H54.2599H54.2573H54.2558H54.2518H54.2508H54.2477H54.2442H54.2437H54.2396H54.2377H54.2355H54.2314H54.2311H54.2272H54.2246H54.2231H54.219H54.2181H54.2148H54.2115H54.2106H54.2065H54.205H54.2023H54.1985H54.1981H54.1938H54.192H54.1896H54.1855H54.1853H54.1811H54.179H54.1768H54.1725H54.1682H54.166H54.1639H54.1595H54.1552H54.1531H54.1508H54.1466H54.1464H54.142H54.1401H54.1376H54.1337H54.1332H54.1287H54.1272H54.1242H54.1208H54.1198H54.1152H54.1143H54.1107H54.1079H54.1062H54.1016H54.1015H54.0971H54.0951H54.0925H54.0887H54.0879H54.0832H54.0822H54.0786H54.0758H54.0739H54.0694H54.0692H54.0645H54.0631H54.0598H54.0567H54.0551H54.0503H54.0455H54.0439H54.0407H54.0376H54.0359H54.0312H54.0311H54.0262H54.0248H54.0213H54.0185H54.0164H54.0122H54.0115H54.0065H54.0058H54.0015H53.9995H53.9965H53.9932H53.9915H53.9869H53.9865H53.9814H53.9806H53.9763H53.9743H53.9712H53.968H53.9661H53.9617H53.961H53.9558H53.9554H53.9506H53.9492H53.9454H53.9429H53.9401H53.9366H53.9348H53.9304H53.9295H53.9242H53.9241H53.9189H53.9179H53.9135H53.9117H53.9081H53.9055H53.9027H53.8993H53.8972H53.8931H53.8918H53.8869H53.8863H53.8807H53.8807H53.8752H53.8745H53.8696H53.8683H53.864H53.8622H53.8584H53.856H53.8527H53.8499H53.847H53.8437H53.8413H53.8376H53.8356H53.8315H53.8298H53.8253H53.824H53.8192H53.8182H53.8131H53.8123H53.807H53.8065H53.801H53.8006H53.7949H53.7946H53.7888H53.7886H53.7828H53.7826H53.7767H53.7766H53.7707H53.7706H53.7646H53.7645H53.7586H53.7584H53.7526H53.7522H53.7466H53.746H53.7406H53.7398H53.7346H53.7336H53.7286H53.7273H53.7227H53.721H53.7167H53.7147H53.7108H53.7083H53.7048H53.7019H53.6989H53.6955H53.693H53.689H53.687H53.6825H53.6811H53.676H53.6752H53.6694H53.6693H53.6635H53.6628H53.6576H53.6562H53.6517H53.6495H53.6459H53.6428H53.6401H53.6361H53.6342H53.6294H53.6284H53.6226H53.6226H53.6168H53.6157H53.611H53.6089H53.6052H53.602H53.5995H53.595H53.5937H53.5881H53.5879H53.5822H53.5811H53.5765H53.574H53.5707H53.5669H53.565H53.5598H53.5593H53.5536H53.5527H53.548H53.5455H53.5423H53.5383H53.5366H53.531H53.5254H53.5237H53.5207V39.7733ZM53.5207 34.9801H53.5237H53.5254H53.531H53.5366H53.5383H53.5423H53.5455H53.548H53.5527H53.5536H53.5593H53.5598H53.565H53.5669H53.5707H53.574H53.5765H53.5811H53.5822H53.5879H53.5881H53.5937H53.595H53.5995H53.602H53.6052H53.6089H53.611H53.6157H53.6168H53.6226H53.6226H53.6284H53.6294H53.6342H53.6361H53.6401H53.6428H53.6459H53.6495H53.6517H53.6562H53.6576H53.6628H53.6635H53.6693H53.6694H53.6752H53.676H53.6811H53.6825H53.687H53.689H53.693H53.6955H53.6989H53.7019H53.7048H53.7083H53.7108H53.7147H53.7167H53.721H53.7227H53.7273H53.7286H53.7336H53.7346H53.7398H53.7406H53.746H53.7466H53.7522H53.7526H53.7584H53.7586H53.7645H53.7646H53.7706H53.7707H53.7766H53.7767H53.7826H53.7828H53.7886H53.7888H53.7946H53.7949H53.8006H53.801H53.8065H53.807H53.8123H53.8131H53.8182H53.8192H53.824H53.8253H53.8298H53.8315H53.8356H53.8376H53.8413H53.8437H53.847H53.8499H53.8527H53.856H53.8584H53.8622H53.864H53.8683H53.8696H53.8745H53.8752H53.8807H53.8807H53.8863H53.8869H53.8918H53.8931H53.8972H53.8993H53.9027H53.9055H53.9081H53.9117H53.9135H53.9179H53.9189H53.9241H53.9242H53.9295H53.9304H53.9348H53.9366H53.9401H53.9429H53.9454H53.9492H53.9506H53.9554H53.9558H53.961H53.9617H53.9661H53.968H53.9712H53.9743H53.9763H53.9806H53.9814H53.9865H53.9869H53.9915H53.9932H53.9965H53.9995H54.0015H54.0058H54.0065H54.0115H54.0122H54.0164H54.0185H54.0213H54.0248H54.0262H54.0311H54.0312H54.0359H54.0376H54.0407H54.0439H54.0455H54.0503H54.0551H54.0567H54.0598H54.0631H54.0645H54.0692H54.0694H54.0739H54.0758H54.0786H54.0822H54.0832H54.0879H54.0887H54.0925H54.0951H54.0971H54.1015H54.1016H54.1062H54.1079H54.1107H54.1143H54.1152H54.1198H54.1208H54.1242H54.1272H54.1287H54.1332H54.1337H54.1376H54.1401H54.142H54.1464H54.1466H54.1508H54.1531H54.1552H54.1595H54.1639H54.166H54.1682H54.1725H54.1768H54.179H54.1811H54.1853H54.1855H54.1896H54.192H54.1938H54.1981H54.1985H54.2023H54.205H54.2065H54.2106H54.2115H54.2148H54.2181H54.219H54.2231H54.2246H54.2272H54.2311H54.2314H54.2355H54.2377H54.2396H54.2437H54.2442H54.2477H54.2508H54.2518H54.2558H54.2573H54.2599H54.2639H54.2679H54.2704H54.2719H54.2759H54.277H54.2799H54.2836H54.2839H54.2878H54.2902H54.2918H54.2957H54.2967H54.2997H54.3033H54.3036H54.3075H54.3099H54.3115H54.3154H54.3165H54.3193H54.3231H54.327H54.3297H54.3309H54.3348H54.3363H54.3386H54.3425H54.3429H54.3463H54.3496H54.3501H54.354H54.3562H54.3578H54.3616H54.3628H54.3654H54.3692H54.3694H54.373H54.3761H54.3768H54.3806H54.3827H54.3844H54.3882H54.3894H54.392H54.3958H54.396H54.3995H54.4026H54.4033H54.4071H54.4093H54.4108H54.4146H54.416H54.4183H54.4221H54.4226H54.4258H54.4293H54.4296H54.4333H54.436H54.437H54.4408H54.4426H54.4445H54.4482H54.4493H54.452H54.4557H54.456H54.4594H54.4627H54.4632H54.4669H54.4694H54.4706H54.4743H54.476H54.4781H54.4818H54.4827H54.4855H54.4893H54.4894H54.493H54.4961H54.4967H54.5004H54.5028H54.5042H54.5079H54.5095H54.5116H54.5154H54.5163H54.5191H54.5229H54.523H54.5266H54.5297H54.5303H54.5341H54.5364H54.5378H54.5416H54.5431H54.5454H54.5491H54.5498H54.5529H54.5566H54.5567H54.5604H54.5633H54.5642H54.568H54.57H54.5718H54.5756H54.5768H54.5794H54.5832H54.5835H54.587H54.5902H54.5908H54.5946H54.597H54.5984H54.6023H54.6037H54.6061H54.6099H54.6105H54.6138H54.6172H54.6177H54.6215H54.624H54.6254H54.6293H54.6307H54.6332H54.6371H54.6375H54.641H54.6442H54.6449H54.6488H54.651H54.6527H54.6567H54.6578H54.6606H54.6645H54.6646H54.6685H54.6713H54.6725H54.6765H54.6781H54.6805H54.6845H54.6848H54.6885H54.6916H54.6925H54.6966H54.6984H54.7006H54.7047H54.7051H54.7088H54.7119H54.7129H54.7169H54.7187H54.7211H54.7252H54.7255H54.7293H54.7323H54.7335H54.7376H54.739H54.7418H54.7458H54.746H54.7502H54.7526H54.7544H54.7586H54.7594H54.7628H54.7662H54.7671H54.7714H54.773H54.7756H54.7798H54.7799H54.7842H54.7866H54.7886H54.7929H54.7934H54.7973H54.8001H54.8016H54.806H54.8069H54.8104H54.8137H54.8148H54.8193H54.8205H54.8237H54.8273H54.8282H54.8327H54.8341H54.8372H54.8409H54.8417H54.8462H54.8477H54.8508H54.8545H54.8554H54.86H54.8613H54.8646H54.8681H54.8692H54.8739H54.8749H54.8785H54.8817H54.8832H54.8879H54.8885H54.8926H54.8953H54.8974H54.9021H54.9069H54.909H54.9117H54.9158H54.9166H54.9214H54.9226H54.9263H54.9294H54.9312H54.9361H54.9362H54.941H54.943H54.9459H54.9498H54.9509H54.9559H54.9566H54.9609H54.9634H54.966H54.9702H54.971H54.9761H54.977H54.9812H54.9838H54.9863H54.9906H54.9915H54.9967H54.9974H55.0019H55.0042H55.0071H55.011H55.0124H55.0176H55.0178H55.0229H55.0246H55.0282H55.0314H55.0336H55.0382H55.039H55.0444H55.045H55.0498H55.0518H55.0552H55.0586H55.0607H55.0654H55.0662H55.0717H55.0722H55.0773H55.079H55.0829H55.0858H55.0885H55.0926H55.0941H55.0994H55.0998H55.1054H55.1062H55.1112H55.1129H55.1169H55.1197H55.1227H55.1265H55.1285H55.1333H55.1343H55.1401H55.1401H55.146H55.1469H55.1519H55.1537H55.1579H55.1604H55.1639H55.1672H55.1699H55.174H55.1759H55.1808H55.1819H55.1875H55.188H55.1942H55.1943H55.2003H55.2011H55.2065H55.2078H55.2127H55.2146H55.2189H55.2214H55.2252H55.2281H55.2315H55.2349H55.2379H55.2416H55.2442H55.2484H55.2506H55.2552H55.257H55.2619H55.2635H55.2687H55.27H55.2754H55.2765H55.2821H55.2831H55.2889H55.2897H55.2956H55.2963H55.3024H55.303H55.3091H55.3097H55.3158H55.3164H55.3226H55.3232H55.3293H55.33H55.336H55.3368H55.3427H55.3437H55.3494H55.3506H55.3562H55.3575H55.3629H55.3645H55.3696H55.3715H55.3763H55.3785H55.383H55.3856H55.3897H55.3927H55.3964H55.3999H55.4031H55.4071H55.4098H55.4143H55.4164H55.4215H55.4231H55.4288H55.4298H55.4362H55.4365H55.4431H55.4435H55.4498H55.4509H55.4565H55.4584H55.4631H55.4659H55.4698H55.4734H55.4765H55.481H55.4831H55.4886H55.4897H55.4962H55.4964H55.503H55.5039H55.5097H55.5116H55.5163H55.5193H55.5229H55.5271H55.5295H55.535H55.5362H55.5428H55.5428H55.5494H55.5508H55.556H55.5587H55.5626H55.5667H55.5692H55.5747H55.5758H55.5823H55.5828H55.5889H55.5909H55.5955H55.5991H55.6021H55.6073H55.6086H55.6152H55.6155H55.6218H55.6238H55.6283H55.6321H55.6349H55.6405H55.6414H55.6479H55.6489H55.6545H55.6573H55.661H55.6658H55.6675H55.674H55.6744H55.6806H55.6829H55.6871H55.6916H55.6936H55.7001H55.7002H55.7065H55.7089H55.713H55.7177H55.7195H55.726H55.7265H55.7325H55.7353H55.7389H55.7442H55.7454H55.7518H55.7531H55.7583H55.7621H55.7647H55.7711C56.1745 34.9801 56.5314 34.7762 56.8115 34.4218C57.0999 34.0567 57.25 33.597 57.25 33.2447C57.25 32.8603 57.1236 32.4585 56.8845 32.1672C56.6624 31.8966 56.3177 31.6869 55.7711 31.6869H55.7647H55.7621H55.7583H55.7531H55.7518H55.7454H55.7442H55.7389H55.7353H55.7325H55.7265H55.726H55.7195H55.7177H55.713H55.7089H55.7065H55.7002H55.7001H55.6936H55.6916H55.6871H55.6829H55.6806H55.6744H55.674H55.6675H55.6658H55.661H55.6573H55.6545H55.6489H55.6479H55.6414H55.6405H55.6349H55.6321H55.6283H55.6238H55.6218H55.6155H55.6152H55.6086H55.6073H55.6021H55.5991H55.5955H55.5909H55.5889H55.5828H55.5823H55.5758H55.5747H55.5692H55.5667H55.5626H55.5587H55.556H55.5508H55.5494H55.5428H55.5428H55.5362H55.535H55.5295H55.5271H55.5229H55.5193H55.5163H55.5116H55.5097H55.5039H55.503H55.4964H55.4962H55.4897H55.4886H55.4831H55.481H55.4765H55.4734H55.4698H55.4659H55.4631H55.4584H55.4565H55.4509H55.4498H55.4435H55.4431H55.4365H55.4362H55.4298H55.4288H55.4231H55.4215H55.4164H55.4143H55.4098H55.4071H55.4031H55.3999H55.3964H55.3927H55.3897H55.3856H55.383H55.3785H55.3763H55.3715H55.3696H55.3645H55.3629H55.3575H55.3562H55.3506H55.3494H55.3437H55.3427H55.3368H55.336H55.33H55.3293H55.3232H55.3226H55.3164H55.3158H55.3097H55.3091H55.303H55.3024H55.2963H55.2956H55.2897H55.2889H55.2831H55.2821H55.2765H55.2754H55.27H55.2687H55.2635H55.2619H55.257H55.2552H55.2506H55.2484H55.2442H55.2416H55.2379H55.2349H55.2315H55.2281H55.2252H55.2214H55.2189H55.2146H55.2127H55.2078H55.2065H55.2011H55.2003H55.1943H55.1942H55.188H55.1875H55.1819H55.1808H55.1759H55.174H55.1699H55.1672H55.1639H55.1604H55.1579H55.1537H55.1519H55.1469H55.146H55.1401H55.1401H55.1343H55.1333H55.1285H55.1265H55.1227H55.1197H55.1169H55.1129H55.1112H55.1062H55.1054H55.0998H55.0994H55.0941H55.0926H55.0885H55.0858H55.0829H55.079H55.0773H55.0722H55.0717H55.0662H55.0654H55.0607H55.0586H55.0552H55.0518H55.0498H55.045H55.0444H55.039H55.0382H55.0336H55.0314H55.0282H55.0246H55.0229H55.0178H55.0176H55.0124H55.011H55.0071H55.0042H55.0019H54.9974H54.9967H54.9915H54.9906H54.9863H54.9838H54.9812H54.977H54.9761H54.971H54.9702H54.966H54.9634H54.9609H54.9566H54.9559H54.9509H54.9498H54.9459H54.943H54.941H54.9362H54.9361H54.9312H54.9294H54.9263H54.9226H54.9214H54.9166H54.9158H54.9117H54.909H54.9069H54.9021H54.8974H54.8953H54.8926H54.8885H54.8879H54.8832H54.8817H54.8785H54.8749H54.8739H54.8692H54.8681H54.8646H54.8613H54.86H54.8554H54.8545H54.8508H54.8477H54.8462H54.8417H54.8409H54.8372H54.8341H54.8327H54.8282H54.8273H54.8237H54.8205H54.8193H54.8148H54.8137H54.8104H54.8069H54.806H54.8016H54.8001H54.7973H54.7934H54.7929H54.7886H54.7866H54.7842H54.7799H54.7798H54.7756H54.773H54.7714H54.7671H54.7662H54.7628H54.7594H54.7586H54.7544H54.7526H54.7502H54.746H54.7458H54.7418H54.739H54.7376H54.7335H54.7323H54.7293H54.7255H54.7252H54.7211H54.7187H54.7169H54.7129H54.7119H54.7088H54.7051H54.7047H54.7006H54.6984H54.6966H54.6925H54.6916H54.6885H54.6848H54.6845H54.6805H54.6781H54.6765H54.6725H54.6713H54.6685H54.6646H54.6645H54.6606H54.6578H54.6567H54.6527H54.651H54.6488H54.6449H54.6442H54.641H54.6375H54.6371H54.6332H54.6307H54.6293H54.6254H54.624H54.6215H54.6177H54.6172H54.6138H54.6105H54.6099H54.6061H54.6037H54.6023H54.5984H54.597H54.5946H54.5908H54.5902H54.587H54.5835H54.5832H54.5794H54.5768H54.5756H54.5718H54.57H54.568H54.5642H54.5633H54.5604H54.5567H54.5566H54.5529H54.5498H54.5491H54.5454H54.5431H54.5416H54.5378H54.5364H54.5341H54.5303H54.5297H54.5266H54.523H54.5229H54.5191H54.5163H54.5154H54.5116H54.5095H54.5079H54.5042H54.5028H54.5004H54.4967H54.4961H54.493H54.4894H54.4893H54.4855H54.4827H54.4818H54.4781H54.476H54.4743H54.4706H54.4694H54.4669H54.4632H54.4627H54.4594H54.456H54.4557H54.452H54.4493H54.4482H54.4445H54.4426H54.4408H54.437H54.436H54.4333H54.4296H54.4293H54.4258H54.4226H54.4221H54.4183H54.416H54.4146H54.4108H54.4093H54.4071H54.4033H54.4026H54.3995H54.396H54.3958H54.392H54.3894H54.3882H54.3844H54.3827H54.3806H54.3768H54.3761H54.373H54.3694H54.3692H54.3654H54.3628H54.3616H54.3578H54.3562H54.354H54.3501H54.3496H54.3463H54.3429H54.3425H54.3386H54.3363H54.3348H54.3309H54.3297H54.327H54.3231H54.3193H54.3165H54.3154H54.3115H54.3099H54.3075H54.3036H54.3033H54.2997H54.2967H54.2957H54.2918H54.2902H54.2878H54.2839H54.2836H54.2799H54.277H54.2759H54.2719H54.2704H54.2679H54.2639H54.2599H54.2573H54.2558H54.2518H54.2508H54.2477H54.2442H54.2437H54.2396H54.2377H54.2355H54.2314H54.2311H54.2272H54.2246H54.2231H54.219H54.2181H54.2148H54.2115H54.2106H54.2065H54.205H54.2023H54.1985H54.1981H54.1938H54.192H54.1896H54.1855H54.1853H54.1811H54.179H54.1768H54.1725H54.1682H54.166H54.1639H54.1595H54.1552H54.1531H54.1508H54.1466H54.1464H54.142H54.1401H54.1376H54.1337H54.1332H54.1287H54.1272H54.1242H54.1208H54.1198H54.1152H54.1143H54.1107H54.1079H54.1062H54.1016H54.1015H54.0971H54.0951H54.0925H54.0887H54.0879H54.0832H54.0822H54.0786H54.0758H54.0739H54.0694H54.0692H54.0645H54.0631H54.0598H54.0567H54.0551H54.0503H54.0455H54.0439H54.0407H54.0376H54.0359H54.0312H54.0311H54.0262H54.0248H54.0213H54.0185H54.0164H54.0122H54.0115H54.0065H54.0058H54.0015H53.9995H53.9965H53.9932H53.9915H53.9869H53.9865H53.9814H53.9806H53.9763H53.9743H53.9712H53.968H53.9661H53.9617H53.961H53.9558H53.9554H53.9506H53.9492H53.9454H53.9429H53.9401H53.9366H53.9348H53.9304H53.9295H53.9242H53.9241H53.9189H53.9179H53.9135H53.9117H53.9081H53.9055H53.9027H53.8993H53.8972H53.8931H53.8918H53.8869H53.8863H53.8807H53.8807H53.8752H53.8745H53.8696H53.8683H53.864H53.8622H53.8584H53.856H53.8527H53.8499H53.847H53.8437H53.8413H53.8376H53.8356H53.8315H53.8298H53.8253H53.824H53.8192H53.8182H53.8131H53.8123H53.807H53.8065H53.801H53.8006H53.7949H53.7946H53.7888H53.7886H53.7828H53.7826H53.7767H53.7766H53.7707H53.7706H53.7646H53.7645H53.7586H53.7584H53.7526H53.7522H53.7466H53.746H53.7406H53.7398H53.7346H53.7336H53.7286H53.7273H53.7227H53.721H53.7167H53.7147H53.7108H53.7083H53.7048H53.7019H53.6989H53.6955H53.693H53.689H53.687H53.6825H53.6811H53.676H53.6752H53.6694H53.6693H53.6635H53.6628H53.6576H53.6562H53.6517H53.6495H53.6459H53.6428H53.6401H53.6361H53.6342H53.6294H53.6284H53.6226H53.6226H53.6168H53.6157H53.611H53.6089H53.6052H53.602H53.5995H53.595H53.5937H53.5881H53.5879H53.5822H53.5811H53.5765H53.574H53.5707H53.5669H53.565H53.5598H53.5593H53.5536H53.5527H53.548H53.5455H53.5423H53.5383H53.5366H53.531H53.5254H53.5237H53.5207V34.9801ZM53.5207 30.1869H53.5237H53.5254H53.531H53.5366H53.5383H53.5423H53.5455H53.548H53.5527H53.5536H53.5593H53.5598H53.565H53.5669H53.5707H53.574H53.5765H53.5811H53.5822H53.5879H53.5881H53.5937H53.595H53.5995H53.602H53.6052H53.6089H53.611H53.6157H53.6168H53.6226H53.6226H53.6284H53.6294H53.6342H53.6361H53.6401H53.6428H53.6459H53.6495H53.6517H53.6562H53.6576H53.6628H53.6635H53.6693H53.6694H53.6752H53.676H53.6811H53.6825H53.687H53.689H53.693H53.6955H53.6989H53.7019H53.7048H53.7083H53.7108H53.7147H53.7167H53.721H53.7227H53.7273H53.7286H53.7336H53.7346H53.7398H53.7406H53.746H53.7466H53.7522H53.7526H53.7584H53.7586H53.7645H53.7646H53.7706H53.7707H53.7766H53.7767H53.7826H53.7828H53.7886H53.7888H53.7946H53.7949H53.8006H53.801H53.8065H53.807H53.8123H53.8131H53.8182H53.8192H53.824H53.8253H53.8298H53.8315H53.8356H53.8376H53.8413H53.8437H53.847H53.8499H53.8527H53.856H53.8584H53.8622H53.864H53.8683H53.8696H53.8745H53.8752H53.8807H53.8807H53.8863H53.8869H53.8918H53.8931H53.8972H53.8993H53.9027H53.9055H53.9081H53.9117H53.9135H53.9179H53.9189H53.9241H53.9242H53.9295H53.9304H53.9348H53.9366H53.9401H53.9429H53.9454H53.9492H53.9506H53.9554H53.9558H53.961H53.9617H53.9661H53.968H53.9712H53.9743H53.9763H53.9806H53.9814H53.9865H53.9869H53.9915H53.9932H53.9965H53.9995H54.0015H54.0058H54.0065H54.0115H54.0122H54.0164H54.0185H54.0213H54.0248H54.0262H54.0311H54.0312H54.0359H54.0376H54.0407H54.0439H54.0455H54.0503H54.0551H54.0567H54.0598H54.0631H54.0645H54.0692H54.0694H54.0739H54.0758H54.0786H54.0822H54.0832H54.0879H54.0887H54.0925H54.0951H54.0971H54.1015H54.1016H54.1062H54.1079H54.1107H54.1143H54.1152H54.1198H54.1208H54.1242H54.1272H54.1287H54.1332H54.1337H54.1376H54.1401H54.142H54.1464H54.1466H54.1508H54.1531H54.1552H54.1595H54.1639H54.166H54.1682H54.1725H54.1768H54.179H54.1811H54.1853H54.1855H54.1896H54.192H54.1938H54.1981H54.1985H54.2023H54.205H54.2065H54.2106H54.2115H54.2148H54.2181H54.219H54.2231H54.2246H54.2272H54.2311H54.2314H54.2355H54.2377H54.2396H54.2437H54.2442H54.2477H54.2508H54.2518H54.2558H54.2573H54.2599H54.2639H54.2679H54.2704H54.2719H54.2759H54.277H54.2799H54.2836H54.2839H54.2878H54.2902H54.2918H54.2957H54.2967H54.2997H54.3033H54.3036H54.3075H54.3099H54.3115H54.3154H54.3165H54.3193H54.3231H54.327H54.3297H54.3309H54.3348H54.3363H54.3386H54.3425H54.3429H54.3463H54.3496H54.3501H54.354H54.3562H54.3578H54.3616H54.3628H54.3654H54.3692H54.3694H54.373H54.3761H54.3768H54.3806H54.3827H54.3844H54.3882H54.3894H54.392H54.3958H54.396H54.3995H54.4026H54.4033H54.4071H54.4093H54.4108H54.4146H54.416H54.4183H54.4221H54.4226H54.4258H54.4293H54.4296H54.4333H54.436H54.437H54.4408H54.4426H54.4445H54.4482H54.4493H54.452H54.4557H54.456H54.4594H54.4627H54.4632H54.4669H54.4694H54.4706H54.4743H54.476H54.4781H54.4818H54.4827H54.4855H54.4893H54.4894H54.493H54.4961H54.4967H54.5004H54.5028H54.5042H54.5079H54.5095H54.5116H54.5154H54.5163H54.5191H54.5229H54.523H54.5266H54.5297H54.5303H54.5341H54.5364H54.5378H54.5416H54.5431H54.5454H54.5491H54.5498H54.5529H54.5566H54.5567H54.5604H54.5633H54.5642H54.568H54.57H54.5718H54.5756H54.5768H54.5794H54.5832H54.5835H54.587H54.5902H54.5908H54.5946H54.597H54.5984H54.6023H54.6037H54.6061H54.6099H54.6105H54.6138H54.6172H54.6177H54.6215H54.624H54.6254H54.6293H54.6307H54.6332H54.6371H54.6375H54.641H54.6442H54.6449H54.6488H54.651H54.6527H54.6567H54.6578H54.6606H54.6645H54.6646H54.6685H54.6713H54.6725H54.6765H54.6781H54.6805H54.6845H54.6848H54.6885H54.6916H54.6925H54.6966H54.6984H54.7006H54.7047H54.7051H54.7088H54.7119H54.7129H54.7169H54.7187H54.7211H54.7252H54.7255H54.7293H54.7323H54.7335H54.7376H54.739H54.7418H54.7458H54.746H54.7502H54.7526H54.7544H54.7586H54.7594H54.7628H54.7662H54.7671H54.7714H54.773H54.7756H54.7798H54.7799H54.7842H54.7866H54.7886H54.7929H54.7934H54.7973H54.8001H54.8016H54.806H54.8069H54.8104H54.8137H54.8148H54.8193H54.8205H54.8237H54.8273H54.8282H54.8327H54.8341H54.8372H54.8409H54.8417H54.8462H54.8477H54.8508H54.8545H54.8554H54.86H54.8613H54.8646H54.8681H54.8692H54.8739H54.8749H54.8785H54.8817H54.8832H54.8879H54.8885H54.8926H54.8953H54.8974H54.9021H54.9069H54.909H54.9117H54.9158H54.9166H54.9214H54.9226H54.9263H54.9294H54.9312H54.9361H54.9362H54.941H54.943H54.9459H54.9498H54.9509H54.9559H54.9566H54.9609H54.9634H54.966H54.9702H54.971H54.9761H54.977H54.9812H54.9838H54.9863H54.9906H54.9915H54.9967H54.9974H55.0019H55.0042H55.0071H55.011H55.0124H55.0176H55.0178H55.0229H55.0246H55.0282H55.0314H55.0336H55.0382H55.039H55.0444H55.045H55.0498H55.0518H55.0552H55.0586H55.0607H55.0654H55.0662H55.0717H55.0722H55.0773H55.079H55.0829H55.0858H55.0885H55.0926H55.0941H55.0994H55.0998H55.1054H55.1062H55.1112H55.1129H55.1169H55.1197H55.1227H55.1265H55.1285H55.1333H55.1343H55.1401H55.1401H55.146H55.1469H55.1519H55.1537H55.1579H55.1604H55.1639H55.1672H55.1699H55.174H55.1759H55.1808H55.1819H55.1875H55.188H55.1942H55.1943H55.2003H55.2011H55.2065H55.2078H55.2127H55.2146H55.2189H55.2214H55.2252H55.2281H55.2315H55.2349H55.2379H55.2416H55.2442H55.2484H55.2506H55.2552H55.257H55.2619H55.2635H55.2687H55.27H55.2754H55.2765H55.2821H55.2831H55.2889H55.2897H55.2956H55.2963H55.3024H55.303H55.3091H55.3097H55.3158H55.3164H55.3226H55.3232H55.3293H55.33H55.336H55.3368H55.3427H55.3437H55.3494H55.3506H55.3562H55.3575H55.3629H55.3645H55.3696H55.3715H55.3763H55.3785H55.383H55.3856H55.3897H55.3927H55.3964H55.3999H55.4031H55.4071H55.4098H55.4143H55.4164H55.4215H55.4231H55.4288H55.4298H55.4362H55.4365H55.4431H55.4435H55.4498H55.4509H55.4565H55.4584H55.4631H55.4659H55.4698H55.4734H55.4765H55.481H55.4831H55.4886H55.4897H55.4962H55.4964H55.503H55.5039H55.5097H55.5116H55.5163H55.5193H55.5229H55.5271H55.5295H55.535H55.5362H55.5428H55.5428H55.5494H55.5508H55.556H55.5587H55.5626H55.5667H55.5692H55.5747H55.5758H55.5823H55.5828H55.5889H55.5909H55.5955H55.5991H55.6021H55.6073H55.6086H55.6152H55.6155H55.6218H55.6238H55.6283H55.6321H55.6349H55.6405H55.6414H55.6479H55.6489H55.6545H55.6573H55.661H55.6658H55.6675H55.674H55.6744H55.6806H55.6829H55.6871H55.6916H55.6936H55.7001H55.7002H55.7065H55.7089H55.713H55.7177H55.7195H55.726H55.7265H55.7325H55.7353H55.7389H55.7442H55.7454H55.7518H55.7531H55.7583H55.7621H55.7647H55.7711C56.1745 30.1869 56.5314 29.983 56.8115 29.6286C57.0999 29.2635 57.25 28.8038 57.25 28.4515C57.25 28.0671 57.1236 27.6653 56.8845 27.374C56.6624 27.1034 56.3177 26.8936 55.7711 26.8936H55.7647H55.7621H55.7583H55.7531H55.7518H55.7454H55.7442H55.7389H55.7353H55.7325H55.7265H55.726H55.7195H55.7177H55.713H55.7089H55.7065H55.7002H55.7001H55.6936H55.6916H55.6871H55.6829H55.6806H55.6744H55.674H55.6675H55.6658H55.661H55.6573H55.6545H55.6489H55.6479H55.6414H55.6405H55.6349H55.6321H55.6283H55.6238H55.6218H55.6155H55.6152H55.6086H55.6073H55.6021H55.5991H55.5955H55.5909H55.5889H55.5828H55.5823H55.5758H55.5747H55.5692H55.5667H55.5626H55.5587H55.556H55.5508H55.5494H55.5428H55.5428H55.5362H55.535H55.5295H55.5271H55.5229H55.5193H55.5163H55.5116H55.5097H55.5039H55.503H55.4964H55.4962H55.4897H55.4886H55.4831H55.481H55.4765H55.4734H55.4698H55.4659H55.4631H55.4584H55.4565H55.4509H55.4498H55.4435H55.4431H55.4365H55.4362H55.4298H55.4288H55.4231H55.4215H55.4164H55.4143H55.4098H55.4071H55.4031H55.3999H55.3964H55.3927H55.3897H55.3856H55.383H55.3785H55.3763H55.3715H55.3696H55.3645H55.3629H55.3575H55.3562H55.3506H55.3494H55.3437H55.3427H55.3368H55.336H55.33H55.3293H55.3232H55.3226H55.3164H55.3158H55.3097H55.3091H55.303H55.3024H55.2963H55.2956H55.2897H55.2889H55.2831H55.2821H55.2765H55.2754H55.27H55.2687H55.2635H55.2619H55.257H55.2552H55.2506H55.2484H55.2442H55.2416H55.2379H55.2349H55.2315H55.2281H55.2252H55.2214H55.2189H55.2146H55.2127H55.2078H55.2065H55.2011H55.2003H55.1943H55.1942H55.188H55.1875H55.1819H55.1808H55.1759H55.174H55.1699H55.1672H55.1639H55.1604H55.1579H55.1537H55.1519H55.1469H55.146H55.1401H55.1401H55.1343H55.1333H55.1285H55.1265H55.1227H55.1197H55.1169H55.1129H55.1112H55.1062H55.1054H55.0998H55.0994H55.0941H55.0926H55.0885H55.0858H55.0829H55.079H55.0773H55.0722H55.0717H55.0662H55.0654H55.0607H55.0586H55.0552H55.0518H55.0498H55.045H55.0444H55.039H55.0382H55.0336H55.0314H55.0282H55.0246H55.0229H55.0178H55.0176H55.0124H55.011H55.0071H55.0042H55.0019H54.9974H54.9967H54.9915H54.9906H54.9863H54.9838H54.9812H54.977H54.9761H54.971H54.9702H54.966H54.9634H54.9609H54.9566H54.9559H54.9509H54.9498H54.9459H54.943H54.941H54.9362H54.9361H54.9312H54.9294H54.9263H54.9226H54.9214H54.9166H54.9158H54.9117H54.909H54.9069H54.9021H54.8974H54.8953H54.8926H54.8885H54.8879H54.8832H54.8817H54.8785H54.8749H54.8739H54.8692H54.8681H54.8646H54.8613H54.86H54.8554H54.8545H54.8508H54.8477H54.8462H54.8417H54.8409H54.8372H54.8341H54.8327H54.8282H54.8273H54.8237H54.8205H54.8193H54.8148H54.8137H54.8104H54.8069H54.806H54.8016H54.8001H54.7973H54.7934H54.7929H54.7886H54.7866H54.7842H54.7799H54.7798H54.7756H54.773H54.7714H54.7671H54.7662H54.7628H54.7594H54.7586H54.7544H54.7526H54.7502H54.746H54.7458H54.7418H54.739H54.7376H54.7335H54.7323H54.7293H54.7255H54.7252H54.7211H54.7187H54.7169H54.7129H54.7119H54.7088H54.7051H54.7047H54.7006H54.6984H54.6966H54.6925H54.6916H54.6885H54.6848H54.6845H54.6805H54.6781H54.6765H54.6725H54.6713H54.6685H54.6646H54.6645H54.6606H54.6578H54.6567H54.6527H54.651H54.6488H54.6449H54.6442H54.641H54.6375H54.6371H54.6332H54.6307H54.6293H54.6254H54.624H54.6215H54.6177H54.6172H54.6138H54.6105H54.6099H54.6061H54.6037H54.6023H54.5984H54.597H54.5946H54.5908H54.5902H54.587H54.5835H54.5832H54.5794H54.5768H54.5756H54.5718H54.57H54.568H54.5642H54.5633H54.5604H54.5567H54.5566H54.5529H54.5498H54.5491H54.5454H54.5431H54.5416H54.5378H54.5364H54.5341H54.5303H54.5297H54.5266H54.523H54.5229H54.5191H54.5163H54.5154H54.5116H54.5095H54.5079H54.5042H54.5028H54.5004H54.4967H54.4961H54.493H54.4894H54.4893H54.4855H54.4827H54.4818H54.4781H54.476H54.4743H54.4706H54.4694H54.4669H54.4632H54.4627H54.4594H54.456H54.4557H54.452H54.4493H54.4482H54.4445H54.4426H54.4408H54.437H54.436H54.4333H54.4296H54.4293H54.4258H54.4226H54.4221H54.4183H54.416H54.4146H54.4108H54.4093H54.4071H54.4033H54.4026H54.3995H54.396H54.3958H54.392H54.3894H54.3882H54.3844H54.3827H54.3806H54.3768H54.3761H54.373H54.3694H54.3692H54.3654H54.3628H54.3616H54.3578H54.3562H54.354H54.3501H54.3496H54.3463H54.3429H54.3425H54.3386H54.3363H54.3348H54.3309H54.3297H54.327H54.3231H54.3193H54.3165H54.3154H54.3115H54.3099H54.3075H54.3036H54.3033H54.2997H54.2967H54.2957H54.2918H54.2902H54.2878H54.2839H54.2836H54.2799H54.277H54.2759H54.2719H54.2704H54.2679H54.2639H54.2599H54.2573H54.2558H54.2518H54.2508H54.2477H54.2442H54.2437H54.2396H54.2377H54.2355H54.2314H54.2311H54.2272H54.2246H54.2231H54.219H54.2181H54.2148H54.2115H54.2106H54.2065H54.205H54.2023H54.1985H54.1981H54.1938H54.192H54.1896H54.1855H54.1853H54.1811H54.179H54.1768H54.1725H54.1682H54.166H54.1639H54.1595H54.1552H54.1531H54.1508H54.1466H54.1464H54.142H54.1401H54.1376H54.1337H54.1332H54.1287H54.1272H54.1242H54.1208H54.1198H54.1152H54.1143H54.1107H54.1079H54.1062H54.1016H54.1015H54.0971H54.0951H54.0925H54.0887H54.0879H54.0832H54.0822H54.0786H54.0758H54.0739H54.0694H54.0692H54.0645H54.0631H54.0598H54.0567H54.0551H54.0503H54.0455H54.0439H54.0407H54.0376H54.0359H54.0312H54.0311H54.0262H54.0248H54.0213H54.0185H54.0164H54.0122H54.0115H54.0065H54.0058H54.0015H53.9995H53.9965H53.9932H53.9915H53.9869H53.9865H53.9814H53.9806H53.9763H53.9743H53.9712H53.968H53.9661H53.9617H53.961H53.9558H53.9554H53.9506H53.9492H53.9454H53.9429H53.9401H53.9366H53.9348H53.9304H53.9295H53.9242H53.9241H53.9189H53.9179H53.9135H53.9117H53.9081H53.9055H53.9027H53.8993H53.8972H53.8931H53.8918H53.8869H53.8863H53.8807H53.8807H53.8752H53.8745H53.8696H53.8683H53.864H53.8622H53.8584H53.856H53.8527H53.8499H53.847H53.8437H53.8413H53.8376H53.8356H53.8315H53.8298H53.8253H53.824H53.8192H53.8182H53.8131H53.8123H53.807H53.8065H53.801H53.8006H53.7949H53.7946H53.7888H53.7886H53.7828H53.7826H53.7767H53.7766H53.7707H53.7706H53.7646H53.7645H53.7586H53.7584H53.7526H53.7522H53.7466H53.746H53.7406H53.7398H53.7346H53.7336H53.7286H53.7273H53.7227H53.721H53.7167H53.7147H53.7108H53.7083H53.7048H53.7019H53.6989H53.6955H53.693H53.689H53.687H53.6825H53.6811H53.676H53.6752H53.6694H53.6693H53.6635H53.6628H53.6576H53.6562H53.6517H53.6495H53.6459H53.6428H53.6401H53.6361H53.6342H53.6294H53.6284H53.6226H53.6226H53.6168H53.6157H53.611H53.6089H53.6052H53.602H53.5995H53.595H53.5937H53.5881H53.5879H53.5822H53.5811H53.5765H53.574H53.5707H53.5669H53.565H53.5598H53.5593H53.5536H53.5527H53.548H53.5455H53.5423H53.5383H53.5366H53.531H53.5254H53.5237H53.5207V30.1869ZM55.7711 25.3936C56.1745 25.3936 56.5314 25.1898 56.8115 24.8354C57.0999 24.4703 57.25 24.0106 57.25 23.6583C57.25 23.2739 57.1236 22.8721 56.8845 22.5808C56.6624 22.3102 56.3177 22.1004 55.7711 22.1004H55.7621H55.7531H55.7442H55.7353H55.7265H55.7177H55.7089H55.7002H55.6916H55.6829H55.6744H55.6658H55.6573H55.6489H55.6405H55.6321H55.6238H55.6155H55.6073H55.5991H55.5909H55.5828H55.5747H55.5667H55.5587H55.5508H55.5428H55.535H55.5271H55.5193H55.5116H55.5039H55.4962H55.4886H55.481H55.4734H55.4659H55.4584H55.4509H55.4435H55.4362H55.4288H55.4215H55.4143H55.4071H55.3999H55.3927H55.3856H55.3785H55.3715H55.3645H55.3575H55.3506H55.3437H55.3368H55.33H55.3232H55.3164H55.3097H55.303H55.2963H55.2897H55.2831H55.2765H55.27H55.2635H55.257H55.2506H55.2442H55.2379H55.2315H55.2252H55.2189H55.2127H55.2065H55.2003H55.1942H55.188H55.1819H55.1759H55.1699H55.1639H55.1579H55.1519H55.146H55.1401H55.1343H55.1285H55.1227H55.1169H55.1112H55.1054H55.0998H55.0941H55.0885H55.0829H55.0773H55.0717H55.0662H55.0607H55.0552H55.0498H55.0444H55.039H55.0336H55.0282H55.0229H55.0176H55.0124H55.0071H55.0019H54.9967H54.9915H54.9863H54.9812H54.9761H54.971H54.966H54.9609H54.9559H54.9509H54.9459H54.941H54.9361H54.9312H54.9263H54.9214H54.9166H54.9117H54.9069H54.9021H54.8974H54.8926H54.8879H54.8832H54.8785H54.8739H54.8692H54.8646H54.86H54.8554H54.8508H54.8462H54.8417H54.8372H54.8327H54.8282H54.8237H54.8193H54.8148H54.8104H54.806H54.8016H54.7973H54.7929H54.7886H54.7842H54.7799H54.7756H54.7714H54.7671H54.7628H54.7586H54.7544H54.7502H54.746H54.7418H54.7376H54.7335H54.7293H54.7252H54.7211H54.7169H54.7129H54.7088H54.7047H54.7006H54.6966H54.6925H54.6885H54.6845H54.6805H54.6765H54.6725H54.6685H54.6646H54.6606H54.6567H54.6527H54.6488H54.6449H54.641H54.6371H54.6332H54.6293H54.6254H54.6215H54.6177H54.6138H54.6099H54.6061H54.6023H54.5984H54.5946H54.5908H54.587H54.5832H54.5794H54.5756H54.5718H54.568H54.5642H54.5604H54.5567H54.5529H54.5491H54.5454H54.5416H54.5378H54.5341H54.5303H54.5266H54.5229H54.5191H54.5154H54.5116H54.5079H54.5042H54.5004H54.4967H54.493H54.4893H54.4855H54.4818H54.4781H54.4743H54.4706H54.4669H54.4632H54.4594H54.4557H54.452H54.4482H54.4445H54.4408H54.437H54.4333H54.4296H54.4258H54.4221H54.4183H54.4146H54.4108H54.4071H54.4033H54.3995H54.3958H54.392H54.3882H54.3844H54.3806H54.3768H54.373H54.3692H54.3654H54.3616H54.3578H54.354H54.3501H54.3463H54.3425H54.3386H54.3348H54.3309H54.327H54.3231H54.3193H54.3154H54.3115H54.3075H54.3036H54.2997H54.2957H54.2918H54.2878H54.2839H54.2799H54.2759H54.2719H54.2679H54.2639H54.2599H54.2558H54.2518H54.2477H54.2437H54.2396H54.2355H54.2314H54.2272H54.2231H54.219H54.2148H54.2106H54.2065H54.2023H54.1981H54.1938H54.1896H54.1853H54.1811H54.1768H54.1725H54.1682H54.1639H54.1595H54.1552H54.1508H54.1464H54.142H54.1376H54.1332H54.1287H54.1242H54.1198H54.1152H54.1107H54.1062H54.1016H54.0971H54.0925H54.0879H54.0832H54.0786H54.0739H54.0692H54.0645H54.0598H54.0551H54.0503H54.0455H54.0407H54.0359H54.0311H54.0262H54.0213H54.0164H54.0115H54.0065H54.0015H53.9965H53.9915H53.9865H53.9814H53.9763H53.9712H53.9661H53.961H53.9558H53.9506H53.9454H53.9401H53.9348H53.9295H53.9242H53.9189H53.9135H53.9081H53.9027H53.8972H53.8918H53.8863H53.8807H53.8752H53.8696H53.864H53.8584H53.8527H53.847H53.8413H53.8356H53.8298H53.824H53.8182H53.8123H53.8065H53.8006H53.7946H53.7886H53.7826H53.7766H53.7706H53.7645H53.7584H53.7522H53.746H53.7398H53.7336H53.7273H53.721H53.7147H53.7083H53.7019H53.6955H53.689H53.6825H53.676H53.6694H53.6628H53.6562H53.6495H53.6428H53.6361H53.6294H53.6226H53.6157H53.6089H53.602H53.595H53.5881H53.5811H53.574H53.5669H53.5598H53.5527H53.5455H53.5383H53.531H53.5237H53.5207V25.3936H53.5237H53.5254H53.531H53.5366H53.5383H53.5423H53.5455H53.548H53.5527H53.5536H53.5593H53.5598H53.565H53.5669H53.5707H53.574H53.5765H53.5811H53.5822H53.5879H53.5881H53.5937H53.595H53.5995H53.602H53.6052H53.6089H53.611H53.6157H53.6168H53.6226H53.6226H53.6284H53.6294H53.6342H53.6361H53.6401H53.6428H53.6459H53.6495H53.6517H53.6562H53.6576H53.6628H53.6635H53.6693H53.6694H53.6752H53.676H53.6811H53.6825H53.687H53.689H53.693H53.6955H53.6989H53.7019H53.7048H53.7083H53.7108H53.7147H53.7167H53.721H53.7227H53.7273H53.7286H53.7336H53.7346H53.7398H53.7406H53.746H53.7466H53.7522H53.7526H53.7584H53.7586H53.7645H53.7646H53.7706H53.7707H53.7766H53.7767H53.7826H53.7828H53.7886H53.7888H53.7946H53.7949H53.8006H53.801H53.8065H53.807H53.8123H53.8131H53.8182H53.8192H53.824H53.8253H53.8298H53.8315H53.8356H53.8376H53.8413H53.8437H53.847H53.8499H53.8527H53.856H53.8584H53.8622H53.864H53.8683H53.8696H53.8745H53.8752H53.8807H53.8807H53.8863H53.8869H53.8918H53.8931H53.8972H53.8993H53.9027H53.9055H53.9081H53.9117H53.9135H53.9179H53.9189H53.9241H53.9242H53.9295H53.9304H53.9348H53.9366H53.9401H53.9429H53.9454H53.9492H53.9506H53.9554H53.9558H53.961H53.9617H53.9661H53.968H53.9712H53.9743H53.9763H53.9806H53.9814H53.9865H53.9869H53.9915H53.9932H53.9965H53.9995H54.0015H54.0058H54.0065H54.0115H54.0122H54.0164H54.0185H54.0213H54.0248H54.0262H54.0311H54.0312H54.0359H54.0376H54.0407H54.0439H54.0455H54.0503H54.0551H54.0567H54.0598H54.0631H54.0645H54.0692H54.0694H54.0739H54.0758H54.0786H54.0822H54.0832H54.0879H54.0887H54.0925H54.0951H54.0971H54.1015H54.1016H54.1062H54.1079H54.1107H54.1143H54.1152H54.1198H54.1208H54.1242H54.1272H54.1287H54.1332H54.1337H54.1376H54.1401H54.142H54.1464H54.1466H54.1508H54.1531H54.1552H54.1595H54.1639H54.166H54.1682H54.1725H54.1768H54.179H54.1811H54.1853H54.1855H54.1896H54.192H54.1938H54.1981H54.1985H54.2023H54.205H54.2065H54.2106H54.2115H54.2148H54.2181H54.219H54.2231H54.2246H54.2272H54.2311H54.2314H54.2355H54.2377H54.2396H54.2437H54.2442H54.2477H54.2508H54.2518H54.2558H54.2573H54.2599H54.2639H54.2679H54.2704H54.2719H54.2759H54.277H54.2799H54.2836H54.2839H54.2878H54.2902H54.2918H54.2957H54.2967H54.2997H54.3033H54.3036H54.3075H54.3099H54.3115H54.3154H54.3165H54.3193H54.3231H54.327H54.3297H54.3309H54.3348H54.3363H54.3386H54.3425H54.3429H54.3463H54.3496H54.3501H54.354H54.3562H54.3578H54.3616H54.3628H54.3654H54.3692H54.3694H54.373H54.3761H54.3768H54.3806H54.3827H54.3844H54.3882H54.3894H54.392H54.3958H54.396H54.3995H54.4026H54.4033H54.4071H54.4093H54.4108H54.4146H54.416H54.4183H54.4221H54.4226H54.4258H54.4293H54.4296H54.4333H54.436H54.437H54.4408H54.4426H54.4445H54.4482H54.4493H54.452H54.4557H54.456H54.4594H54.4627H54.4632H54.4669H54.4694H54.4706H54.4743H54.476H54.4781H54.4818H54.4827H54.4855H54.4893H54.4894H54.493H54.4961H54.4967H54.5004H54.5028H54.5042H54.5079H54.5095H54.5116H54.5154H54.5163H54.5191H54.5229H54.523H54.5266H54.5297H54.5303H54.5341H54.5364H54.5378H54.5416H54.5431H54.5454H54.5491H54.5498H54.5529H54.5566H54.5567H54.5604H54.5633H54.5642H54.568H54.57H54.5718H54.5756H54.5768H54.5794H54.5832H54.5835H54.587H54.5902H54.5908H54.5946H54.597H54.5984H54.6023H54.6037H54.6061H54.6099H54.6105H54.6138H54.6172H54.6177H54.6215H54.624H54.6254H54.6293H54.6307H54.6332H54.6371H54.6375H54.641H54.6442H54.6449H54.6488H54.651H54.6527H54.6567H54.6578H54.6606H54.6645H54.6646H54.6685H54.6713H54.6725H54.6765H54.6781H54.6805H54.6845H54.6848H54.6885H54.6916H54.6925H54.6966H54.6984H54.7006H54.7047H54.7051H54.7088H54.7119H54.7129H54.7169H54.7187H54.7211H54.7252H54.7255H54.7293H54.7323H54.7335H54.7376H54.739H54.7418H54.7458H54.746H54.7502H54.7526H54.7544H54.7586H54.7594H54.7628H54.7662H54.7671H54.7714H54.773H54.7756H54.7798H54.7799H54.7842H54.7866H54.7886H54.7929H54.7934H54.7973H54.8001H54.8016H54.806H54.8069H54.8104H54.8137H54.8148H54.8193H54.8205H54.8237H54.8273H54.8282H54.8327H54.8341H54.8372H54.8409H54.8417H54.8462H54.8477H54.8508H54.8545H54.8554H54.86H54.8613H54.8646H54.8681H54.8692H54.8739H54.8749H54.8785H54.8817H54.8832H54.8879H54.8885H54.8926H54.8953H54.8974H54.9021H54.9069H54.909H54.9117H54.9158H54.9166H54.9214H54.9226H54.9263H54.9294H54.9312H54.9361H54.9362H54.941H54.943H54.9459H54.9498H54.9509H54.9559H54.9566H54.9609H54.9634H54.966H54.9702H54.971H54.9761H54.977H54.9812H54.9838H54.9863H54.9906H54.9915H54.9967H54.9974H55.0019H55.0042H55.0071H55.011H55.0124H55.0176H55.0178H55.0229H55.0246H55.0282H55.0314H55.0336H55.0382H55.039H55.0444H55.045H55.0498H55.0518H55.0552H55.0586H55.0607H55.0654H55.0662H55.0717H55.0722H55.0773H55.079H55.0829H55.0858H55.0885H55.0926H55.0941H55.0994H55.0998H55.1054H55.1062H55.1112H55.1129H55.1169H55.1197H55.1227H55.1265H55.1285H55.1333H55.1343H55.1401H55.1401H55.146H55.1469H55.1519H55.1537H55.1579H55.1604H55.1639H55.1672H55.1699H55.174H55.1759H55.1808H55.1819H55.1875H55.188H55.1942H55.1943H55.2003H55.2011H55.2065H55.2078H55.2127H55.2146H55.2189H55.2214H55.2252H55.2281H55.2315H55.2349H55.2379H55.2416H55.2442H55.2484H55.2506H55.2552H55.257H55.2619H55.2635H55.2687H55.27H55.2754H55.2765H55.2821H55.2831H55.2889H55.2897H55.2956H55.2963H55.3024H55.303H55.3091H55.3097H55.3158H55.3164H55.3226H55.3232H55.3293H55.33H55.336H55.3368H55.3427H55.3437H55.3494H55.3506H55.3562H55.3575H55.3629H55.3645H55.3696H55.3715H55.3763H55.3785H55.383H55.3856H55.3897H55.3927H55.3964H55.3999H55.4031H55.4071H55.4098H55.4143H55.4164H55.4215H55.4231H55.4288H55.4298H55.4362H55.4365H55.4431H55.4435H55.4498H55.4509H55.4565H55.4584H55.4631H55.4659H55.4698H55.4734H55.4765H55.481H55.4831H55.4886H55.4897H55.4962H55.4964H55.503H55.5039H55.5097H55.5116H55.5163H55.5193H55.5229H55.5271H55.5295H55.535H55.5362H55.5428H55.5428H55.5494H55.5508H55.556H55.5587H55.5626H55.5667H55.5692H55.5747H55.5758H55.5823H55.5828H55.5889H55.5909H55.5955H55.5991H55.6021H55.6073H55.6086H55.6152H55.6155H55.6218H55.6238H55.6283H55.6321H55.6349H55.6405H55.6414H55.6479H55.6489H55.6545H55.6573H55.661H55.6658H55.6675H55.674H55.6744H55.6806H55.6829H55.6871H55.6916H55.6936H55.7001H55.7002H55.7065H55.7089H55.713H55.7177H55.7195H55.726H55.7265H55.7325H55.7353H55.7389H55.7442H55.7454H55.7518H55.7531H55.7583H55.7621H55.7647H55.7711ZM39.5 14.75C35.2198 14.75 31.75 18.2198 31.75 22.5C31.75 26.7802 35.2198 30.25 39.5 30.25C43.7802 30.25 47.25 26.7802 47.25 22.5C47.25 22.2892 47.2416 22.0805 47.2251 21.8742C47.1922 21.4613 47.5002 21.0998 47.9131 21.0669C48.326 21.0339 48.6874 21.342 48.7204 21.7549C48.74 22.0008 48.75 22.2493 48.75 22.5C48.75 27.6086 44.6086 31.75 39.5 31.75C34.3914 31.75 30.25 27.6086 30.25 22.5C30.25 17.3914 34.3914 13.25 39.5 13.25C39.9038 13.25 40.3018 13.2759 40.6926 13.3263C41.1034 13.3792 41.3935 13.7551 41.3406 14.1659C41.2877 14.5768 40.9118 14.8669 40.5009 14.814C40.1736 14.7718 39.8395 14.75 39.5 14.75ZM47.111 14.7963C47.4284 15.0625 47.4699 15.5356 47.2037 15.8529L40.0746 24.3529C39.9259 24.5303 39.7036 24.629 39.4723 24.6205C39.241 24.6119 39.0266 24.497 38.8914 24.3092L36.4236 20.8818C36.1816 20.5456 36.2579 20.0769 36.594 19.8349C36.9302 19.5929 37.3989 19.6692 37.6409 20.0053L39.5451 22.6501L46.0544 14.889C46.3206 14.5716 46.7936 14.5301 47.111 14.7963Z" fill="#F7F9FB"/>
</svg>
