<svg width="68" height="68" viewBox="0 0 68 68" fill="none" xmlns="http://www.w3.org/2000/svg">
<path d="M21.5186 30.316L20.8339 30.6222C20.8382 30.6317 20.8426 30.6412 20.8473 30.6506L21.5186 30.316ZM32.5282 52.4081L31.857 52.7426L32.5282 52.4081ZM36.1083 52.4081L35.437 52.0735L36.1083 52.4081ZM47.1178 30.316L47.789 30.6506C47.7937 30.6412 47.7982 30.6317 47.8024 30.6222L47.1178 30.316ZM34.3183 11.75C37.9671 11.75 41.3622 12.8723 43.8332 15.0158C46.2902 17.1472 47.8864 20.3323 47.8864 24.5849H49.3864C49.3864 19.9224 47.6199 16.315 44.8161 13.8828C42.0263 11.4626 38.2623 10.25 34.3183 10.25V11.75ZM20.75 24.5849C20.75 20.3323 22.3462 17.1473 24.8032 15.0158C27.2743 12.8723 30.6694 11.75 34.3183 11.75V10.25C30.3742 10.25 26.6102 11.4626 23.8203 13.8827C21.0165 16.315 19.25 19.9224 19.25 24.5849H20.75ZM22.2033 30.0099C21.9625 29.4715 21.5945 28.5362 21.288 27.5115C20.9778 26.4744 20.75 25.4083 20.75 24.5849H19.25C19.25 25.6295 19.5284 26.8629 19.8509 27.9413C20.1772 29.0322 20.5684 30.0285 20.8339 30.6222L22.2033 30.0099ZM33.1995 52.0736L22.1898 29.9815L20.8473 30.6506L31.857 52.7426L33.1995 52.0736ZM35.437 52.0735C34.9769 52.9968 33.6596 52.9968 33.1995 52.0736L31.857 52.7426C32.8692 54.7738 35.7673 54.7738 36.7796 52.7426L35.437 52.0735ZM46.4465 29.9815L35.437 52.0735L36.7796 52.7426L47.789 30.6506L46.4465 29.9815ZM47.8864 24.5849C47.8864 25.4083 47.6585 26.4744 47.3483 27.5115C47.0419 28.5362 46.6738 29.4715 46.4331 30.0099L47.8024 30.6222C48.0679 30.0285 48.4592 29.0322 48.7854 27.9413C49.108 26.8629 49.3864 25.6295 49.3864 24.5849H47.8864ZM40.7047 25C40.7047 28.4518 37.9065 31.25 34.4547 31.25V32.75C38.7349 32.75 42.2047 29.2802 42.2047 25H40.7047ZM34.4547 18.75C37.9065 18.75 40.7047 21.5482 40.7047 25H42.2047C42.2047 20.7198 38.7349 17.25 34.4547 17.25V18.75ZM28.2047 25C28.2047 21.5482 31.0029 18.75 34.4547 18.75V17.25C30.1745 17.25 26.7047 20.7198 26.7047 25H28.2047ZM34.4547 31.25C31.0029 31.25 28.2047 28.4518 28.2047 25H26.7047C26.7047 29.2802 30.1745 32.75 34.4547 32.75V31.25Z" fill="#F7F9FB"/>
<mask id="mask0_240_25029" style="mask-type:alpha" maskUnits="userSpaceOnUse" x="38" y="10" width="25" height="48">
<path d="M53 24.5C53 16 48.5 12 44.5 10H63V57.5H38.5C44.5 46.5 53 31.3 53 24.5Z" fill="#D9D9D9"/>
</mask>
<g mask="url(#mask0_240_25029)">
<path d="M39.2486 28.8821L38.5639 29.1882C38.5682 29.1978 38.5727 29.2072 38.5774 29.2166L39.2486 28.8821ZM47.9828 46.4081L48.654 46.0736L47.9828 46.4081ZM51.5628 46.4081L50.8916 46.0735L51.5628 46.4081ZM60.2968 28.8821L60.9681 29.2166C60.9728 29.2072 60.9772 29.1978 60.9815 29.1882L60.2968 28.8821ZM49.7728 13.75C52.7467 13.75 55.5054 14.6647 57.5088 16.4026C59.4982 18.1284 60.7955 20.7096 60.7955 24.1698H62.2955C62.2955 20.2998 60.8279 17.2961 58.4917 15.2695C56.1696 13.2551 53.0419 12.25 49.7728 12.25V13.75ZM38.75 24.1698C38.75 20.7096 40.0473 18.1284 42.0367 16.4026C44.0401 14.6647 46.7989 13.75 49.7728 13.75V12.25C46.5037 12.25 43.376 13.2551 41.0538 15.2695C38.7176 17.2961 37.25 20.2998 37.25 24.1698H38.75ZM39.9333 28.5759C39.7376 28.1382 39.437 27.3745 39.1868 26.5379C38.9328 25.6888 38.75 24.8271 38.75 24.1698H37.25C37.25 25.0483 37.4834 26.0774 37.7497 26.9677C38.0197 27.8706 38.3435 28.6951 38.5639 29.1882L39.9333 28.5759ZM48.654 46.0736L39.9199 28.5475L38.5774 29.2166L47.3115 46.7426L48.654 46.0736ZM50.8916 46.0735C50.4315 46.9968 49.1141 46.9968 48.654 46.0736L47.3115 46.7426C48.3238 48.7738 51.2218 48.7738 52.2341 46.7426L50.8916 46.0735ZM59.6256 28.5476L50.8916 46.0735L52.2341 46.7426L60.9681 29.2166L59.6256 28.5476ZM60.7955 24.1698C60.7955 24.8271 60.6126 25.6888 60.3587 26.5379C60.1084 27.3745 59.8079 28.1382 59.6122 28.5759L60.9815 29.1882C61.202 28.6951 61.5257 27.8706 61.7958 26.9677C62.0621 26.0774 62.2955 25.0483 62.2955 24.1698H60.7955ZM54.8905 24.5111C54.8905 27.2756 52.6495 29.5167 49.885 29.5167V31.0167C53.4779 31.0167 56.3905 28.104 56.3905 24.5111H54.8905ZM49.885 19.5056C52.6495 19.5056 54.8905 21.7466 54.8905 24.5111H56.3905C56.3905 20.9182 53.4779 18.0056 49.885 18.0056V19.5056ZM44.8794 24.5111C44.8794 21.7466 47.1205 19.5056 49.885 19.5056V18.0056C46.2921 18.0056 43.3794 20.9182 43.3794 24.5111H44.8794ZM49.885 29.5167C47.1205 29.5167 44.8794 27.2756 44.8794 24.5111H43.3794C43.3794 28.104 46.2921 31.0167 49.885 31.0167V29.5167Z" fill="#F7F9FB"/>
</g>
<mask id="mask1_240_25029" style="mask-type:alpha" maskUnits="userSpaceOnUse" x="5" y="10" width="25" height="48">
<path d="M15 24.5C15 16 19.5 12 23.5 10H5V57.5H29.5C23.5 46.5 15 31.3 15 24.5Z" fill="#D9D9D9"/>
</mask>
<g mask="url(#mask1_240_25029)">
<path d="M28.7514 28.8821L29.4361 29.1882C29.4318 29.1978 29.4273 29.2072 29.4226 29.2166L28.7514 28.8821ZM20.0172 46.4081L19.346 46.0736L20.0172 46.4081ZM16.4372 46.4081L17.1084 46.0735L16.4372 46.4081ZM7.70316 28.8821L7.0319 29.2166C7.02723 29.2072 7.02276 29.1978 7.01849 29.1882L7.70316 28.8821ZM18.2272 13.75C15.2533 13.75 12.4946 14.6647 10.4912 16.4026C8.5018 18.1284 7.20455 20.7096 7.20455 24.1698H5.70455C5.70455 20.2998 7.17208 17.2961 9.50826 15.2695C11.8304 13.2551 14.9581 12.25 18.2272 12.25V13.75ZM29.25 24.1698C29.25 20.7096 27.9527 18.1284 25.9633 16.4026C23.9599 14.6647 21.2011 13.75 18.2272 13.75V12.25C21.4963 12.25 24.624 13.2551 26.9462 15.2695C29.2824 17.2961 30.75 20.2998 30.75 24.1698H29.25ZM28.0667 28.5759C28.2624 28.1382 28.563 27.3745 28.8132 26.5379C29.0672 25.6888 29.25 24.8271 29.25 24.1698H30.75C30.75 25.0483 30.5166 26.0774 30.2503 26.9677C29.9803 27.8706 29.6565 28.6951 29.4361 29.1882L28.0667 28.5759ZM19.346 46.0736L28.0801 28.5475L29.4226 29.2166L20.6885 46.7426L19.346 46.0736ZM17.1084 46.0735C17.5685 46.9968 18.8859 46.9968 19.346 46.0736L20.6885 46.7426C19.6762 48.7738 16.7782 48.7738 15.7659 46.7426L17.1084 46.0735ZM8.37442 28.5476L17.1084 46.0735L15.7659 46.7426L7.0319 29.2166L8.37442 28.5476ZM7.20455 24.1698C7.20455 24.8271 7.38737 25.6888 7.64132 26.5379C7.89155 27.3745 8.19211 28.1382 8.38783 28.5759L7.01849 29.1882C6.79801 28.6951 6.47426 27.8706 6.20423 26.9677C5.93793 26.0774 5.70455 25.0483 5.70455 24.1698H7.20455ZM13.1095 24.5111C13.1095 27.2756 15.3505 29.5167 18.115 29.5167V31.0167C14.5221 31.0167 11.6095 28.104 11.6095 24.5111H13.1095ZM18.115 19.5056C15.3505 19.5056 13.1095 21.7466 13.1095 24.5111H11.6095C11.6095 20.9182 14.5221 18.0056 18.115 18.0056V19.5056ZM23.1206 24.5111C23.1206 21.7466 20.8795 19.5056 18.115 19.5056V18.0056C21.7079 18.0056 24.6206 20.9182 24.6206 24.5111H23.1206ZM18.115 29.5167C20.8795 29.5167 23.1206 27.2756 23.1206 24.5111H24.6206C24.6206 28.104 21.7079 31.0167 18.115 31.0167V29.5167Z" fill="#F7F9FB"/>
</g>
</svg>
